<?xml version="1.0" encoding="iso-8859-1"?>
<svg version="1.1" xmlns="http://www.w3.org/2000/svg" xmlns:xlink="http://www.w3.org/1999/xlink"
	 viewBox="0 0 26 26" xml:space="preserve">
	<path d="M19,11H2c-0.551,0-1,0.449-1,1v6c0,0.551,0.449,1,1,1h17c0.551,0,1-0.449,1-1v-6C20,11.449,19.551,11,19,11z M6.531,17.841C6.531,17.929,6.46,18,6.372,18h-3.24c-0.088,0-0.159-0.071-0.159-0.159v-5.699c0-0.088,0.071-0.159,0.159-0.159h3.135c0.088,0,0.159,0.071,0.159,0.159v1.057c0,0.088-0.071,0.159-0.159,0.159H4.438v0.865h1.715c0.088,0,0.159,0.071,0.159,0.159v1.05c0,0.087-0.071,0.158-0.159,0.158H4.438v1.035h1.934c0.088,0,0.159,0.071,0.159,0.159C6.531,16.784,6.531,17.841,6.531,17.841z M12.198,18c-0.004,0-0.006,0-0.008,0h-1.329c-0.063,0-0.12-0.037-0.145-0.094l-0.461-1.032c-0.121-0.253-0.214-0.466-0.303-0.673c-0.061,0.156-0.128,0.317-0.204,0.5l-0.487,1.198C9.238,17.961,9.181,18,9.115,18H7.802c-0.055,0-0.106-0.029-0.136-0.076c-0.028-0.047-0.03-0.105-0.006-0.155l1.437-2.812l-1.384-2.744c-0.025-0.049-0.022-0.107,0.006-0.155c0.029-0.047,0.081-0.075,0.136-0.075h1.322c0.063,0,0.12,0.038,0.146,0.097l0.445,1.04c0.088,0.201,0.164,0.382,0.239,0.57c0.068-0.188,0.137-0.363,0.215-0.565l0.432-1.044c0.025-0.059,0.083-0.098,0.146-0.098h1.314c0.056,0,0.106,0.028,0.135,0.076s0.031,0.106,0.007,0.155l-1.397,2.709l1.453,2.807c0.027,0.028,0.045,0.068,0.045,0.111C12.356,17.929,12.286,18,12.198,18z M17.556,17.841c0,0.088-0.071,0.159-0.159,0.159h-3.24c-0.088,0-0.159-0.071-0.159-0.159v-5.699c0-0.088,0.071-0.159,0.159-0.159h3.135c0.088,0,0.159,0.071,0.159,0.159v1.057c0,0.088-0.071,0.159-0.159,0.159h-1.828v0.865h1.715c0.088,0,0.159,0.071,0.159,0.159v1.05c0,0.087-0.071,0.158-0.159,0.158h-1.715v1.035h1.934c0.088,0,0.159,0.071,0.159,0.159L17.556,17.841L17.556,17.841z 
M22.266,4.207c-0.244-0.24-0.494-0.484-0.74-0.732c-0.248-0.246-0.492-0.496-0.732-0.74
C19.082,0.988,18.063,0,17,0H9C6.795,0,5,1.795,5,4v7.2h2V4c0-1.104,0.896-2,2-2l7.289-0.004C17.01,2.18,17,3.066,17,3.953V7
c0,0.551,0.449,1,1,1h3c0.998,0,2,0.005,2,1v13c0,1.104-0.896,2-2,2H9c-1.104,0-2-0.896-2-2v-3.2H5V22c0,2.205,1.795,4,4,4h12
c2.205,0,4-1.795,4-4V8C25,6.938,24.012,5.918,22.266,4.207z"/>
</svg>