<?xml version="1.0" encoding="UTF-8" standalone="no"?>
<!-- Created with Inkscape (http://www.inkscape.org/) -->

<svg
	xmlns:dc="http://purl.org/dc/elements/1.1/"
	xmlns:cc="http://creativecommons.org/ns#"
	xmlns:rdf="http://www.w3.org/1999/02/22-rdf-syntax-ns#"
	xmlns:svg="http://www.w3.org/2000/svg"
	xmlns="http://www.w3.org/2000/svg"
	xmlns:s="http://sodipodi.sourceforge.net/DTD/sodipodi-0.dtd"
	xmlns:i="http://www.inkscape.org/namespaces/inkscape"
	width="30mm"
	height="30mm"
	viewBox="0 0 30 30"
	version="1.1"
	id="svg8"
	i:version="0.92.3 (2405546, 2018-03-11)"
	s:docname="icon.svg">
	<defs id="defs2"/>
	<s:namedview
		id="base"
		pagecolor="#fff"
		bordercolor="#666"
		borderopacity="1.0"
		i:pageopacity="0.0"
		i:pageshadow="2"
		i:zoom="1.979899"
		i:cx="171.777"
		i:cy="-12.346537"
		i:document-units="mm"
		i:current-layer="layer1"
		showgrid="false"
		i:window-width="1596"
		i:window-height="1740"
		i:window-x="1589"
		i:window-y="0"
		i:window-maximized="0" />
	<metadata
		id="metadata5">
		<rdf:RDF>
			<cc:Work
				rdf:about="">
				<dc:format>image/svg+xml</dc:format>
				<dc:type
					rdf:resource="http://purl.org/dc/dcmitype/StillImage" />
				<dc:title />
			</cc:Work>
		</rdf:RDF>
	</metadata>
	<g i:label="Layer 1" i:groupmode="layer" id="layer1" transform="translate(-17.98335,-140.25818)">
		<g transform="translate(23.223919,130.27752)" id="g257">
			<path style="fill:#15b3f4" d="m 13.207234,25.480658 q 0.25,-0.25 0.625,-0.375 l 0.375,-0.125 -0.28125,0.09375 -0.28125,0.09375 0.1875,-0.0625 q 0.1875,-0.0625 0.40625,-0.09375 l 0.21875,-0.03125 -0.109375,0.01563 -0.109375,0.01563 -0.140625,0.359375 q -0.140625,0.359375 -0.390625,0.609375 -0.25,0.25 -0.5,0.5 -0.25,0.25 -0.5,0.5 -0.25,0.25 -0.375,0.625 -0.125,0.375 -0.125,0.875 v 0.5 l -0.484375,-0.01563 -0.484375,-0.01563 0.01563,0.109375 0.01563,0.109375 -0.03125,-0.21875 q -0.03125,-0.21875 -0.03125,-0.46875 v -0.25 0.375 0.375 -0.5 q 0,-0.5 0.125,-0.875 0.125,-0.375 0.375,-0.625 0.25,-0.25 0.5,-0.5 0.25,-0.25 0.5,-0.5 0.25,-0.25 0.5,-0.5 m -1.375,3.5 h 0.375 0.125 0.125 -0.25 q -0.25,0 -0.5,0 h -0.25 0.375" id="path209"/>
			<path style="fill:#1ffdff" d="m 14.097859,25.371283 0.140625,-0.359375 -0.109375,0.01563 -0.109375,0.01563 0.21875,-0.03125 q 0.21875,-0.03125 0.46875,-0.03125 h 0.25 -0.375 -0.375 0.5 q 0.5,0 1,0 0.5,0 1,0 0.5,0 1,0 h 0.5 -0.375 -0.375 0.25 q 0.25,0 0.46875,0.03125 l 0.21875,0.03125 -0.109375,-0.01563 -0.109375,-0.01563 0.01563,0.515625 0.01563,0.515625 h 0.09375 0.09375 -0.1875 q -0.1875,0 -0.375,0.0625 l -0.1875,0.0625 0.28125,-0.09375 0.28125,-0.09375 -0.375,0.125 q -0.375,0.125 -0.375,0.375 0,0.25 0.25,0.5 0.25,0.25 0.375,0.625 l 0.125,0.375 -0.09375,-0.28125 -0.09375,-0.28125 0.0625,0.1875 q 0.0625,0.1875 0.09375,0.40625 l 0.03125,0.21875 -0.01563,-0.109375 -0.01563,-0.109375 -0.359375,-0.140625 q -0.359375,-0.140625 -0.609375,-0.390625 -0.25,-0.25 -0.625,-0.375 -0.375,-0.125 -0.875,-0.125 -0.5,0 -0.875,0.125 -0.375,0.125 -0.5,0.5 -0.125,0.375 -0.25,0.75 -0.125,0.375 -0.5,0.5 -0.375,0.125 -0.875,0.125 h -0.5 v -0.5 q 0,-0.5 0.125,-0.875 0.125,-0.375 0.375,-0.625 0.25,-0.25 0.5,-0.5 0.25,-0.25 0.5,-0.5 0.25,-0.25 0.390625,-0.609375 m -2.015625,3.609375 h 0.125 0.375 0.375 -0.25 q -0.25,0 -0.5,0 h -0.25 0.125" id="path211"/>
			<path style="fill:#15b3f4" d="m 18.191609,25.527533 -0.01563,-0.515625 -0.109375,-0.01563 -0.109375,-0.01563 0.21875,0.03125 q 0.21875,0.03125 0.40625,0.09375 l 0.1875,0.0625 -0.28125,-0.09375 -0.28125,-0.09375 0.375,0.125 q 0.375,0.125 0.625,0.375 0.25,0.25 0.5,0.5 0.25,0.25 0.5,0.5 0.25,0.25 0.5,0.5 0.25,0.25 0.375,0.625 0.125,0.375 0.125,0.875 0,0.5 0,1 v 0.5 -0.375 -0.375 0.25 q 0,0.25 -0.03125,0.46875 l -0.03125,0.21875 0.01563,-0.109375 0.01563,-0.109375 h -0.5 -0.5 l -0.01563,0.109375 -0.01563,0.109375 0.03125,-0.21875 q 0.03125,-0.21875 0.03125,-0.46875 v -0.25 0.375 0.375 -0.5 q 0,-0.5 0,-1 0,-0.5 -0.125,-0.875 -0.125,-0.375 -0.375,-0.625 -0.25,-0.25 -0.5,-0.5 -0.25,-0.25 -0.625,-0.375 l -0.375,-0.125 0.28125,0.09375 0.28125,0.09375 -0.1875,-0.0625 q -0.1875,-0.0625 -0.375,-0.0625 h -0.1875 0.09375 0.09375 l -0.01563,-0.515625" id="path213"/>
			<path style="fill:#000" d="m 10.207234,26.480658 q 0.25,-0.25 0.625,-0.375 0.375,-0.125 0.75,-0.25 l 0.375,-0.125 -0.28125,0.09375 -0.28125,0.09375 0.1875,-0.0625 q 0.1875,-0.0625 0.34375,-0.15625 l 0.15625,-0.09375 -0.07813,0.04687 -0.07813,0.04687 0.265625,0.265625 0.265625,0.265625 -0.25,0.25 q -0.25,0.25 -0.5,0.5 l -0.25,0.25 0.1875,-0.1875 0.1875,-0.1875 -0.125,0.125 q -0.125,0.125 -0.21875,0.28125 l -0.09375,0.15625 0.04687,-0.07813 0.04687,-0.07813 -0.265625,-0.265625 q -0.265625,-0.265625 -0.515625,-0.01563 -0.25,0.25 -0.375,0.625 -0.125,0.375 -0.125,0.875 0,0.5 0,1 0,0.5 0,1 v 0.5 0.5 q 0,0.5 0,1 0,0.5 0,1 0,0.5 0,1 0,0.5 0,1 0,0.5 0,1 0,0.5 0,1 0,0.5 0.125,0.875 0.125,0.375 0.5,0.5 0.375,0.125 0.875,0.125 0.5,0 1,0 h 0.5 l 0.375,0.125 q 0.375,0.125 0.640625,-0.140625 l 0.265625,-0.265625 -0.04687,-0.07813 -0.04687,-0.07813 0.09375,0.15625 q 0.09374,0.15626 0.21874,0.28126 l 0.125,0.125 -0.1875,-0.1875 -0.1875,-0.1875 0.25,0.25 q 0.25,0.25 0.5,0.5 l 0.25,0.25 -0.1875,-0.1875 -0.1875,-0.1875 0.125,0.125 q 0.125,0.125 0.28125,0.21875 l 0.15625,0.09375 -0.07813,-0.04687 -0.07813,-0.04687 -0.28125,0.28125 -0.28125,0.28125 0.07813,0.04687 0.07812,0.04688 -0.15625,-0.09375 q -0.15625,-0.09375 -0.34375,-0.15625 l -0.1875,-0.0625 0.28125,0.09375 0.28125,0.09375 -0.375,-0.125 q -0.375,-0.125 -0.875,-0.125 -0.5,0 -1,0 -0.5,0 -1,0 -0.5,0 -0.875,-0.125 -0.375,-0.125 -0.625,-0.375 -0.2499997,-0.25 -0.4999997,-0.5 -0.25,-0.25 -0.375,-0.625 -0.125,-0.375 -0.125,-0.875 0,-0.5 0,-1 0,-0.5 0,-1 0,-0.5 0,-1 0,-0.5 0,-1 0,-0.5 0,-1 0,-0.5 0,-1 0,-0.5 0,-1 0,-0.5 0,-1 0,-0.5 0,-1 0,-0.5 0.125,-0.875 0.125,-0.375 0.375,-0.625 0.25,-0.25 0.4999997,-0.5 m 2.0625,-0.0625 0.1875,-0.1875 0.0625,-0.0625 0.0625,-0.0625 -0.125,0.125 q -0.125,0.125 -0.25,0.25 l -0.125,0.125 0.1875,-0.1875" id="path215"/>
			<path style="fill:#9efffe" d="m 17.457234,26.480658 q 0,-0.25 0.375,-0.375 0.375,-0.125 0.75,0 0.375,0.125 0.625,0.375 0.25,0.25 0.5,0.5 0.25,0.25 0.375,0.625 0.125,0.375 0.125,0.875 v 0.5 h -0.5 q -0.5,0 -1.015625,-0.01563 l -0.515625,-0.01563 -0.01563,0.109375 -0.01563,0.109375 0.03125,-0.21875 q 0.03125,-0.21875 0.03125,-0.46875 v -0.25 0.375 0.375 -0.5 q 0,-0.5 -0.125,-0.875 -0.125,-0.375 -0.375,-0.625 -0.25,-0.25 -0.25,-0.5 m 2.75,2.625 v -0.125 -0.375 -0.375 0.25 q 0,0.25 0,0.5 v 0.25 -0.125" id="path217"/>
			<path style="fill:#000" d="m 20.207234,26.480658 -0.25,-0.25 0.265625,-0.265625 0.265625,-0.265625 -0.07813,-0.04687 -0.07813,-0.04687 0.15625,0.09375 q 0.15625,0.09375 0.34375,0.15625 l 0.1875,0.0625 -0.28125,-0.09375 -0.28125,-0.09375 0.375,0.125 q 0.375,0.125 0.875,0.125 0.5,0 0.875,0.125 0.375,0.125 0.625,0.375 0.25,0.25 0.5,0.5 0.25,0.25 0.375,0.625 0.125,0.375 0.125,0.875 0,0.5 0,1 0,0.5 0,1 0,0.5 0,1 0,0.5 0,1 0,0.5 0,1 0,0.5 0,1 0,0.5 0,1 0,0.5 0,1 0,0.5 0,1 0,0.5 -0.125,0.875 -0.125,0.375 -0.375,0.625 -0.25,0.25 -0.5,0.5 -0.25,0.25 -0.625,0.375 -0.375,0.125 -0.875,0.125 -0.5,0 -1,0 -0.5,0 -1,0 -0.5,0 -1,0 -0.5,0 -0.875,0.125 l -0.375,0.125 0.28125,-0.09375 0.28125,-0.09375 -0.1875,0.0625 q -0.1875,0.0625 -0.34375,0.15625 l -0.15625,0.09375 0.07813,-0.04687 0.07813,-0.04687 -0.28125,-0.28125 -0.28125,-0.28125 -0.07813,0.04687 -0.07813,0.04687 0.15625,-0.09375 q 0.15626,-0.09374 0.28126,-0.21874 l 0.125,-0.125 -0.1875,0.1875 -0.1875,0.1875 0.25,-0.25 q 0.25,-0.25 0.5,-0.5 l 0.25,-0.25 -0.1875,0.1875 -0.1875,0.1875 0.125,-0.125 q 0.125,-0.125 0.21875,-0.28125 l 0.09375,-0.15625 -0.04687,0.07813 -0.04687,0.07813 0.265625,0.265625 q 0.265615,0.265615 0.640615,0.140615 l 0.375,-0.125 h 0.5 q 0.5,0 1,0 0.5,0 1,0 0.5,0 0.875,-0.125 0.375,-0.125 0.5,-0.5 0.125,-0.375 0.125,-0.875 0,-0.5 0,-1 0,-0.5 0,-1 0,-0.5 0,-1 0,-0.5 0,-1 0,-0.5 0,-1 0,-0.5 0,-1 0,-0.5 0,-1 0,-0.5 0,-1 0,-0.5 0,-1 0,-0.5 -0.125,-0.875 -0.125,-0.375 -0.5,-0.5 l -0.375,-0.125 -0.375,-0.125 q -0.375,-0.125 -0.640625,0.140625 l -0.265625,0.265625 0.04687,0.07813 0.04687,0.07813 -0.09375,-0.15625 q -0.09375,-0.15625 -0.21875,-0.28125 l -0.125,-0.125 0.1875,0.1875 0.1875,0.1875 -0.25,-0.25 q -0.25,-0.25 -0.5,-0.5 m -0.3125,-0.3125 0.0625,0.0625 0.1875,0.1875 0.1875,0.1875 -0.125,-0.125 q -0.125,-0.125 -0.25,-0.25 l -0.125,-0.125 0.0625,0.0625" id="path219"/>
			<path style="fill:#0d0d0d" d="m 10.332234,27.605658 q 0.125,-0.375 0.375,-0.625 0.25,-0.25 0.515625,0.01563 l 0.265625,0.265625 0.04687,-0.07813 0.04687,-0.07813 -0.09375,0.15625 q -0.09375,0.15625 -0.15625,0.34375 l -0.0625,0.1875 0.09375,-0.28125 0.09375,-0.28125 -0.125,0.375 q -0.125,0.375 -0.125,0.875 0,0.5 0.125,0.875 0.125,0.375 0.5,0.5 0.375,0.125 0.875,0.125 0.5,0 1,0 0.5,0 0.875,-0.125 0.375,-0.125 0.5,-0.5 0.125,-0.375 0.25,-0.75 0.125,-0.375 0.5,-0.5 0.375,-0.125 0.75,0 0.375,0.125 0.5,0.5 0.125,0.375 0.125,0.875 v 0.5 l -0.375,0.125 q -0.375,0.125 -0.5,0.5 -0.125,0.375 -0.625,0.375 -0.5,0 -0.875,0.125 -0.375,0.125 -0.5,0.5 -0.125,0.375 0,0.75 0.125,0.375 0.5,0.5 l 0.375,0.125 v 0.5 q 0,0.5 0.125,0.875 0.125,0.375 0.5,0.5 0.375,0.125 0.75,0 0.375,-0.125 0.5,-0.5 0.125,-0.375 0.125,-0.875 v -0.5 h 0.5 q 0.5,0 0.875,-0.125 0.375,-0.125 0.625,-0.375 0.25,-0.25 0.5,-0.5 0.25,-0.25 0.5,-0.5 0.25,-0.25 0.5,-0.5 0.25,-0.25 0.375,-0.625 0.125,-0.375 0.125,-0.875 0,-0.5 0,-1 0,-0.5 -0.125,-0.875 l -0.125,-0.375 0.09375,0.28125 0.09375,0.28125 -0.0625,-0.1875 q -0.0625,-0.1875 -0.15625,-0.34375 l -0.09375,-0.15625 0.04687,0.07813 0.04687,0.07813 0.265625,-0.265625 q 0.265625,-0.265625 0.640625,-0.140625 l 0.375,0.125 v 0.5 q 0,0.5 0,1 0,0.5 0,1 0,0.5 0,1 0,0.5 -0.375,0.625 -0.375,0.125 -0.5,0.5 -0.125,0.375 -0.5,0.5 -0.375,0.125 -0.5,0.5 -0.125,0.375 -0.5,0.5 -0.375,0.125 -0.5,0.5 -0.125,0.375 -0.625,0.375 -0.5,0 -0.5,0.5 0,0.5 -0.375,0.625 -0.375,0.125 -0.375,0.375 0,0.25 0.375,0.375 0.375,0.125 0.5,0.5 0.125,0.375 0.5,0.5 0.375,0.125 0.375,0.625 0,0.5 0,1 v 0.5 l -0.375,0.125 q -0.375,0.125 -0.640625,-0.140625 l -0.265625,-0.265625 -0.04687,0.07813 -0.04687,0.07813 0.09375,-0.15625 q 0.09375,-0.15625 0.15625,-0.34375 l 0.0625,-0.1875 -0.09375,0.28125 -0.09375,0.28125 0.125,-0.375 q 0.125,-0.375 0,-0.75 -0.125,-0.375 -0.375,-0.625 -0.25,-0.25 -0.5,-0.5 -0.25,-0.25 -0.625,-0.375 -0.375,-0.125 -0.75,0 -0.375,0.125 -0.625,0.375 -0.25,0.25 -0.5,0.5 -0.25,0.25 -0.375,0.625 -0.125,0.375 0,0.75 l 0.125,0.375 -0.09375,-0.28125 -0.09375,-0.28125 0.0625,0.1875 q 0.0625,0.1875 0.15625,0.34375 l 0.09375,0.15625 -0.04687,-0.07813 -0.04687,-0.07813 -0.265625,0.265625 q -0.265635,0.265635 -0.640635,0.140635 l -0.375,-0.125 v -0.5 q 0,-0.5 0,-1 0,-0.5 0.375,-0.625 0.375,-0.125 0.5,-0.5 0.125,-0.375 0.5,-0.5 0.375,-0.125 0.375,-0.375 0,-0.25 -0.375,-0.375 -0.375,-0.125 -0.375,-0.625 0,-0.5 -0.125,-0.875 -0.125,-0.375 -0.5,-0.5 -0.375,-0.125 -0.375,-0.625 0,-0.5 0,-1 0,-0.5 -0.5,-0.5 -0.5,0 -1,0 -0.5,0 -1,0 h -0.5 v -0.5 q 0,-0.5 0,-1 0,-0.5 0,-1 0,-0.5 0.125,-0.875" id="path221"/>
			<path style="fill:#15b3f4" d="m 14.332234,27.605658 q 0.125,-0.375 0.5,-0.5 l 0.375,-0.125 -0.28125,0.09375 -0.28125,0.09375 0.1875,-0.0625 q 0.1875,-0.0625 0.40625,-0.09375 l 0.21875,-0.03125 -0.109375,0.01563 -0.109375,0.01563 -0.140625,0.359375 q -0.140625,0.359375 -0.515625,0.484375 l -0.375,0.125 0.125,-0.375 m -0.03125,0.09375 -0.09375,0.28125 -0.03125,0.09375 -0.03125,0.09375 0.0625,-0.1875 q 0.0625,-0.1875 0.125,-0.375 l 0.0625,-0.1875 -0.09375,0.28125" id="path223"/>
			<path style="fill:#0a73bc" d="m 15.097859,27.371283 0.140625,-0.359375 -0.109375,0.01563 -0.109375,0.01563 0.21875,-0.03125 q 0.21875,-0.03125 0.46875,-0.03125 h 0.25 -0.375 -0.375 0.5 q 0.5,0 0.875,0.125 0.375,0.125 0.625,0.375 0.25,0.25 0.609375,0.390625 l 0.359375,0.140625 -0.01563,-0.109375 -0.01563,-0.109375 0.03125,0.21875 q 0.03125,0.21875 0.03125,0.46875 v 0.25 -0.375 -0.375 0.5 q 0,0.5 -0.125,0.875 -0.125,0.375 -0.5,0.5 l -0.375,0.125 v -0.5 q 0,-0.5 -0.125,-0.875 -0.125,-0.375 -0.5,-0.5 -0.375,-0.125 -0.75,0 -0.375,0.125 -0.5,0.5 -0.125,0.375 -0.25,0.75 -0.125,0.375 -0.5,0.5 -0.375,0.125 -0.875,0.125 -0.5,0 -1,0 -0.5,0 -0.875,-0.125 -0.375,-0.125 -0.5,-0.5 l -0.125,-0.375 0.09375,0.28125 0.09375,0.28125 -0.0625,-0.1875 q -0.0625,-0.1875 -0.09375,-0.40625 l -0.03125,-0.21875 0.01563,0.109375 0.01563,0.109375 0.484375,0.01563 q 0.484375,0.01563 0.984375,0.01563 0.5,0 0.875,-0.125 0.375,-0.125 0.5,-0.5 l 0.125,-0.375 0.375,-0.125 q 0.375,-0.125 0.515625,-0.484375 m -0.859375,0.515625 -0.03125,0.09375 -0.09375,0.28125 -0.09375,0.28125 0.0625,-0.1875 q 0.0625,-0.1875 0.125,-0.375 l 0.0625,-0.1875 -0.03125,0.09375" id="path225"/>
			<path style="fill:#262626" d="m 22.207234,27.480658 v -0.5 l 0.375,0.125 q 0.375,0.125 0.5,0.5 0.125,0.375 0.125,0.875 0,0.5 0,1 0,0.5 0,1 0,0.5 0,1 0,0.5 0,1 0,0.5 0,1 0,0.5 0,1 0,0.5 0,1 0,0.5 0,1 0,0.5 0,1 0,0.5 -0.125,0.875 -0.125,0.375 -0.5,0.5 -0.375,0.125 -0.875,0.125 -0.5,0 -1,0 -0.5,0 -1,0 h -0.5 v -0.5 q 0,-0.5 0,-1 0,-0.5 -0.375,-0.625 -0.375,-0.125 -0.5,-0.5 -0.125,-0.375 -0.5,-0.5 -0.375,-0.125 -0.375,-0.375 0,-0.25 0.375,-0.375 0.375,-0.125 0.375,-0.625 0,-0.5 0.5,-0.5 0.5,0 0.625,-0.375 0.125,-0.375 0.5,-0.5 0.375,-0.125 0.5,-0.5 0.125,-0.375 0.5,-0.5 0.375,-0.125 0.5,-0.5 0.125,-0.375 0.5,-0.5 0.375,-0.125 0.375,-0.625 0,-0.5 0,-1 0,-0.5 0,-1 0,-0.5 0,-1" id="path227"/>
			<path style="fill:#1ffdff" d="m 18.082234,29.355658 0.125,-0.375 -0.09375,0.28125 -0.09375,0.28125 0.0625,-0.1875 q 0.0625,-0.1875 0.09375,-0.40625 l 0.03125,-0.21875 -0.01563,0.109375 -0.01563,0.109375 0.515625,0.01563 q 0.515625,0.01563 1.015625,0.01563 h 0.5 v 0.5 q 0,0.5 -0.125,0.875 -0.125,0.375 -0.375,0.625 -0.25,0.25 -0.5,0.5 -0.25,0.25 -0.625,0.375 -0.375,0.125 -0.75,0.25 -0.375,0.125 -0.5,0.5 l -0.125,0.375 h -0.5 q -0.5,0 -1,0 h -0.5 v -0.5 q 0,-0.5 0.01563,-0.984375 l 0.01563,-0.484375 -0.109375,0.01563 -0.109375,0.01563 0.21875,-0.03125 q 0.21874,-0.03126 0.46874,-0.03126 h 0.25 -0.375 -0.375 0.5 0.5 -0.375 -0.375 0.25 q 0.25,0 0.40625,-0.09375 l 0.15625,-0.09375 -0.07813,0.04687 -0.07813,0.04687 0.421875,-0.07813 q 0.421875,-0.07813 0.546875,-0.453125 l 0.125,-0.375 0.375,-0.125 q 0.375,-0.125 0.5,-0.5 m 2.125,0 v -0.375 -0.125 -0.125 0.25 q 0,0.25 0,0.5 v 0.25 -0.375" id="path229"/>
			<path style="fill:#15b3f4" d="m 16.332234,30.605658 q 0.125,-0.375 0.5,-0.5 l 0.375,-0.125 -0.125,0.375 q -0.125,0.375 -0.546875,0.453125 l -0.421875,0.07813 -0.07813,0.04687 -0.07813,0.04687 0.15625,-0.09375 q 0.15625,-0.09375 0.21875,-0.28125 l 0.0625,-0.1875 -0.09375,0.28125 -0.09375,0.28125 0.125,-0.375" id="path231"/>
			<path style="fill:#0a73bc" d="m 20.082234,30.355658 0.125,-0.375 -0.09375,0.28125 -0.09375,0.28125 0.0625,-0.1875 q 0.0625,-0.1875 0.09375,-0.40625 l 0.03125,-0.21875 -0.01563,0.109375 -0.01563,0.109375 h 0.5 0.5 l 0.01563,-0.109375 0.01563,-0.109375 -0.03125,0.21875 q -0.03125,0.21875 -0.09375,0.40625 l -0.0625,0.1875 0.09375,-0.28125 0.09375,-0.28125 -0.125,0.375 q -0.125,0.375 -0.375,0.625 -0.25,0.25 -0.5,0.5 -0.25,0.25 -0.5,0.5 -0.25,0.25 -0.5,0.5 -0.25,0.25 -0.625,0.375 -0.375,0.125 -0.875,0.125 h -0.5 l 0.125,-0.375 q 0.125,-0.375 0.5,-0.5 0.375,-0.125 0.75,-0.25 0.375,-0.125 0.625,-0.375 0.25,-0.25 0.5,-0.5 0.25,-0.25 0.375,-0.625" id="path233"/>
			<path style="fill:#262626" d="m 10.207234,31.480658 v -0.5 h 0.5 q 0.5,0 1,0 0.5,0 1,0 0.5,0 0.5,0.5 0,0.5 0,1 0,0.5 0.375,0.625 0.375,0.125 0.5,0.5 0.125,0.375 0.125,0.875 0,0.5 0.375,0.625 0.375,0.125 0.375,0.375 0,0.25 -0.375,0.375 -0.375,0.125 -0.5,0.5 -0.125,0.375 -0.5,0.5 -0.375,0.125 -0.375,0.625 0,0.5 0,1 v 0.5 h -0.5 q -0.5,0 -1,0 -0.5,0 -0.875,-0.125 -0.375,-0.125 -0.5,-0.5 -0.125,-0.375 -0.125,-0.875 0,-0.5 0,-1 0,-0.5 0,-1 0,-0.5 0,-1 0,-0.5 0,-1 0,-0.5 0,-1 0,-0.5 0,-1" id="path235"/>
			<path style="fill:#15b3f4" d="m 14.332234,31.605658 q 0.125,-0.375 0.5,-0.5 l 0.375,-0.125 -0.28125,0.09375 -0.28125,0.09375 0.1875,-0.0625 q 0.1875,-0.0625 0.40625,-0.09375 l 0.21875,-0.03125 -0.109375,0.01563 -0.109375,0.01563 -0.01563,0.484375 -0.01563,0.484375 h -0.46875 -0.46875 v 0.09375 0.09375 -0.1875 q 0,-0.1875 0.0625,-0.375 l 0.0625,-0.1875 -0.09375,0.28125 -0.09375,0.28125 0.125,-0.375 m 0.875,0.5 v -0.125 -0.375 -0.375 0.25 q 0,0.25 0,0.5 v 0.25 -0.125" id="path237"/>
			<path style="fill:#0a73bc" d="m 14.332234,32.355658 -0.125,-0.375 0.09375,0.28125 0.09375,0.28125 -0.0625,-0.1875 q -0.0625,-0.1875 -0.0625,-0.375 v -0.1875 0.09375 0.09375 h 0.46875 0.46875 v 0.5 0.5 l -0.375,-0.125 q -0.375,-0.125 -0.5,-0.5 m 0.875,0 v -0.375 -0.125 -0.125 0.25 q 0,0.25 0,0.5 v 0.25 -0.375" id="path239"/>
			<path style="fill:#15b3f4" d="m 15.207234,33.480658 v -0.5 h 0.5 q 0.5,0 1,0 h 0.5 v 0.5 0.5 -0.375 -0.375 0.25 q 0,0.25 -0.03125,0.46875 l -0.03125,0.21875 0.01563,-0.109375 0.01563,-0.109375 -0.484375,0.01563 q -0.484385,0.01562 -0.96876,-5e-6 l -0.484375,-0.01563 0.01563,0.109375 0.01563,0.109375 -0.03125,-0.21875 q -0.03126,-0.218745 -0.03126,-0.468745 v -0.25 0.375 0.375 -0.5" id="path241"/>
			<path style="fill:#0a73bc" d="m 15.332234,34.355658 -0.125,-0.375 0.09375,0.28125 0.09375,0.28125 -0.0625,-0.1875 q -0.0625,-0.1875 -0.09375,-0.40625 l -0.03125,-0.21875 0.01563,0.109375 0.01563,0.109375 0.484375,0.01563 q 0.484365,0.01562 0.96874,-5e-6 l 0.484375,-0.01563 0.01563,-0.109375 0.01563,-0.109375 -0.03125,0.21875 q -0.03125,0.21875 -0.09375,0.40625 l -0.0625,0.1875 0.09375,-0.28125 0.09375,-0.28125 -0.125,0.375 q -0.125,0.375 -0.5,0.5 -0.375,0.125 -0.75,0 -0.375,-0.125 -0.5,-0.5" id="path243"/>
			<path style="fill:#15b3f4" d="m 15.207234,36.480658 q 0.25,-0.25 0.625,-0.375 0.375,-0.125 0.75,0 0.375,0.125 0.625,0.375 0.25,0.25 0.5,0.5 0.25,0.25 0.375,0.625 l 0.125,0.375 -0.09375,-0.28125 -0.09375,-0.28125 0.0625,0.1875 q 0.0625,0.1875 0.0625,0.375 v 0.1875 -0.09375 -0.09375 h -0.46875 -0.46875 l -0.125,-0.375 q -0.125,-0.375 -0.5,-0.5 -0.375,-0.125 -0.75,0 -0.375,0.125 -0.5,0.5 l -0.125,0.375 h -0.46875 -0.46875 v 0.09375 0.09375 -0.1875 q 0,-0.1875 0.0625,-0.375 l 0.0625,-0.1875 -0.09375,0.28125 -0.09375,0.28125 0.125,-0.375 q 0.125,-0.375 0.375,-0.625 0.25,-0.25 0.5,-0.5" id="path245"/>
			<path style="fill:#9efffe" d="m 15.332234,37.605658 q 0.125,-0.375 0.5,-0.5 0.375,-0.125 0.75,0 0.375,0.125 0.5,0.5 l 0.125,0.375 h -0.5 q -0.5,0 -1,0 h -0.5 l 0.125,-0.375" id="path247"/>
			<path style="fill:#0a73bc" d="m 14.332234,38.355658 -0.125,-0.375 0.09375,0.28125 0.09375,0.28125 -0.0625,-0.1875 q -0.0625,-0.1875 -0.0625,-0.375 v -0.1875 0.09375 0.09375 h 0.46875 0.46875 l 0.125,0.375 q 0.125,0.375 0.5,0.5 0.375,0.125 0.75,0 0.375,-0.125 0.5,-0.5 l 0.125,-0.375 h 0.46875 0.46875 v -0.09375 -0.09375 0.1875 q 0,0.1875 -0.0625,0.375 l -0.0625,0.1875 0.09375,-0.28125 0.09375,-0.28125 -0.125,0.375 q -0.125,0.375 -0.375,0.625 -0.25,0.25 -0.5,0.5 -0.25,0.25 -0.625,0.375 -0.375,0.125 -0.75,0 -0.375,-0.125 -0.625,-0.375 -0.25,-0.25 -0.5,-0.5 -0.25,-0.25 -0.375,-0.625" id="path249"/>
			<path style="fill:#1ffdff" d="m 15.332234,38.355658 -0.125,-0.375 h 0.5 q 0.5,0 1,0 h 0.5 l -0.125,0.375 q -0.125,0.375 -0.5,0.5 -0.375,0.125 -0.75,0 -0.375,-0.125 -0.5,-0.5" id="path251"/>
			<path style="fill:#1b1c1d" d="m 15.207234,40.480658 -0.25,-0.25 0.1875,0.1875 0.1875,0.1875 -0.125,-0.125 q -0.125,-0.125 -0.28125,-0.21875 l -0.15625,-0.09375 0.07813,0.04687 0.07813,0.04687 0.28124,-0.28124 0.28125,-0.28125 -0.07813,-0.04687 -0.07813,-0.04687 0.15625,0.09375 q 0.15625,0.09375 0.34375,0.15625 l 0.1875,0.0625 -0.28125,-0.09375 -0.28125,-0.09375 0.375,0.125 q 0.375,0.125 0.75,0 l 0.375,-0.125 -0.28125,0.09375 -0.28125,0.09375 0.1875,-0.0625 q 0.1875,-0.0625 0.34375,-0.15625 l 0.15625,-0.09375 -0.07813,0.04687 -0.07813,0.04687 0.28125,0.28125 0.28125,0.28125 0.07813,-0.04687 0.07813,-0.04687 -0.15625,0.09375 q -0.15626,0.09374 -0.28126,0.21874 l -0.125,0.125 0.1875,-0.1875 0.1875,-0.1875 -0.25,0.25 q -0.25,0.25 -0.625,0.375 -0.375,0.125 -0.75,0 -0.375,-0.125 -0.625,-0.375" id="path253"/>
		</g>
		<g transform="translate(12.112065,151.28285)" id="g195">
			<path style="fill:#915622" d="M 15,2.5 V 2 h 0.5 q 0.5,0 1,0 H 17 l 0.125,0.375 q 0.125,0.375 0.5,0.5 L 18,3 17.71875,2.90625 17.4375,2.8125 17.625,2.875 q 0.1875,0.0625 0.40625,0.09375 L 18.25,3 18.140625,2.984375 18.03125,2.96875 18.140625,3.359375 Q 18.25,3.75 18.5,4 18.75,4.25 18.875,4.625 19,5 19,5.5 V 6 5.625 5.25 5.5 q 0,0.25 -0.03125,0.46875 L 18.9375,6.1875 18.953125,6.078125 18.96875,5.96875 h -0.5 -0.5 L 17.953125,6.078125 17.9375,6.1875 17.96875,5.96875 Q 18,5.75 18,5.5 V 5.25 5.625 6 5.5 Q 18,5 17.875,4.625 17.75,4.25 17.5,4 17.25,3.75 17,3.5 16.75,3.25 16.5,3.25 16.25,3.25 16.125,3.625 16,4 15.875,4.375 15.75,4.75 15.375,4.875 15,5 14.625,4.875 14.25,4.75 14,4.5 13.75,4.25 13.5,4.25 13.25,4.25 13,4.5 12.75,4.75 12.375,4.875 12,5 11.5,5 11,5 10.625,5.125 10.25,5.25 10,5.5 9.75,5.75 9.5,6 9.25,6.25 9.125,6.625 9,7 9.125,7.375 9.25,7.75 9.625,7.875 10,8 10.375,8.125 10.75,8.25 11,8.5 q 0.25,0.25 0.5,0.25 0.25,0 0.5,-0.25 0.25,-0.25 0.625,-0.375 L 13,8 V 8.5 9 8.625 8.25 8.5 q 0,0.25 -0.03125,0.46875 L 12.9375,9.1875 12.953125,9.078125 12.96875,8.96875 12.609375,9.109375 Q 12.25,9.25 12,9.5 11.75,9.75 11.359375,9.890625 L 10.96875,10.03125 10.984375,10.140625 11,10.25 10.96875,10.03125 Q 10.9375,9.8125 10.875,9.625 L 10.8125,9.4375 10.90625,9.71875 11,10 10.875,9.625 Q 10.75,9.25 10.375,9.125 10,9 9.5,9 H 9 9.375 9.75 9.5 Q 9.25,9 9.125,9.125 L 9,9.25 9.0625,9.1875 9.125,9.125 8.9375,8.6875 Q 8.75,8.25 8.375,8.125 L 8,8 V 7.5 Q 8,7 8.125,6.625 8.25,6.25 8.5,6 8.75,5.75 8.859375,5.359375 L 8.96875,4.96875 8.859375,4.984375 8.75,5 8.96875,4.96875 Q 9.1875,4.9375 9.375,4.875 L 9.5625,4.8125 9.28125,4.90625 9,5 9.375,4.875 Q 9.75,4.75 10,4.5 10.25,4.25 10.625,4.125 11,4 11.5,4 12,4 12.375,3.875 12.75,3.75 12.875,3.375 L 13,3 h 0.5 0.5 l 0.125,0.375 Q 14.25,3.75 14.5,3.75 14.75,3.75 14.875,3.375 15,3 15,2.5 M 14.125,3 H 14 13.625 13.25 13.5 q 0.25,0 0.5,0 h 0.25 -0.125 m -0.75,0 H 13 12.875 12.75 13 q 0.25,0 0.5,0 h 0.25 -0.375 M 8,7.625 V 8 8.125 8.25 8 Q 8,7.75 8,7.5 V 7.25 7.625 M 17.125,2 H 17 16.625 16.25 16.5 q 0.25,0 0.5,0 h 0.25 -0.125 m -1.75,0 H 15 14.875 14.75 15 q 0.25,0 0.5,0 h 0.25 -0.375" id="path137"/>
			<path style="fill:#a6671d" d="M 16.125,3.625 Q 16.25,3.25 16.5,3.25 16.75,3.25 17,3.5 17.25,3.75 17.5,4 17.75,4.25 17.875,4.625 18,5 18,5.5 18,6 17.875,6.375 17.75,6.75 17.375,6.875 17,7 16.5,7 16,7 15.5,7 15,7 14.5,7 14,7 13.625,7.125 13.25,7.25 13.125,7.625 L 13,8 12.625,8.125 Q 12.25,8.25 12,8.5 11.75,8.75 11.5,8.75 11.25,8.75 11,8.5 10.75,8.25 10.375,8.125 10,8 9.625,7.875 9.25,7.75 9.125,7.375 9,7 9.125,6.625 9.25,6.25 9.5,6 9.75,5.75 10,5.5 10.25,5.25 10.625,5.125 11,5 11.5,5 12,5 12.375,4.875 12.75,4.75 13,4.5 q 0.25,-0.25 0.5,-0.25 0.25,0 0.5,0.25 0.25,0.25 0.625,0.375 0.375,0.125 0.75,0 0.375,-0.125 0.5,-0.5 Q 16,4 16.125,3.625" id="path143"/>
			<path style="fill:#000" d="M 7,5.5 Q 7.25,5.25 7.625,5.125 8,5 8.5,5 H 9 8.625 8.25 8.5 Q 8.75,5 8.96875,4.96875 L 9.1875,4.9375 9.078125,4.953125 8.96875,4.96875 8.859375,5.359375 Q 8.75,5.75 8.5,6 L 8.25,6.25 8.4375,6.0625 8.625,5.875 8.5,6 Q 8.375,6.125 8.28125,6.28125 L 8.1875,6.4375 8.234375,6.359375 8.28125,6.28125 8.015625,6.015625 Q 7.75,5.75 7.5,6 7.25,6.25 7.125,6.625 7,7 7,7.5 q 0,0.5 0,1 0,0.5 0,1 0,0.5 0,1 0,0.5 0,1 0,0.5 0,1 0,0.5 0,1 0,0.5 0,1 0,0.5 0,1 0,0.5 0,1 Q 7,17 7.125,17.375 7.25,17.75 7.5,18 7.75,18.25 8.03125,17.96875 L 8.3125,17.6875 8.25,17.625 8.1875,17.5625 l 0.125,0.125 q 0.125,0.125 0.3125,0.1875 L 8.8125,17.9375 8.53125,17.84375 8.25,17.75 8.625,17.875 Q 9,18 9.5,18 q 0.5,0 1,0 0.5,0 1,0 0.5,0 1,0 0.5,0 1.0625,-0.0625 L 14.125,17.875 14.0625,17.8125 14,17.75 14.125,17.875 Q 14.25,18 14.5,18 H 14.75 14.375 14 14.5 q 0.5,0 1,0 0.5,0 1,0 0.5,0 0.875,-0.125 L 17.75,17.75 17.46875,17.84375 17.1875,17.9375 17.375,17.875 q 0.1875,-0.0625 0.3125,-0.1875 l 0.125,-0.125 -0.0625,0.0625 -0.0625,0.0625 0.28125,0.28125 Q 18.25,18.25 18.625,18.125 19,18 19.375,17.875 19.75,17.75 19.875,17.375 20,17 20,16.5 q 0,-0.5 0,-1 0,-0.5 0,-1 0,-0.5 0,-1 0,-0.5 0,-1 0,-0.5 0,-1 0,-0.5 0,-1 0,-0.5 0,-1 Q 20,9 20,8.5 20,8 20,7.5 20,7 19.875,6.625 19.75,6.25 19.375,6.125 L 19,6 V 5.5 5 5.375 5.75 5.5 Q 19,5.25 18.96875,5.03125 L 18.9375,4.8125 18.95313,4.921875 18.96876,5.03125 19.359385,5.140625 Q 19.75,5.25 20,5.5 20.25,5.75 20.5,6 20.75,6.25 20.875,6.625 21,7 21,7.5 q 0,0.5 0,1 0,0.5 0,1 0,0.5 0,1 0,0.5 0,1 0,0.5 0,1 0,0.5 0,1 0,0.5 0,1 0,0.5 0,1 0,0.5 0,1 0,0.5 -0.125,0.875 Q 20.75,17.75 20.5,18 20.25,18.25 20,18.5 19.75,18.75 19.375,18.875 19,19 18.5,19 q -0.5,0 -1,0 -0.5,0 -1,0 -0.5,0 -1,0 -0.5,0 -1,0 -0.5,0 -1,0 -0.5,0 -1,0 -0.5,0 -1,0 -0.5,0 -1,0 -0.5,0 -1,0 Q 9,19 8.5,19 8,19 7.625,18.875 7.25,18.75 7,18.5 6.75,18.25 6.5,18 6.25,17.75 6.125,17.375 6,17 6,16.5 6,16 6,15.5 6,15 6,14.5 6,14 6,13.5 6,13 6,12.5 6,12 6,11.5 6,11 6,10.5 6,10 6,9.5 6,9 6,8.5 6,8 6,7.5 6,7 6.125,6.625 6.25,6.25 6.5,6 6.75,5.75 7,5.5" id="path145"/>
			<path style="fill:#262626" d="M 7.125,6.625 Q 7.25,6.25 7.5,6 7.75,5.75 8.015625,6.015625 L 8.28125,6.28125 8.328125,6.203125 8.375,6.125 8.28125,6.28125 Q 8.1875,6.4375 8.125,6.625 L 8.0625,6.8125 8.15625,6.53125 8.25,6.25 8.125,6.625 Q 8,7 8,7.5 8,8 8,8.5 8,9 8.125,9.375 8.25,9.75 8.625,9.875 L 9,10 v 0.5 Q 9,11 9.125,11.375 9.25,11.75 9.5,12 q 0.25,0.25 0.5,0.5 0.25,0.25 0.5,0.5 0.25,0.25 0.375,0.625 L 11,14 10.625,14.125 Q 10.25,14.25 10,14.5 9.75,14.75 9.5,15 9.25,15.25 9,15.5 8.75,15.75 8.5,16 8.25,16.25 8.125,16.625 8,17 8.125,17.375 L 8.25,17.75 8.15625,17.46875 8.0625,17.1875 8.125,17.375 q 0.0625,0.1875 0.1875,0.3125 l 0.125,0.125 L 8.375,17.75 8.3125,17.6875 8.03125,17.96875 Q 7.75,18.25 7.5,18 7.25,17.75 7.125,17.375 7,17 7,16.5 7,16 7,15.5 7,15 7,14.5 7,14 7,13.5 7,13 7,12.5 7,12 7,11.5 7,11 7,10.5 7,10 7,9.5 7,9 7,8.5 7,8 7,7.5 7,7 7.125,6.625 M 9,10.375 V 10 9.875 9.75 10 q 0,0.25 0,0.5 v 0.25 -0.375" id="path147"/>
			<path style="fill:#743e1d" d="M 17.875,6.375 18,6 17.90625,6.28125 17.8125,6.5625 17.875,6.375 Q 17.9375,6.1875 17.96875,5.96875 L 18,5.75 17.984375,5.859375 17.96875,5.96875 h 0.5 0.5 L 18.984375,5.859375 19,5.75 18.96875,5.96875 Q 18.9375,6.1875 18.875,6.375 L 18.8125,6.5625 18.90625,6.28125 19,6 18.875,6.375 Q 18.75,6.75 18.5,7 18.25,7.25 18.125,7.625 L 18,8 18.09375,7.71875 18.1875,7.4375 18.125,7.625 Q 18.0625,7.8125 18.03125,8.03125 L 18,8.25 18.015625,8.140625 18.03125,8.03125 17.515625,8.015625 17,8 H 16.5 Q 16,8 15.5,8 15,8 14.5,8 14,8 13.5,8 H 13 L 13.125,7.625 Q 13.25,7.25 13.625,7.125 14,7 14.5,7 q 0.5,0 1,0 0.5,0 1,0 0.5,0 0.875,-0.125 0.375,-0.125 0.5,-0.5" id="path149"/>
			<path style="fill:#262626" d="M 18.875,6.375 19,6 19.375,6.125 q 0.375,0.125 0.5,0.5 Q 20,7 20,7.5 q 0,0.5 0,1 0,0.5 0,1 0,0.5 0,1 0,0.5 0,1 0,0.5 0,1 0,0.5 0,1 0,0.5 0,1 0,0.5 0,1 0,0.5 0,1 0,0.5 -0.125,0.875 -0.125,0.375 -0.5,0.5 Q 19,18 18.625,18.125 18.25,18.25 17.96875,17.96875 L 17.6875,17.6875 17.625,17.75 l -0.0625,0.0625 0.125,-0.125 q 0.125,-0.125 0.1875,-0.3125 L 17.9375,17.1875 17.84375,17.46875 17.75,17.75 17.875,17.375 Q 18,17 17.875,16.625 17.75,16.25 17.5,16 17.25,15.75 17,15.5 16.75,15.25 16.5,15 16.25,14.75 16.125,14.375 L 16,14 16.375,13.875 Q 16.75,13.75 17,13.5 17.25,13.25 17.5,13 17.75,12.75 17.875,12.375 L 18,12 17.875,11.625 17.75,11.25 17.84375,11.53125 17.9375,11.8125 17.875,11.625 Q 17.8125,11.4375 17.71875,11.28125 L 17.625,11.125 l 0.04687,0.07813 0.04687,0.07813 0.265625,-0.265625 Q 18.25,10.75 18.25,10.5 q 0,-0.25 -0.265625,-0.515625 L 17.71875,9.71875 17.671875,9.796875 17.625,9.875 17.71875,9.71875 Q 17.8125,9.5625 17.875,9.375 L 17.9375,9.1875 17.84375,9.46875 17.75,9.75 17.875,9.375 Q 18,9 18,8.5 18,8 18.125,7.625 18.25,7.25 18.5,7 18.75,6.75 18.875,6.375" id="path151"/>
			<path style="fill:#743e1d" d="M 8,8.5 V 8 L 8.375,8.125 Q 8.75,8.25 8.9375,8.6875 L 9.125,9.125 9.1875,9.0625 9.25,9 9.125,9.125 Q 9,9.25 9,9.5 V 9.75 9.375 9 9.5 10 L 8.625,9.875 Q 8.25,9.75 8.125,9.375 8,9 8,8.5 m 1,1.625 V 10 9.625 9.25 9.5 Q 9,9.75 9,10 v 0.25 -0.125 M 8,7.875 V 8 8.375 8.75 8.5 Q 8,8.25 8,8 V 7.75 7.875" id="path153"/>
			<path style="fill:#f6baa2" d="M 13,8.5 V 8 h 0.5 q 0.5,0 1,0 0.5,0 1,0 0.5,0 1,0 H 17 V 8.5 Q 17,9 16.875,9.375 16.75,9.75 17.03125,10 L 17.3125,10.25 17.34375,10.1875 17.375,10.125 17.3125,10.25 Q 17.25,10.375 17.25,10.5 V 10.625 10.4375 10.25 10.5 10.75 10.5625 10.375 10.5 q 0,0.125 0.0625,0.25 L 17.375,10.875 17.34375,10.8125 17.3125,10.75 17.03125,11 Q 16.75,11.25 16.75,11.5 q 0,0.25 0.265625,0.515625 l 0.265625,0.265625 0.07813,-0.04687 0.07813,-0.04687 -0.15625,0.09375 Q 17.125,12.375 17,12.5 L 16.875,12.625 17.0625,12.4375 17.25,12.25 17,12.5 q -0.25,0.25 -0.5,0.5 -0.25,0.25 -0.375,0.625 L 16,14 h -0.5 q -0.5,0 -1,0 -0.5,0 -1.046875,0.04687 l -0.546875,0.04687 0.04687,-0.546875 Q 13,13 12.625,12.875 12.25,12.75 12.25,12.5 q 0,-0.25 -0.265625,-0.546875 L 11.71875,11.65625 11.671875,11.703125 11.625,11.75 11.71875,11.65625 Q 11.8125,11.5625 11.875,11.375 L 11.9375,11.1875 11.84375,11.46875 11.75,11.75 11.875,11.375 Q 12,11 12.125,10.625 12.25,10.25 12.5,10 12.75,9.75 12.875,9.375 13,9 13,8.5 m 1.25,2 q 0,0.25 0.25,0.25 0.25,0 0.25,-0.25 0,-0.25 -0.25,-0.25 -0.25,0 -0.25,0.25" id="path155"/>
			<path style="fill:#cc9582" d="M 17,8.5 V 8 L 17.515625,8.015625 18.03125,8.03125 18.046875,7.921875 18.0625,7.8125 18.03125,8.03125 Q 18,8.25 18,8.5 V 8.75 8.375 8 8.5 Q 18,9 17.875,9.375 17.75,9.75 17.5,10 L 17.25,10.25 17.4375,10.0625 17.625,9.875 17.5,10 q -0.125,0.125 -0.1875,0.25 L 17.25,10.375 17.28125,10.3125 17.3125,10.25 17.03125,10 Q 16.75,9.75 16.875,9.375 17,9 17,8.5" id="path157"/>
			<path style="fill:#f6baa2" d="M 9,9.5 Q 9,9 9.5,9 10,9 10.375,9.125 10.75,9.25 10.875,9.625 11,10 11,10.5 V 11 H 10.5 Q 10,11 10,10.5 10,10 9.5,10 H 9 V 9.5 M 9,9.625 V 10 10.125 10.25 10 Q 9,9.75 9,9.5 V 9.25 9.625" id="path159"/>
			<path style="fill:#743e1d" d="M 12,9.5 Q 12.25,9.25 12.609375,9.109375 L 12.96875,8.96875 12.984375,8.859375 13,8.75 12.96875,8.96875 Q 12.9375,9.1875 12.875,9.375 L 12.8125,9.5625 12.90625,9.28125 13,9 12.875,9.375 Q 12.75,9.75 12.5,10 12.25,10.25 12.125,10.625 12,11 11.875,11.375 11.75,11.75 11.5,11.75 q -0.25,0 -0.375,-0.375 L 11,11 V 10.5 10 10.375 10.75 10.5 q 0,-0.25 -0.03125,-0.46875 L 10.9375,9.8125 10.95313,9.921875 10.96876,10.03125 11.359385,9.890625 Q 11.75,9.75 12,9.5" id="path161"/>
			<path style="fill:#cc9582" d="M 9,10.5 V 10 H 9.5 Q 10,10 10,10.5 10,11 10.5,11 H 11 l 0.125,0.375 Q 11.25,11.75 11.5,11.75 H 11.75 11.5625 11.375 11.5 q 0.125,0 0.21875,-0.09375 l 0.09375,-0.09375 -0.04687,0.04687 -0.04687,0.04687 0.265625,0.296875 Q 12.25,12.25 12.25,12.5 q 0,0.25 0.375,0.375 Q 13,13 12.953125,13.546875 l -0.04687,0.546875 0.07813,0.04687 0.07813,0.04687 -0.15625,-0.09375 Q 12.75,14 12.5,14 H 12.25 12.625 13 12.5 12 L 11.875,13.625 Q 11.75,13.25 11.5,13 11.25,12.75 11,12.5 10.75,12.25 10.5,12 10.25,11.75 10,12 L 9.75,12.25 9.5,12 Q 9.25,11.75 9.125,11.375 9,11 9,10.5 M 9.5625,12.0625 9.75,12.25 9.8125,12.3125 9.875,12.375 9.75,12.25 Q 9.625,12.125 9.5,12 L 9.375,11.875 9.5625,12.0625 M 9,9.875 V 10 10.375 10.75 10.5 Q 9,10.25 9,10 V 9.75 9.875" id="path163"/>
			<path style="fill:#333241" d="m 14.25,10.5 q 0,-0.25 0.25,-0.25 0.25,0 0.25,0.25 0,0.25 -0.25,0.25 -0.25,0 -0.25,-0.25" id="path165"/>
			<path style="fill:#333241" d="m 17.25,10.5 q 0,-0.25 0.25,-0.5 L 17.75,9.75 17.5625,9.9375 17.375,10.125 17.5,10 Q 17.625,9.875 17.71875,9.71875 L 17.8125,9.5625 17.765625,9.640625 17.71875,9.71875 17.984375,9.984375 Q 18.25,10.25 18.25,10.5 q 0,0.25 -0.265625,0.515625 l -0.265625,0.265625 0.04687,0.07813 0.04687,0.07813 -0.09375,-0.15625 Q 17.625,11.125 17.5,11 L 17.375,10.875 17.5625,11.0625 17.75,11.25 17.5,11 q -0.25,-0.25 -0.25,-0.5" id="path167"/>
			<path style="fill:#cc9582" d="m 16.75,11.5 q 0,-0.25 0.28125,-0.5 L 17.3125,10.75 17.28125,10.6875 17.25,10.625 17.3125,10.75 Q 17.375,10.875 17.5,11 L 17.625,11.125 17.4375,10.9375 17.25,10.75 17.5,11 q 0.25,0.25 0.375,0.625 L 18,12 17.625,12.125 17.25,12.25 17.53125,12.15625 17.8125,12.0625 17.625,12.125 q -0.1875,0.0625 -0.34375,0.15625 L 17.125,12.375 17.20313,12.32813 17.28126,12.28126 17.015635,12.015635 Q 16.75,11.75 16.75,11.5" id="path169"/>
			<path style="fill:#ac7261" d="M 10,12.5 9.75,12.25 10,12 q 0.25,-0.25 0.5,0 0.25,0.25 0.5,0.5 0.25,0.25 0.5,0.5 0.25,0.25 0.375,0.625 L 12,14 H 11.5 11 L 10.875,13.625 Q 10.75,13.25 10.5,13 10.25,12.75 10,12.5 M 9.6875,12.1875 9.75,12.25 9.9375,12.4375 10.125,12.625 10,12.5 Q 9.875,12.375 9.75,12.25 l -0.125,-0.125 0.0625,0.0625" id="path171"/>
			<path style="fill:#ac7261" d="m 17,12.5 q 0.25,-0.25 0.625,-0.375 L 18,12 17.875,12.375 Q 17.75,12.75 17.5,13 17.25,13.25 17,13.5 16.75,13.75 16.375,13.875 L 16,14 16.125,13.625 Q 16.25,13.25 16.5,13 16.75,12.75 17,12.5" id="path173"/>
			<path style="fill:#344495" d="m 10,14.5 q 0.25,-0.25 0.625,-0.375 L 11,14 10.875,14.375 Q 10.75,14.75 10.5,15 10.25,15.25 10,15.5 9.75,15.75 9.5,16 9.25,16.25 9.125,16.625 9,17 9.015625,17.484375 L 9.03125,17.96875 9.140625,17.984375 9.25,18 9.03125,17.96875 Q 8.8125,17.9375 8.625,17.875 L 8.4375,17.8125 8.71875,17.90625 9,18 8.625,17.875 Q 8.25,17.75 8.125,17.375 8,17 8.125,16.625 8.25,16.25 8.5,16 8.75,15.75 9,15.5 9.25,15.25 9.5,15 9.75,14.75 10,14.5" id="path175"/>
			<path style="fill:#5588d4" d="M 10.875,14.375 11,14 h 0.5 0.5 l 0.125,0.375 Q 12.25,14.75 12.5,15 12.75,15.25 12.875,15.625 13,16 13,16.5 q 0,0.5 0,1 V 18 H 12.5 12 V 17.5 Q 12,17 11.875,16.625 11.75,16.25 11.5,16.25 q -0.25,0 -0.375,0.375 Q 11,17 11,17.5 V 18 h -0.5 q -0.5,0 -1,0 H 9 9.375 9.75 9.5 Q 9.25,18 9.03125,17.96875 L 8.8125,17.9375 8.921875,17.953125 9.03125,17.96875 9.015625,17.484375 Q 9,17 9.125,16.625 9.25,16.25 9.5,16 9.75,15.75 10,15.5 10.25,15.25 10.5,15 10.75,14.75 10.875,14.375 M 10.625,18 H 11 11.125 11.25 11 q -0.25,0 -0.5,0 h -0.25 0.375 m 1.25,0 H 12 12.375 12.75 12.5 q -0.25,0 -0.5,0 h -0.25 0.125 m 0.75,0 H 13 13.125 13.25 13 q -0.25,0 -0.5,0 h -0.25 0.375 m -0.5,-4 H 12 11.625 11.25 11.5 q 0.25,0 0.5,0 h 0.25 -0.125" id="path177"/>
			<path style="fill:#1a1c51" d="M 12.125,14.375 12,14 h 0.5 Q 13,14 13.125,14.375 13.25,14.75 13.5,15 13.75,15.25 13.875,15.625 14,16 14,16.5 q 0,0.5 0,1 V 18 17.625 17.25 17.5 q 0,0.25 0.125,0.375 L 14.25,18 14.1875,17.9375 14.125,17.875 13.5625,17.9375 13,18 V 17.5 Q 13,17 13,16.5 13,16 12.875,15.625 12.75,15.25 12.5,15 12.25,14.75 12.125,14.375 M 12.875,18 H 13 13.375 13.75 13.5 q -0.25,0 -0.5,0 h -0.25 0.125 m -0.5,-4 H 12 11.875 11.75 12 q 0.25,0 0.5,0 h 0.25 -0.375" id="path179"/>
			<path style="fill:#b5b5b5" d="M 13.125,14.375 13,14 13.09375,14.28125 13.1875,14.5625 13.125,14.375 Q 13.0625,14.1875 12.90625,14.09375 L 12.75,14 l 0.07813,0.04687 0.07813,0.04687 0.546875,-0.04687 L 14,14 14.125,14.375 Q 14.25,14.75 14.5,15 14.75,15.25 14.875,15.625 15,16 15,16.5 q 0,0.5 0,1 V 18 H 14.5 Q 14,18 14,17.5 14,17 14,16.5 14,16 13.875,15.625 13.75,15.25 13.5,15 13.25,14.75 13.125,14.375 M 14.625,18 H 15 15.125 15.25 15 q -0.25,0 -0.5,0 h -0.25 0.375 m -0.5,-4 H 14 13.625 13.25 13.5 q 0.25,0 0.5,0 h 0.25 -0.125" id="path181"/>
			<path style="fill:#808080" d="M 14.125,14.375 14,14 h 0.5 0.5 l 0.125,0.375 Q 15.25,14.75 15.5,15 15.75,15.25 15.875,15.625 16,16 16,16.5 q 0,0.5 0,1 V 18 H 15.5 15 V 17.5 Q 15,17 15,16.5 15,16 14.875,15.625 14.75,15.25 14.5,15 14.25,14.75 14.125,14.375 M 14.875,18 H 15 15.375 15.75 15.5 q -0.25,0 -0.5,0 h -0.25 0.125 m 0.75,0 H 16 16.125 16.25 16 q -0.25,0 -0.5,0 h -0.25 0.375 m -0.5,-4 H 15 14.625 14.25 14.5 q 0.25,0 0.5,0 h 0.25 -0.125 m -0.75,0 H 14 13.875 13.75 14 q 0.25,0 0.5,0 h 0.25 -0.375" id="path183"/>
			<path style="fill:#1a1c51" d="M 15.125,14.375 15,14 h 0.5 0.5 l 0.125,0.375 Q 16.25,14.75 16.5,15 q 0.25,0.25 0.5,0.5 0.25,0.25 0.5,0.5 0.25,0.25 0.375,0.625 0.125,0.375 0,0.75 -0.125,0.375 -0.5,0.5 L 17,18 17.28125,17.90625 17.5625,17.8125 17.375,17.875 q -0.1875,0.0625 -0.40625,0.09375 L 16.75,18 16.859375,17.98437 16.96875,17.96874 16.98438,17.484365 Q 17,17 16.875,16.625 16.75,16.25 16.359375,16.140625 L 15.96875,16.03125 15.984375,16.140625 16,16.25 15.96875,16.03125 Q 15.9375,15.8125 15.875,15.625 L 15.8125,15.4375 15.90625,15.71875 16,16 15.875,15.625 Q 15.75,15.25 15.5,15 15.25,14.75 15.125,14.375 M 15.375,14 H 15 14.875 14.75 15 q 0.25,0 0.5,0 h 0.25 -0.375" id="path185"/>
			<path style="fill:#344495" d="M 11.125,16.625 Q 11.25,16.25 11.5,16.25 q 0.25,0 0.375,0.375 L 12,17 11.90625,16.71875 11.8125,16.4375 11.875,16.625 q 0.0625,0.1875 0.09375,0.40625 L 12,17.25 11.984375,17.140625 11.96875,17.03125 H 11.5 11.03125 L 11.015625,17.140625 11,17.25 11.03125,17.03125 Q 11.0625,16.8125 11.125,16.625 L 11.1875,16.4375 11.09375,16.71875 11,17 11.125,16.625" id="path187"/>
			<path style="fill:#344495" d="M 16,16.5 V 16 16.375 16.75 16.5 q 0,-0.25 -0.03125,-0.46875 l -0.03125,-0.21875 0.01563,0.109375 0.01563,0.109375 0.390625,0.109375 Q 16.75,16.25 16.875,16.625 17,17 16.984375,17.484375 l -0.01563,0.484375 0.109375,-0.01563 0.109375,-0.01563 -0.21875,0.03125 Q 16.75,18 16.5,18 H 16.25 16.625 17 16.5 16 v -0.5 q 0,-0.5 0,-1 M 15.875,18 H 16 16.375 16.75 16.5 q -0.25,0 -0.5,0 h -0.25 0.125" id="path189"/>
			<path style="fill:#1a1c51" d="M 11,17.5 V 17 17.375 17.75 17.5 q 0,-0.25 0.03125,-0.46875 L 11.0625,16.8125 11.04687,16.921875 11.03124,17.03125 H 11.5 11.96875 L 11.953125,16.921875 11.9375,16.8125 11.96875,17.03125 Q 12,17.25 12,17.5 V 17.75 17.375 17 17.5 18 H 11.5 11 V 17.5 M 10.875,18 H 11 11.375 11.75 11.5 q -0.25,0 -0.5,0 h -0.25 0.125 m 0.75,0 H 12 12.125 12.25 12 q -0.25,0 -0.5,0 h -0.25 0.375" id="path191"/>
		</g>
		<g transform="translate(11.98335,137.00613)" id="g127">
			<path style="fill:#d78205" d="M 11,4.5 Q 11.25,4.25 11.625,4.125 12,4 12.5,4 H 13 L 12.875,4.375 Q 12.75,4.75 12.375,4.875 12,5 11.625,5.125 11.25,5.25 11,5.5 10.75,5.75 10.5,6 10.25,6.25 10.125,6.625 10,7 10,7.5 10,8 10,8.5 V 9 H 9.5 9 V 8.5 Q 9,8 9,7.5 9,7 9.125,6.625 9.25,6.25 9.5,6 9.75,5.75 9.859375,5.359375 L 9.96875,4.96875 9.859375,4.984375 9.75,5 9.96875,4.96875 Q 10.1875,4.9375 10.375,4.875 L 10.5625,4.8125 10.28125,4.90625 10,5 10.375,4.875 Q 10.75,4.75 11,4.5 M 9,8.625 V 9 9.125 9.25 9 Q 9,8.75 9,8.5 V 8.25 8.625 m 1,0.5 V 9 8.625 8.25 8.5 Q 10,8.75 10,9 V 9.25 9.125 M 13.125,4 H 13 12.625 12.25 12.5 q 0.25,0 0.5,0 h 0.25 -0.125" id="path53"/>
			<path style="fill:#febc23" d="M 12.875,4.375 13,4 h 0.5 q 0.5,0 1,0 H 15 L 14.875,4.375 Q 14.75,4.75 14.5,5 q -0.25,0.25 -0.25,0.5 0,0.25 0.25,0.5 0.25,0.25 0.390625,0.609375 L 15.03125,6.96875 15.140625,6.984375 15.25,7 15.03125,6.96875 Q 14.8125,6.9375 14.625,6.875 L 14.4375,6.8125 14.71875,6.90625 15,7 14.625,6.875 Q 14.25,6.75 14,6.5 13.75,6.25 13.375,6.125 13,6 12.625,6.125 12.25,6.25 12.25,6.5 q 0,0.25 0.375,0.375 L 13,7 V 7.5 8 l 0.125,0.375 Q 13.25,8.75 13.5,8.75 q 0.25,0 0.375,-0.375 L 14,8 13.90625,8.28125 13.8125,8.5625 13.875,8.375 Q 13.9375,8.1875 13.9375,8 V 7.8125 7.90625 8 h 0.53125 Q 15,8 15.375,7.875 15.75,7.75 15.875,7.375 L 16,7 h 0.5 0.5 l 0.125,0.375 q 0.125,0.375 0.5,0.5 L 18,8 V 8.5 9 8.625 8.25 8.5 q 0,0.25 0.125,0.375 L 18.25,9 18.1875,8.9375 18.125,8.875 17.6875,9.0625 Q 17.25,9.25 17,9.5 16.75,9.75 16.5,10 q -0.25,0.25 -0.25,0.5 0,0.25 0.25,0.25 0.25,0 0.5,-0.25 0.25,-0.25 0.5,-0.25 0.25,0 0.375,0.375 0.125,0.375 0,0.75 -0.125,0.375 -0.5,0.5 Q 17,12 16.5,12 16,12 15.5,12 H 15 L 14.875,11.625 Q 14.75,11.25 14.375,11.125 14,11 13.625,11.125 13.25,11.25 13.25,11.5 q 0,0.25 0.375,0.375 L 14,12 13.71875,11.90625 13.4375,11.8125 13.625,11.875 q 0.1875,0.0625 0.40625,0.09375 L 14.25,12 14.140625,11.984375 14.03125,11.96875 13.890625,12.359375 Q 13.75,12.75 13.375,12.875 L 13,13 12.875,12.625 Q 12.75,12.25 12.5,12 12.25,11.75 12,11.5 11.75,11.25 11.5,11 q -0.25,-0.25 -0.25,-0.5 0,-0.25 0.25,-0.5 0.25,-0.25 0.25,-0.5 0,-0.25 -0.25,-0.25 -0.25,0 -0.5,0.25 -0.25,0.25 -0.609375,0.359375 L 10.03125,9.96875 10.046875,10.078125 10.0625,10.1875 10.03125,9.96875 Q 10,9.75 10,9.5 V 9.25 9.625 10 9.5 Q 10,9 10,8.5 10,8 10,7.5 10,7 10.125,6.625 10.25,6.25 10.5,6 10.75,5.75 11,5.5 11.25,5.25 11.625,5.125 12,5 12.375,4.875 q 0.375,-0.125 0.5,-0.5 m 5.125,4 V 8 7.875 7.75 8 q 0,0.25 0,0.5 V 8.75 8.375 M 16.375,7 H 16 15.875 15.75 16 q 0.25,0 0.5,0 h 0.25 -0.375 M 15.125,4 H 15 14.625 14.25 14.5 q 0.25,0 0.5,0 h 0.25 -0.125 m -1.75,0 H 13 12.875 12.75 13 q 0.25,0 0.5,0 h 0.25 -0.375" id="path55"/>
			<path style="fill:#ffdc3c" d="M 14.875,4.375 15,4 H 15.5 16 15.625 15.25 15.5 q 0.25,0 0.46875,0.03125 L 16.1875,4.0625 16.078125,4.046875 15.96875,4.03125 16.109375,4.390625 Q 16.25,4.75 16.5,5 16.75,5.25 16.875,5.625 17,6 17,6.5 V 7 H 16.5 Q 16,7 15.5,7 H 15 15.375 15.75 15.5 Q 15.25,7 15.03125,6.96875 L 14.8125,6.9375 14.921875,6.953125 15.03125,6.96875 14.890625,6.609375 Q 14.75,6.25 14.5,6 14.25,5.75 14.25,5.5 14.25,5.25 14.5,5 14.75,4.75 14.875,4.375 M 15.375,4 H 15 14.875 14.75 15 q 0.25,0 0.5,0 h 0.25 -0.375" id="path57"/>
			<path style="fill:#febc23" d="M 16.109375,4.390625 15.96875,4.03125 15.859375,4.015625 15.75,4 15.96875,4.03125 Q 16.1875,4.0625 16.375,4.125 L 16.5625,4.1875 16.28125,4.09375 16,4 16.375,4.125 Q 16.75,4.25 17,4.5 17.25,4.75 17.625,4.875 18,5 18,5.5 V 6 L 17.484375,6.015625 16.96875,6.03125 16.984375,6.140625 17,6.25 16.96875,6.03125 Q 16.9375,5.8125 16.875,5.625 L 16.8125,5.4375 16.90625,5.71875 17,6 16.875,5.625 Q 16.75,5.25 16.5,5 16.25,4.75 16.109375,4.390625 M 18,6.125 V 6 5.625 5.25 5.5 Q 18,5.75 18,6 V 6.25 6.125" id="path59"/>
			<path style="fill:#000" d="M 7,5.5 Q 7.25,5.25 7.625,5.125 8,5 8.5,5 9,5 9.5,5 H 10 9.625 9.25 9.5 Q 9.75,5 9.96875,4.96875 L 10.1875,4.9375 10.078125,4.953125 9.96875,4.96875 9.859375,5.359375 Q 9.75,5.75 9.5,6 L 9.25,6.25 9.4375,6.0625 9.625,5.875 9.5,6 Q 9.375,6.125 9.28125,6.28125 L 9.1875,6.4375 9.234375,6.359375 9.28125,6.28125 9.015625,6.015625 Q 8.75,5.75 8.375,5.875 8,6 7.625,6.125 7.25,6.25 7.125,6.625 7,7 7,7.5 q 0,0.5 0,1 0,0.5 0,1 0,0.5 0,1 0,0.5 0,1 0,0.5 0,1 0,0.5 0,1 0,0.5 0,1 Q 7,15 6.875,15.375 6.75,15.75 7.015625,16.015625 L 7.28125,16.28125 7.328125,16.203125 7.375,16.125 7.28125,16.28125 Q 7.1875,16.4375 7.125,16.625 L 7.0625,16.8125 7.15625,16.53125 7.25,16.25 7.125,16.625 Q 7,17 7.125,17.375 7.25,17.75 7.625,17.875 8,18 8.5,18 q 0.5,0 1,0 0.5,0 1,0 0.5,0 1,0 H 12 L 12.375,17.875 12.75,17.75 12.46875,17.84375 12.1875,17.9375 12.375,17.875 q 0.1875,-0.0625 0.34375,-0.15625 L 12.875,17.625 l -0.07813,0.04687 -0.07813,0.04687 0.265625,0.265625 Q 13.25,18.25 13.5,18.25 q 0.25,0 0.515625,-0.265625 L 14.28125,17.71875 14.203125,17.671875 14.125,17.625 14.28125,17.71875 Q 14.4375,17.8125 14.625,17.875 L 14.8125,17.9375 14.53125,17.84375 14.25,17.75 14.625,17.875 Q 15,18 15.5,18 H 16 16.5 17 L 17.375,17.875 17.75,17.75 17.46875,17.84375 17.1875,17.9375 17.375,17.875 q 0.1875,-0.0625 0.34375,-0.15625 L 17.875,17.625 l -0.07813,0.04687 -0.07813,0.04687 0.265625,0.265625 Q 18.25,18.25 18.625,18.125 L 19,18 19.375,17.875 q 0.375,-0.125 0.5,-0.5 Q 20,17 20,16.5 q 0,-0.5 0,-1 0,-0.5 0,-1 0,-0.5 0,-1 0,-0.5 0.125,-0.875 0.125,-0.375 -0.140625,-0.640625 L 19.71875,11.71875 19.671875,11.796875 19.625,11.875 19.71875,11.71875 Q 19.8125,11.5625 19.875,11.375 L 19.9375,11.1875 19.84375,11.46875 19.75,11.75 19.875,11.375 Q 20,11 20,10.5 20,10 19.875,9.625 L 19.75,9.25 19.84375,9.53125 19.9375,9.8125 19.875,9.625 Q 19.8125,9.4375 19.6875,9.3125 L 19.5625,9.1875 19.625,9.25 19.6875,9.3125 19.96875,9.03125 Q 20.25,8.75 20.125,8.375 20,8 20,7.5 20,7 19.875,6.625 19.75,6.25 19.375,6.125 19,6 18.5,6 H 18 V 5.5 5 5.375 5.75 5.5 Q 18,5.25 17.90625,5.09375 L 17.8125,4.9375 17.859375,5.015625 17.90625,5.09375 18.453125,5.046875 Q 19,5 19.375,5.125 19.75,5.25 20,5.5 20.25,5.75 20.5,6 20.75,6.25 20.875,6.625 21,7 21,7.5 q 0,0.5 0,1 0,0.5 0,1 0,0.5 0,1 0,0.5 0,1 0,0.5 0,1 0,0.5 0,1 0,0.5 0,1 0,0.5 0,1 0,0.5 0,1 0,0.5 -0.125,0.875 Q 20.75,17.75 20.5,18 20.25,18.25 20,18.5 19.75,18.75 19.375,18.875 19,19 18.5,19 q -0.5,0 -1,0 -0.5,0 -1,0 -0.5,0 -1,0 -0.5,0 -1,0 -0.5,0 -1,0 -0.5,0 -1,0 -0.5,0 -1,0 -0.5,0 -1,0 -0.5,0 -1,0 Q 9,19 8.5,19 8,19 7.625,18.875 7.25,18.75 7,18.5 6.75,18.25 6.5,18 6.25,17.75 6.125,17.375 6,17 6,16.5 6,16 6,15.5 6,15 6,14.5 6,14 6,13.5 6,13 6,12.5 6,12 6,11.5 6,11 6,10.5 6,10 6,9.5 6,9 6,8.5 6,8 6,7.5 6,7 6.125,6.625 6.25,6.25 6.5,6 6.75,5.75 7,5.5" id="path61"/>
			<path style="fill:#262626" d="M 7.125,6.625 Q 7.25,6.25 7.625,6.125 8,6 8.375,5.875 8.75,5.75 9.015625,6.015625 L 9.28125,6.28125 9.328125,6.203125 9.375,6.125 9.28125,6.28125 Q 9.1875,6.4375 9.125,6.625 L 9.0625,6.8125 9.15625,6.53125 9.25,6.25 9.125,6.625 Q 9,7 9,7.5 9,8 9,8.5 9,9 9,9.5 9,10 9.125,10.375 9.25,10.75 9.5,11 q 0.25,0.25 0.5,0.5 0.25,0.25 0.5,0.5 0.25,0.25 0.375,0.625 L 11,13 10.625,13.125 Q 10.25,13.25 10,13.5 9.75,13.75 9.5,14 9.25,14.25 9,14.5 8.75,14.75 8.5,15 8.25,15.25 8,15.5 7.75,15.75 7.5,16 L 7.25,16.25 7.4375,16.0625 7.625,15.875 7.5,16 Q 7.375,16.125 7.28125,16.28125 L 7.1875,16.4375 7.234375,16.359375 7.28125,16.28125 7.015625,16.015625 Q 6.75,15.75 6.875,15.375 7,15 7,14.5 7,14 7,13.5 7,13 7,12.5 7,12 7,11.5 7,11 7,10.5 7,10 7,9.5 7,9 7,8.5 7,8 7,7.5 7,7 7.125,6.625 M 10.71875,13.09375 11,13 11.09375,12.96875 11.1875,12.9375 11,13 q -0.1875,0.0625 -0.375,0.125 l -0.1875,0.0625 0.28125,-0.09375" id="path63"/>
			<path style="fill:#a55a05" d="m 12.25,6.5 q 0,-0.25 0.375,-0.375 L 13,6 12.71875,6.09375 12.4375,6.1875 12.625,6.125 Q 12.8125,6.0625 13,6.0625 H 13.1875 13.09375 13 V 6.53125 7 L 12.625,6.875 Q 12.25,6.75 12.25,6.5" id="path65"/>
			<path style="fill:#d78205" d="M 13,6.53125 V 6.0625 H 12.90625 12.8125 13 q 0.1875,0 0.375,0.0625 L 13.5625,6.1875 13.28125,6.09375 13,6 13.375,6.125 Q 13.75,6.25 14,6.5 14.25,6.75 14.625,6.875 15,7 15.5,7 H 16 L 15.875,7.375 Q 15.75,7.75 15.375,7.875 15,8 14.46875,8 H 13.9375 V 8.09375 8.1875 8 q 0,-0.1875 -0.0625,-0.375 L 13.8125,7.4375 13.90625,7.71875 14,8 13.875,7.625 Q 13.75,7.25 13.375,7.125 L 13,7 V 6.53125 M 16.125,7 H 16 15.625 15.25 15.5 q 0.25,0 0.5,0 h 0.25 -0.125" id="path67"/>
			<path style="fill:#a55a05" d="M 17,6.5 V 6 6.375 6.75 6.5 Q 17,6.25 16.96875,6.03125 L 16.9375,5.8125 16.953125,5.921875 16.96875,6.03125 17.484375,6.015625 18,6 V 6.5 7 H 17.5 17 V 6.5 m 1,0.625 V 7 6.625 6.25 6.5 Q 18,6.75 18,7 V 7.25 7.125 m 0,-0.75 V 6 5.875 5.75 6 q 0,0.25 0,0.5 V 6.75 6.375" id="path69"/>
			<path style="fill:#262626" d="M 18,6.5 V 6 h 0.5 q 0.5,0 0.875,0.125 0.375,0.125 0.5,0.5 Q 20,7 20,7.5 20,8 20.125,8.375 20.25,8.75 19.96875,9.03125 L 19.6875,9.3125 19.75,9.375 19.8125,9.4375 19.6875,9.3125 Q 19.5625,9.1875 19.375,9.125 L 19.1875,9.0625 19.46875,9.15625 19.75,9.25 19.375,9.125 Q 19,9 18.5,9 18,9 18,8.5 18,8 18,7.5 18,7 18,6.5" id="path71"/>
			<path style="fill:#343442" d="M 13,7.5 V 7 l 0.375,0.125 q 0.375,0.125 0.5,0.5 L 14,8 H 13.5 13 V 7.5" id="path73"/>
			<path style="fill:#d78205" d="M 17.125,7.375 17,7 H 17.5 18 V 7.5 8 L 17.625,7.875 Q 17.25,7.75 17.125,7.375 M 18,8.125 V 8 7.625 7.25 7.5 Q 18,7.75 18,8 V 8.25 8.125 m 0,-0.75 V 7 6.875 6.75 7 q 0,0.25 0,0.5 V 7.75 7.375" id="path75"/>
			<path style="fill:#1c1c1c" d="M 13.125,8.375 13,8 H 13.5 14 L 13.875,8.375 Q 13.75,8.75 13.5,8.75 q -0.25,0 -0.375,-0.375" id="path77"/>
			<path style="fill:#a55a05" d="M 9,9.5 V 9 H 9.5 10 v 0.5 q 0,0.5 0.125,0.875 0.125,0.375 0.375,0.625 0.25,0.25 0.5,0.5 0.25,0.25 0.5,0.5 0.25,0.25 0.25,0.5 0,0.25 -0.375,0.375 L 11,13 10.875,12.625 Q 10.75,12.25 10.5,12 10.25,11.75 10,11.5 9.75,11.25 9.5,11 9.25,10.75 9.125,10.375 9,10 9,9.5 M 10.90625,13.03125 11,13 11.28125,12.90625 11.5625,12.8125 11.375,12.875 Q 11.1875,12.9375 11,13 l -0.1875,0.0625 0.09375,-0.03125 M 10,9.375 V 9 8.875 8.75 9 q 0,0.25 0,0.5 V 9.75 9.375 M 9,8.875 V 9 9.375 9.75 9.5 Q 9,9.25 9,9 V 8.75 8.875" id="path79"/>
			<path style="fill:#d78205" d="m 11,9.5 q 0.25,-0.25 0.5,-0.25 0.25,0 0.25,0.25 0,0.25 -0.25,0.5 -0.25,0.25 -0.25,0.5 0,0.25 0.25,0.5 0.25,0.25 0.5,0.5 0.25,0.25 0.5,0.5 0.25,0.25 0.375,0.625 L 13,13 12.625,13.125 q -0.375,0.125 -0.515625,0.515625 l -0.140625,0.390625 0.109375,0.01563 0.109375,0.01563 -0.21875,-0.03125 Q 11.75,14 11.5,14 H 11.25 11.625 12 11.5 Q 11,14 10.625,14.125 10.25,14.25 10,14.5 9.75,14.75 9.5,15 9.25,15.25 9,15.5 8.75,15.75 8.5,16 8.25,16.25 8.125,16.625 8,17 8.015625,17.484375 L 8.03125,17.96875 8.140625,17.984375 8.25,18 8.03125,17.96875 Q 7.8125,17.9375 7.625,17.875 L 7.4375,17.8125 7.71875,17.90625 8,18 7.625,17.875 Q 7.25,17.75 7.125,17.375 7,17 7.125,16.625 7.25,16.25 7.5,16 7.75,15.75 8,15.5 8.25,15.25 8.5,15 8.75,14.75 9,14.5 9.25,14.25 9.5,14 9.75,13.75 10,13.5 10.25,13.25 10.625,13.125 11,13 11.375,12.875 11.75,12.75 11.75,12.5 11.75,12.25 11.5,12 11.25,11.75 11,11.5 10.75,11.25 10.5,11 10.25,10.75 10.125,10.375 L 10,10 10.09375,10.28125 10.1875,10.5625 10.125,10.375 Q 10.0625,10.1875 10.03125,9.96875 L 10,9.75 10.015625,9.859375 10.03125,9.96875 10.390625,9.859375 Q 10.75,9.75 11,9.5" id="path81"/>
			<path style="fill:#d78205" d="M 17,9.5 Q 17.25,9.25 17.6875,9.0625 L 18.125,8.875 18.0625,8.8125 18,8.75 18.125,8.875 Q 18.25,9 18.5,9 H 18.75 18.375 18 18.5 19 18.625 18.25 18.5 q 0.25,0 0.46875,0.03125 L 19.1875,9.0625 19.078125,9.046875 18.96875,9.03125 18.984375,9.515625 Q 19,10 19,10.5 19,11 18.875,11.375 18.75,11.75 18.5,12 18.25,12.25 18.109375,12.609375 L 17.96875,12.96875 18.078125,12.953125 18.1875,12.9375 17.96875,12.96875 Q 17.75,13 17.5,13 H 17.25 17.625 18 17.5 17 16.5 16 l -0.375,-0.125 q -0.375,-0.125 -0.5,-0.5 L 15,12 h 0.5 q 0.5,0 1,0 0.5,0 0.875,-0.125 0.375,-0.125 0.5,-0.5 Q 18,11 17.875,10.625 17.75,10.25 17.5,10.25 q -0.25,0 -0.5,0.25 -0.25,0.25 -0.5,0.25 -0.25,0 -0.25,-0.25 0,-0.25 0.25,-0.5 0.25,-0.25 0.5,-0.5" id="path83"/>
			<path style="fill:#484c5f" d="M 18.984375,9.515625 18.96875,9.03125 18.859375,9.015625 18.75,9 18.96875,9.03125 Q 19.1875,9.0625 19.375,9.125 L 19.5625,9.1875 19.28125,9.09375 19,9 19.375,9.125 q 0.375,0.125 0.5,0.5 L 20,10 19.90625,9.71875 19.8125,9.4375 19.875,9.625 q 0.0625,0.1875 0.09375,0.40625 L 20,10.25 19.984375,10.140625 19.96875,10.03125 19.484375,10.015625 19,10 18.984375,9.515625 M 19,9.625 V 10 10.125 10.25 10 Q 19,9.75 19,9.5 V 9.25 9.625" id="path85"/>
			<path style="fill:#a55a05" d="M 19,10.5 V 10 l 0.484375,0.01563 0.484375,0.01563 L 19.953125,9.921875 19.9375,9.8125 19.96875,10.03125 Q 20,10.25 20,10.5 V 10.75 10.375 10 10.5 Q 20,11 19.875,11.375 19.75,11.75 19.5,12 19.25,12.25 19,12.5 18.75,12.75 18.375,12.875 L 18,13 18.28125,12.90625 18.5625,12.8125 18.375,12.875 q -0.1875,0.0625 -0.40625,0.09375 L 17.75,13 17.859375,12.98437 17.96875,12.96874 18.109375,12.609365 Q 18.25,12.25 18.5,12 18.75,11.75 18.875,11.375 19,11 19,10.5 M 19,9.875 V 10 10.375 10.75 10.5 Q 19,10.25 19,10 V 9.75 9.875" id="path87"/>
			<path style="fill:#a55a05" d="m 13.25,11.5 q 0,-0.25 0.375,-0.375 0.375,-0.125 0.75,0 0.375,0.125 0.5,0.5 L 15,12 H 14.5 Q 14,12 13.625,11.875 13.25,11.75 13.25,11.5" id="path89"/>
			<path style="fill:#979797" d="M 13.890625,12.359375 14.03125,11.96875 13.921875,11.953125 13.8125,11.9375 14.03125,11.96875 Q 14.25,12 14.5,12 H 14.75 14.375 14 14.5 15 l 0.125,0.375 0.125,0.375 -0.09375,-0.28125 -0.09375,-0.28125 0.0625,0.1875 q 0.0625,0.1875 0.1875,0.3125 l 0.125,0.125 L 15.375,12.75 15.3125,12.6875 15.03125,13 14.75,13.3125 14.8125,13.34375 14.875,13.375 14.75,13.3125 Q 14.625,13.25 14.5,13.25 H 14.375 14.5625 14.75 14.5 q -0.25,0 -0.375,0.375 L 14,14 14.09375,13.71875 14.1875,13.4375 14.125,13.625 Q 14.0625,13.8125 14.0625,14 V 14.1875 14.09375 14 L 13.65625,13.875 Q 13.25,13.75 13.125,13.375 L 13,13 13.375,12.875 q 0.375,-0.125 0.515625,-0.515625" id="path91"/>
			<path style="fill:#262626" d="M 19,12.5 Q 19.25,12.25 19.5,12 L 19.75,11.75 19.5625,11.9375 19.375,12.125 19.5,12 q 0.125,-0.125 0.21875,-0.28125 l 0.09375,-0.15625 -0.04687,0.07813 -0.04687,0.07813 0.265625,0.265625 Q 20.25,12.25 20.125,12.625 20,13 20,13.5 q 0,0.5 0,1 0,0.5 0,1 0,0.5 0,1 0,0.5 -0.125,0.875 -0.125,0.375 -0.5,0.5 L 19,18 V 17.5 Q 19,17 19.125,16.625 19.25,16.25 18.984375,15.953125 L 18.71875,15.65625 18.671875,15.703125 18.625,15.75 18.71875,15.65625 Q 18.8125,15.5625 18.875,15.375 L 18.9375,15.1875 18.84375,15.46875 18.75,15.75 18.875,15.375 Q 19,15 18.625,15.125 L 18.25,15.25 18.53125,15.15625 18.8125,15.0625 18.625,15.125 q -0.1875,0.0625 -0.28125,0.15625 L 18.25,15.375 18.29687,15.32813 18.34374,15.28126 18.046865,15.015635 Q 17.75,14.75 17.5,14.75 q -0.25,0 -0.375,-0.375 L 17,14 V 13.5 13 h 0.5 Q 18,13 18.375,12.875 18.75,12.75 19,12.5" id="path93"/>
			<path style="fill:#555" d="M 12.109375,13.640625 Q 12.25,13.25 12.625,13.125 L 13,13 l 0.125,0.375 q 0.125,0.375 0.53125,0.5 L 14.0625,14 V 13.90625 13.8125 14 q 0,0.1875 0.0625,0.375 L 14.1875,14.5625 14.09375,14.28125 14,14 l 0.125,0.375 q 0.125,0.375 0.5,0.5 0.375,0.125 0.75,0 L 15.75,14.75 15.46875,14.84375 15.1875,14.9375 15.375,14.875 q 0.1875,-0.0625 0.3125,-0.1875 l 0.125,-0.125 -0.0625,0.0625 -0.0625,0.0625 0.28125,0.28125 Q 16.25,15.25 16.5,15.25 q 0.25,0 0.5,0.25 0.25,0.25 0.5,0.5 0.25,0.25 0.25,0.5 0,0.25 -0.375,0.375 Q 17,17 17,17.5 V 18 H 16.5 16 V 17.5 Q 16,17 15.5,17 15,17 14.625,16.875 14.25,16.75 14,17.03125 L 13.75,17.3125 13.8125,17.34375 13.875,17.375 13.75,17.3125 Q 13.625,17.25 13.5,17.25 H 13.375 13.5625 13.75 13.5 13.25 13.4375 13.625 13.5 q -0.125,0 -0.25,0.0625 L 13.125,17.375 13.1875,17.34375 13.25,17.3125 12.96875,17 12.6875,16.6875 12.625,16.75 l -0.0625,0.0625 0.125,-0.125 q 0.125,-0.125 0.1875,-0.3125 L 12.9375,16.1875 12.84375,16.46875 12.75,16.75 12.875,16.375 Q 13,16 13,15.5 13,15 12.875,14.625 12.75,14.25 12.375,14.125 L 12,14 12.28125,14.09375 12.5625,14.1875 12.375,14.125 Q 12.1875,14.0625 11.96875,14.03125 L 11.75,14 l 0.109375,0.01563 0.109375,0.01563 0.140625,-0.390625" id="path95"/>
			<path style="fill:#e6e6e6" d="M 14.125,13.625 Q 14.25,13.25 14.5,13.25 q 0.25,0 0.5,0.25 0.25,0.25 0.625,0.375 0.375,0.125 0.25,0.5 -0.125,0.375 -0.5,0.5 -0.375,0.125 -0.75,0 -0.375,-0.125 -0.5,-0.5 -0.125,-0.375 0,-0.75" id="path97"/>
			<path style="fill:#6f6f6f" d="M 15,13.5 14.75,13.25 14.9375,13.4375 15.125,13.625 15,13.5 Q 14.875,13.375 14.75,13.3125 L 14.625,13.25 14.6875,13.28125 14.75,13.3125 15.03125,13 15.3125,12.6875 15.25,12.625 l -0.0625,-0.0625 0.125,0.125 q 0.125,0.125 0.3125,0.1875 L 15.8125,12.9375 15.53125,12.84375 15.25,12.75 15.625,12.875 16,13 15.95313,13.546875 15.90626,14.09375 15.95313,14.17188 16,14.25 15.90625,14.09375 Q 15.8125,13.9375 15.625,13.875 L 15.4375,13.8125 15.71875,13.90625 16,14 15.625,13.875 Q 15.25,13.75 15,13.5" id="path99"/>
			<path style="fill:#505050" d="M 15.953125,13.546875 16,13 h 0.5 0.5 v 0.5 0.5 l -0.546875,0.04687 -0.546875,0.04687 0.04687,-0.546875" id="path101"/>
			<path style="fill:#febc23" d="M 10,14.5 Q 10.25,14.25 10.625,14.125 11,14 11.5,14 q 0.5,0 0.875,0.125 0.375,0.125 0.5,0.5 L 13,15 12.90625,14.71875 12.8125,14.4375 12.875,14.625 q 0.0625,0.1875 0.09375,0.40625 L 13,15.25 12.984375,15.140625 12.96875,15.03125 12.609375,15.140625 Q 12.25,15.25 12.140625,15.640625 L 12.03125,16.03125 12.140625,16.015625 12.25,16 12.03125,16.03125 Q 11.8125,16.0625 11.625,16.125 L 11.4375,16.1875 11.71875,16.09375 12,16 11.625,16.125 Q 11.25,16.25 11,16.5 10.75,16.75 10.5,17 10.25,17.25 10.125,17.625 L 10,18 H 9.5 Q 9,18 8.5,18 H 8 8.375 8.75 8.5 Q 8.25,18 8.03125,17.96875 L 7.8125,17.9375 7.921875,17.953125 8.03125,17.96875 8.015625,17.484375 Q 8,17 8.125,16.625 8.25,16.25 8.5,16 8.75,15.75 9,15.5 9.25,15.25 9.5,15 9.75,14.75 10,14.5 M 9.625,18 H 10 10.125 10.25 10 Q 9.75,18 9.5,18 H 9.25 9.625" id="path103"/>
			<path style="fill:#383838" d="M 15.875,14.375 16,14 v 0.375 0.375 -0.25 q 0,-0.25 -0.09375,-0.40625 l -0.09375,-0.15625 0.04687,0.07813 0.04687,0.07813 0.546875,-0.04687 L 17,14 17.125,14.375 17.25,14.75 17.15625,14.46875 17.0625,14.1875 17.125,14.375 q 0.0625,0.1875 0.15625,0.28125 L 17.375,14.75 17.328125,14.703125 17.28125,14.65625 17.015625,14.984375 16.75,15.3125 16.8125,15.34375 16.875,15.375 16.75,15.3125 Q 16.625,15.25 16.5,15.25 H 16.375 16.5625 16.75 16.5 q -0.25,0 -0.53125,-0.28125 L 15.6875,14.6875 15.625,14.75 l -0.0625,0.0625 0.125,-0.125 q 0.125,-0.125 0.1875,-0.3125 L 15.9375,14.1875 15.84375,14.46875 15.75,14.75 15.875,14.375" id="path105"/>
			<path style="fill:#d78205" d="M 12.140625,15.640625 Q 12.25,15.25 12.609375,15.140625 L 12.96875,15.03125 12.953125,14.921875 12.9375,14.8125 12.96875,15.03125 Q 13,15.25 13,15.5 V 15.75 15.375 15 15.5 16 15.625 15.25 15.5 q 0,0.25 -0.03125,0.46875 L 12.9375,16.1875 12.95313,16.078125 12.96876,15.96875 12.484385,15.98438 12,16 h 0.375 0.375 -0.25 q -0.25,0 -0.46875,0.03125 l -0.21875,0.03125 0.109375,-0.01563 0.109375,-0.01563 0.109375,-0.390625" id="path107"/>
			<path style="fill:#151515" d="M 17,15.5 16.75,15.25 16.9375,15.4375 17.125,15.625 17,15.5 q -0.125,-0.125 -0.25,-0.1875 l -0.125,-0.0625 0.0625,0.03125 0.0625,0.03125 0.265625,-0.328125 0.265625,-0.328125 -0.04687,-0.04687 -0.04687,-0.04687 0.09375,0.09375 Q 17.375,14.75 17.5,14.75 H 17.625 17.4375 17.25 17.5 q 0.25,0 0.546875,0.265625 l 0.296875,0.265625 0.04687,-0.04687 0.04687,-0.04687 -0.09375,0.09375 Q 18.25,15.375 18.25,15.5 V 15.625 15.4375 15.25 15.5 q 0,0.25 0.25,0.25 H 18.75 18.5625 18.375 18.5 q 0.125,0 0.21875,-0.09375 l 0.09375,-0.09375 -0.04687,0.04687 -0.04687,0.04687 0.265625,0.296875 Q 19.25,16.25 19.125,16.625 19,17 19,17.5 V 18 l -0.375,0.125 Q 18.25,18.25 17.984375,17.984375 l -0.265625,-0.265625 -0.07813,0.04687 -0.07813,0.04687 0.15625,-0.09375 Q 17.875,17.625 18,17.5 L 18.125,17.375 17.9375,17.5625 17.75,17.75 18,17.5 q 0.25,-0.25 -0.04687,-0.515625 l -0.296875,-0.265625 -0.04687,0.04687 -0.04687,0.04687 0.09375,-0.09375 Q 17.75,16.625 17.75,16.5 V 16.375 16.5625 16.75 16.5 Q 17.75,16.25 17.5,16 17.25,15.75 17,15.5" id="path109"/>
			<path style="fill:#505050" d="m 18.25,15.5 q 0,-0.25 0.375,-0.375 Q 19,15 18.875,15.375 18.75,15.75 18.5,15.75 q -0.25,0 -0.25,-0.25" id="path111"/>
			<path style="fill:#a55a05" d="M 11,16.5 Q 11.25,16.25 11.625,16.125 12,16 12.484375,15.984375 L 12.96875,15.96875 12.984375,15.859375 13,15.75 12.96875,15.96875 Q 12.9375,16.1875 12.875,16.375 L 12.8125,16.5625 12.90625,16.28125 13,16 12.875,16.375 q -0.125,0.375 -0.5,0.5 L 12,17 11.625,17.125 q -0.375,0.125 -0.5,0.5 L 11,18 H 10.5 10 l 0.125,-0.375 Q 10.25,17.25 10.5,17 10.75,16.75 11,16.5 M 9.875,18 H 10 10.375 10.75 10.5 Q 10.25,18 10,18 H 9.75 9.875 m 0.75,0 H 11 11.125 11.25 11 q -0.25,0 -0.5,0 h -0.25 0.375" id="path113"/>
			<path style="fill:#505050" d="m 11.125,17.625 q 0.125,-0.375 0.5,-0.5 L 12,17 V 17.5 18 H 11.5 11 l 0.125,-0.375 M 10.875,18 H 11 11.375 11.75 11.5 q -0.25,0 -0.5,0 h -0.25 0.125" id="path115"/>
			<path style="fill:#383838" d="M 12,17.5 V 17 L 12.375,16.875 12.75,16.75 12.46875,16.84375 12.1875,16.9375 12.375,16.875 q 0.1875,-0.0625 0.3125,-0.1875 l 0.125,-0.125 L 12.75,16.625 12.6875,16.6875 12.96875,17 13.25,17.3125 13.3125,17.28125 13.375,17.25 13.25,17.3125 Q 13.125,17.375 13,17.5 L 12.875,17.625 13.0625,17.4375 13.25,17.25 13,17.5 q -0.25,0.25 -0.625,0.375 L 12,18 v -0.5" id="path117"/>
			<path style="fill:#151515" d="m 13,17.5 q 0.25,-0.25 0.5,-0.25 0.25,0 0.5,0.25 L 14.25,17.75 14.0625,17.5625 13.875,17.375 14,17.5 q 0.125,0.125 0.28125,0.21875 l 0.15625,0.09375 -0.07813,-0.04687 -0.07813,-0.04687 -0.265625,0.265625 Q 13.75,18.25 13.5,18.25 q -0.25,0 -0.515625,-0.265625 l -0.265625,-0.265625 -0.07813,0.04687 -0.07813,0.04687 0.15625,-0.09375 Q 12.875,17.625 13,17.5 L 13.125,17.375 12.9375,17.5625 12.75,17.75 13,17.5" id="path119"/>
			<path style="fill:#383838" d="M 14,17.5 13.75,17.25 13.9375,17.4375 14.125,17.625 14,17.5 Q 13.875,17.375 13.75,17.3125 L 13.625,17.25 13.6875,17.28125 13.75,17.3125 14,17.03125 Q 14.25,16.75 14.625,16.875 15,17 15.5,17 16,17 16,17.5 V 18 H 15.5 Q 15,18 14.625,17.875 14.25,17.75 14,17.5" id="path121"/>
			<path style="fill:#383838" d="M 17,17.5 Q 17,17 17.375,16.875 L 17.75,16.75 17.46875,16.84375 17.1875,16.9375 17.375,16.875 q 0.1875,-0.0625 0.28125,-0.15625 L 17.75,16.625 l -0.04687,0.04687 -0.04687,0.04687 0.296875,0.265625 Q 18.25,17.25 18,17.5 17.75,17.75 17.375,17.875 L 17,18 v -0.5" id="path123"/>
		</g>
		<g transform="translate(26.262979,137.25818)" id="g2962">
			<path style="fill:#cd5061" d="M 8,3.5 V 3 h 0.5 q 0.5,0 1,0 0.5,0 1,0 0.5,0 1,0 0.5,0 1,0 H 13 l 0.125,0.375 q 0.125,0.375 0.5,0.5 Q 14,4 14.5,4 15,4 15.375,4.125 15.75,4.25 16,4.5 16.25,4.75 16.625,4.875 L 17,5 16.71875,4.90625 16.4375,4.8125 16.625,4.875 q 0.1875,0.0625 0.40625,0.09375 L 17.25,5 17.140625,4.984375 17.03125,4.96875 17.140625,5.359375 Q 17.25,5.75 17.5,6 17.75,6.25 17.875,6.625 18,7 18,7.5 V 8 L 17.625,8.125 Q 17.25,8.25 17.125,8.625 17,9 17,9.5 V 10 h -0.5 q -0.5,0 -0.875,0.125 -0.375,0.125 -0.5,0.5 Q 15,11 15,11.5 V 12 h -0.5 q -0.5,0 -1,0 -0.5,0 -1,0 -0.5,0 -1,0 H 11 L 10.875,11.625 Q 10.75,11.25 10.5,11 10.25,10.75 10.125,10.375 10,10 10,9.5 10,9 9.875,8.625 9.75,8.25 9.5,8 9.25,7.75 9.125,7.375 9,7 8.875,6.625 8.75,6.25 8.375,6.125 L 8,6 V 5.5 Q 8,5 8,4.5 8,4 8,3.5 M 8,5.625 V 6 6.125 6.25 6 Q 8,5.75 8,5.5 V 5.25 5.625 m 5.625,4.25 Q 14,10 14.375,9.875 14.75,9.75 14.875,9.375 15,9 14.875,8.625 14.75,8.25 14.375,8.125 14,8 13.625,8.125 q -0.375,0.125 -0.5,0.5 -0.125,0.375 0,0.75 0.125,0.375 0.5,0.5 m 1,2.125 H 15 15.125 15.25 15 q -0.25,0 -0.5,0 h -0.25 0.375 M 15.5,7 Q 16,7 16.375,6.875 16.75,6.75 16.75,6.5 16.75,6.25 16.5,6 16.25,5.75 16,5.5 15.75,5.25 15.375,5.125 15,5 14.5,5 14,5 13.625,4.875 13.25,4.75 13,4.5 12.75,4.25 12.375,4.125 12,4 11.625,4.125 11.25,4.25 11,4.5 10.75,4.75 10.5,4.75 10.25,4.75 10,4.5 9.75,4.25 9.5,4.25 9.25,4.25 9.25,4.5 9.25,4.75 9.5,5 9.75,5.25 10,5.5 10.25,5.75 10.5,6 10.75,6.25 11,6.5 11.25,6.75 11.625,6.875 12,7 12.5,7 q 0.5,0 1,0 0.5,0 1,0 0.5,0 1,0 M 18,8.125 V 8 7.625 7.25 7.5 Q 18,7.75 18,8 V 8.25 8.125 M 13.125,3 H 13 12.625 12.25 12.5 q 0.25,0 0.5,0 h 0.25 -0.125 M 8.375,3 H 8 7.875 7.75 8 Q 8.25,3 8.5,3 H 8.75 8.375" id="path2900"/>
			<path style="fill:#f0608b" d="m 9.25,4.5 q 0,-0.25 0.25,-0.25 0.25,0 0.5,0.25 0.25,0.25 0.5,0.25 0.25,0 0.5,-0.25 Q 11.25,4.25 11.625,4.125 12,4 12.375,4.125 12.75,4.25 13,4.5 13.25,4.75 13.625,4.875 14,5 14.5,5 15,5 15.375,5.125 15.75,5.25 16,5.5 q 0.25,0.25 0.5,0.5 0.25,0.25 0.25,0.5 0,0.25 -0.375,0.375 Q 16,7 15.5,7 15,7 14.5,7 14,7 13.5,7 13,7 12.5,7 12,7 11.625,6.875 11.25,6.75 11,6.5 10.75,6.25 10.5,6 10.25,5.75 10,5.5 9.75,5.25 9.5,5 9.25,4.75 9.25,4.5 m 2,1 q 0,0.25 0.25,0.25 0.25,0 0.25,-0.25 0,-0.25 -0.25,-0.25 -0.25,0 -0.25,0.25" id="path2902"/>
			<path style="fill:#000" d="M 7,5.5 Q 7.25,5.25 7.625,5.125 L 8,5 V 5.5 6 L 7.625,6.125 Q 7.25,6.25 7.125,6.625 7,7 7,7.5 q 0,0.5 0,1 0,0.5 0,1 0,0.5 0,1 0,0.5 0,1 0,0.5 0,1 0,0.5 0,1 0,0.5 0,1 0,0.5 0,1 Q 7,16 6.875,16.375 6.75,16.75 7.03125,17 L 7.3125,17.25 7.34375,17.1875 7.375,17.125 7.3125,17.25 Q 7.25,17.375 7.25,17.5 V 17.625 17.4375 17.25 17.5 q 0,0.25 0.375,0.375 Q 8,18 8.5,18 q 0.5,0 1,0 0.5,0 1,0 0.5,0 1,0 0.5,0 1,0 0.5,0 1,0 0.5,0 1,0 0.5,0 1,0 0.5,0 1,0 0.5,0 1,0 0.5,0 0.875,-0.125 L 18.75,17.75 18.46875,17.84375 18.1875,17.9375 18.375,17.875 q 0.1875,-0.0625 0.28125,-0.15625 L 18.75,17.625 l -0.04687,0.04687 -0.04687,0.04687 0.296875,0.265625 Q 19.25,18.25 19.5,18 19.75,17.75 19.875,17.375 20,17 20,16.5 q 0,-0.5 0,-1 0,-0.5 0,-1 0,-0.5 0,-1 0,-0.5 0,-1 0,-0.5 0,-1 0,-0.5 0,-1 0,-0.5 0,-1 Q 20,9 20,8.5 20,8 20,7.5 20,7 19.875,6.625 19.75,6.25 19.375,6.125 19,6 18.625,5.875 18.25,5.75 17.984375,6.015625 L 17.71875,6.28125 17.765625,6.359375 17.8125,6.4375 17.71875,6.28125 Q 17.625,6.125 17.5,6 L 17.375,5.875 17.5625,6.0625 17.75,6.25 17.5,6 Q 17.25,5.75 17.140625,5.359375 L 17.03125,4.96875 16.921875,4.953125 16.8125,4.9375 17.03125,4.96875 Q 17.25,5 17.5,5 H 17.75 17.375 17 17.5 Q 18,5 18.5,5 19,5 19.375,5.125 19.75,5.25 20,5.5 20.25,5.75 20.5,6 20.75,6.25 20.875,6.625 21,7 21,7.5 q 0,0.5 0,1 0,0.5 0,1 0,0.5 0,1 0,0.5 0,1 0,0.5 0,1 0,0.5 0,1 0,0.5 0,1 0,0.5 0,1 0,0.5 0,1 0,0.5 -0.125,0.875 Q 20.75,17.75 20.5,18 20.25,18.25 20,18.5 19.75,18.75 19.375,18.875 19,19 18.5,19 q -0.5,0 -1,0 -0.5,0 -1,0 -0.5,0 -1,0 -0.5,0 -1,0 -0.5,0 -1,0 -0.5,0 -1,0 -0.5,0 -1,0 -0.5,0 -1,0 -0.5,0 -1,0 Q 9,19 8.5,19 8,19 7.625,18.875 7.25,18.75 7,18.5 6.75,18.25 6.5,18 6.25,17.75 6.125,17.375 6,17 6,16.5 6,16 6,15.5 6,15 6,14.5 6,14 6,13.5 6,13 6,12.5 6,12 6,11.5 6,11 6,10.5 6,10 6,9.5 6,9 6,8.5 6,8 6,7.5 6,7 6.125,6.625 6.25,6.25 6.5,6 6.75,5.75 7,5.5 M 8,5.375 V 5 4.875 4.75 5 Q 8,5.25 8,5.5 V 5.75 5.375" id="path2904"/>
			<path style="fill:#cd5061" d="m 11.25,5.5 q 0,-0.25 0.25,-0.25 0.25,0 0.25,0.25 0,0.25 -0.25,0.25 -0.25,0 -0.25,-0.25" id="path2906"/>
			<path style="fill:#262626" d="M 7.125,6.625 Q 7.25,6.25 7.625,6.125 L 8,6 V 6.5 Q 8,7 8.125,7.375 8.25,7.75 8.5,8 8.75,8.25 8.875,8.625 9,9 9,9.5 9,10 9.125,10.375 9.25,10.75 9.5,11 q 0.25,0.25 0.5,0.5 0.25,0.25 0.625,0.375 L 11,12 v 0.5 0.5 l -0.375,0.125 Q 10.25,13.25 10,13.5 9.75,13.75 9.5,14 9.25,14.25 9,14.5 8.75,14.75 8.5,15 8.25,15.25 8.125,15.625 8,16 7.875,16.375 7.75,16.75 7.5,17 L 7.25,17.25 7.4375,17.0625 7.625,16.875 7.5,17 Q 7.375,17.125 7.3125,17.25 L 7.25,17.375 7.28125,17.3125 7.3125,17.25 7.03125,17 Q 6.75,16.75 6.875,16.375 7,16 7,15.5 7,15 7,14.5 7,14 7,13.5 7,13 7,12.5 7,12 7,11.5 7,11 7,10.5 7,10 7,9.5 7,9 7,8.5 7,8 7,7.5 7,7 7.125,6.625" id="path2908"/>
			<path style="fill:#95484c" d="M 8,6.5 V 6 L 8.375,6.125 Q 8.75,6.25 8.875,6.625 9,7 9.125,7.375 9.25,7.75 9.5,8 9.75,8.25 9.875,8.625 10,9 10,9.5 10,10 10.125,10.375 10.25,10.75 10.5,11 q 0.25,0.25 0.375,0.625 L 11,12 10.625,11.875 Q 10.25,11.75 10,11.5 9.75,11.25 9.5,11 9.25,10.75 9.125,10.375 9,10 9,9.5 9,9 8.875,8.625 8.75,8.25 8.5,8 8.25,7.75 8.125,7.375 8,7 8,6.5 M 8,5.875 V 6 6.375 6.75 6.5 Q 8,6.25 8,6 V 5.75 5.875" id="path2910"/>
			<path style="fill:#262626" d="M 17.875,6.625 17.75,6.25 17.84375,6.53125 17.9375,6.8125 17.875,6.625 Q 17.8125,6.4375 17.71875,6.28125 L 17.625,6.125 17.671875,6.203125 17.71875,6.28125 17.984375,6.015625 Q 18.25,5.75 18.625,5.875 19,6 19.375,6.125 19.75,6.25 19.875,6.625 20,7 20,7.5 q 0,0.5 0,1 0,0.5 0,1 0,0.5 0,1 0,0.5 0,1 0,0.5 0,1 0,0.5 0,1 0,0.5 0,1 0,0.5 0,1 0,0.5 0,1 0,0.5 -0.125,0.875 Q 19.75,17.75 19.5,18 19.25,18.25 18.953125,17.98437 l -0.296875,-0.265625 -0.04687,0.04687 -0.04687,0.04687 0.09375,-0.09375 Q 18.75,17.625 18.75,17.5 V 17.375 17.5625 17.75 17.5 Q 18.75,17.25 18.5,17 18.25,16.75 18.125,16.375 18,16 17.875,15.625 17.75,15.25 17.359375,15.140625 L 16.96875,15.03125 16.984375,15.140625 17,15.25 16.96875,15.03125 Q 16.9375,14.8125 16.875,14.625 L 16.8125,14.4375 16.90625,14.71875 17,15 16.875,14.625 Q 16.75,14.25 16.5,14 16.25,13.75 16.109375,13.359375 L 15.96875,12.96875 15.859375,12.984375 15.75,13 15.96875,12.96875 Q 16.1875,12.9375 16.375,12.875 L 16.5625,12.8125 16.28125,12.90625 16,13 16.375,12.875 Q 16.75,12.75 16.859375,12.359375 L 16.96875,11.96875 16.859375,11.984375 16.75,12 16.96875,11.96875 Q 17.1875,11.9375 17.375,11.875 L 17.5625,11.8125 17.28125,11.90625 17,12 17.375,11.875 q 0.375,-0.125 0.5,-0.5 L 18,11 v 0.375 0.375 -0.25 q 0,-0.25 -0.09375,-0.40625 l -0.09375,-0.15625 0.04687,0.07813 0.04687,0.07813 0.04687,-0.546875 Q 18,10 18,9.5 18,9 18,8.5 18,8 18,7.5 18,7 17.875,6.625" id="path2912"/>
			<path style="fill:#311f1b" d="m 13.125,8.625 q 0.125,-0.375 0.5,-0.5 L 14,8 13.71875,8.09375 13.4375,8.1875 13.625,8.125 Q 13.8125,8.0625 14,8.0625 H 14.1875 14.09375 14 l 0.125,0.34375 Q 14.25,8.75 14.59375,8.875 L 14.9375,9 V 8.90625 8.8125 9 q 0,0.1875 -0.0625,0.375 L 14.8125,9.5625 14.90625,9.28125 15,9 14.875,9.375 Q 14.75,9.75 14.375,9.875 14,10 13.625,9.875 13.25,9.75 13.125,9.375 13,9 13.125,8.625" id="path2914"/>
			<path style="fill:#6a3836" d="M 14.125,8.40625 14,8.0625 H 13.90625 13.8125 14 q 0.1875,0 0.375,0.0625 L 14.5625,8.1875 14.28125,8.09375 14,8 14.375,8.125 q 0.375,0.125 0.5,0.5 L 15,9 14.90625,8.71875 14.8125,8.4375 14.875,8.625 Q 14.9375,8.8125 14.9375,9 V 9.1875 9.09375 9 L 14.59375,8.875 Q 14.25,8.75 14.125,8.40625" id="path2916"/>
			<path style="fill:#6a3836" d="m 17.125,8.625 q 0.125,-0.375 0.5,-0.5 L 18,8 V 8.5 9 L 17.515625,9.015625 17.03125,9.03125 17.015625,9.140625 17,9.25 17.03125,9.03125 Q 17.0625,8.8125 17.125,8.625 L 17.1875,8.4375 17.09375,8.71875 17,9 17.125,8.625 M 18,9.125 V 9 8.625 8.25 8.5 Q 18,8.75 18,9 V 9.25 9.125 m 0,-0.75 V 8 7.875 7.75 8 q 0,0.25 0,0.5 V 8.75 8.375" id="path2918"/>
			<path style="fill:#311f1b" d="M 17,9.5 V 9 9.375 9.75 9.5 Q 17,9.25 17.03125,9.03125 L 17.0625,8.8125 17.046875,8.921875 17.03125,9.03125 17.515625,9.015625 18,9 V 9.5 10 H 17.5 17 V 9.5 m 1,0.625 V 10 9.625 9.25 9.5 q 0,0.25 0,0.5 v 0.25 -0.125 m 0,-0.75 V 9 8.875 8.75 9 q 0,0.25 0,0.5 V 9.75 9.375" id="path2920"/>
			<path style="fill:#c1a24e" d="m 15.125,10.625 q 0.125,-0.375 0.5,-0.5 L 16,10 15.71875,10.09375 15.4375,10.1875 15.625,10.125 q 0.1875,-0.0625 0.40625,-0.09375 L 16.25,10 l -0.109375,0.01563 -0.109375,0.01563 -0.140625,0.359375 q -0.140625,0.359375 -0.5,0.5 L 15.03125,11.03125 15.015625,11.140625 15,11.25 15.03125,11.03125 Q 15.0625,10.8125 15.125,10.625 L 15.1875,10.4375 15.09375,10.71875 15,11 15.125,10.625" id="path2922"/>
			<path style="fill:#eacf60" d="M 15.890625,10.390625 16.03125,10.03125 15.921875,10.046875 15.8125,10.0625 16.03125,10.03125 Q 16.25,10 16.5,10 H 16.75 16.375 16 16.5 17 l 0.125,0.375 q 0.125,0.375 0.5,0.5 0.375,0.125 0.25,0.5 -0.125,0.375 -0.5,0.5 Q 17,12 16.5,12 16,12 15.5,12 H 15 V 11.5 11 11.375 11.75 11.5 q 0,-0.25 0.03125,-0.46875 l 0.03125,-0.21875 -0.01563,0.109375 -0.01563,0.109375 0.359375,-0.140625 q 0.359375,-0.140625 0.5,-0.5 M 14.875,12 H 15 15.375 15.75 15.5 q -0.25,0 -0.5,0 h -0.25 0.125" id="path2924"/>
			<path style="fill:#95484c" d="M 17.125,10.375 17,10 h 0.5 0.5 l -0.04687,0.546875 -0.04687,0.546875 0.04687,0.07813 L 18,11.25 17.90625,11.09375 Q 17.8125,10.9375 17.625,10.875 L 17.4375,10.8125 17.71875,10.90625 18,11 17.625,10.875 q -0.375,-0.125 -0.5,-0.5 m 0.875,0 V 10 9.875 9.75 10 q 0,0.25 0,0.5 v 0.25 -0.375" id="path2926"/>
			<path style="fill:#6a3836" d="M 11,12.5 V 12 h 0.5 q 0.5,0 1,0 0.5,0 1,0 0.5,0 1,0 0.5,0 1,0 0.5,0 1,0 H 17 16.625 16.25 16.5 q 0.25,0 0.46875,-0.03125 l 0.21875,-0.03125 -0.109375,0.01563 -0.109375,0.01563 -0.109375,0.390625 Q 16.75,12.75 16.375,12.875 16,13 15.5,13 15,13 14.5,13 H 14 13.5 q -0.5,0 -1,0 H 12 11.5 11 v -0.5" id="path2928"/>
			<path style="fill:#95484c" d="m 10,13.5 q 0.25,-0.25 0.625,-0.375 L 11,13 v 0.53125 0.53125 H 11.09375 11.1875 11 q -0.1875,0 -0.375,0.0625 L 10.4375,14.1875 10.71875,14.09375 11,14 10.625,14.125 Q 10.25,14.25 10,14.5 9.75,14.75 9.5,15 9.25,15.25 9.125,15.625 9,16 8.875,16.375 8.75,16.75 8.5,17 8.25,17.25 8.140625,17.609375 L 8.03125,17.96875 8.140625,17.984375 8.25,18 8.03125,17.96875 Q 7.8125,17.9375 7.625,17.875 L 7.4375,17.8125 7.71875,17.90625 8,18 7.625,17.875 Q 7.25,17.75 7.25,17.5 7.25,17.25 7.5,17 7.75,16.75 7.875,16.375 8,16 8.125,15.625 8.25,15.25 8.5,15 8.75,14.75 9,14.5 9.25,14.25 9.5,14 9.75,13.75 10,13.5" id="path2930"/>
			<path style="fill:#9c7f54" d="M 11,13.53125 V 13 h 0.5 0.5 l 0.125,0.375 q 0.125,0.375 0.5,0.5 Q 13,14 13,14.5 13,15 12.875,15.375 12.75,15.75 13.03125,16.03125 L 13.3125,16.3125 13.34375,16.28125 13.375,16.25 13.3125,16.3125 Q 13.25,16.375 13.25,16.5 V 16.625 16.4375 16.25 16.5 16.75 16.5625 16.375 16.5 q 0,0.125 0.09375,0.21875 l 0.09375,0.09375 -0.04687,-0.04687 -0.04687,-0.04687 -0.328125,0.296875 -0.328125,0.296875 0.0625,0.0625 0.0625,0.0625 -0.125,-0.125 Q 12.5625,17.1875 12.375,17.125 L 12.1875,17.0625 12.46875,17.15625 12.75,17.25 12.375,17.125 12,17 v -0.5 q 0,-0.5 0,-1 0,-0.5 -0.125,-0.875 -0.125,-0.375 -0.5,-0.5 L 11,14 11.28125,14.09375 11.5625,14.1875 11.375,14.125 Q 11.1875,14.0625 11,14.0625 H 10.8125 10.90625 11 V 13.53125 M 12,16.625 V 17 17.125 17.25 17 q 0,-0.25 0,-0.5 v -0.25 0.375" id="path2932"/>
			<path style="fill:#bda67a" d="M 12.125,13.375 12,13 h 0.5 q 0.5,0 1,0 H 14 v 0.5 Q 14,14 14.5,14 15,14 15,14.5 15,15 15.5,15 H 16 V 15.5 16 15.625 15.25 15.5 q 0,0.25 -0.03125,0.46875 l -0.03125,0.21875 0.01563,-0.109375 0.01563,-0.109375 -0.359375,0.140625 q -0.359375,0.140625 -0.5,0.5 L 14.96875,16.96875 15.078125,16.953125 15.1875,16.9375 14.96875,16.96875 Q 14.75,17 14.5,17 H 14.25 14.625 15 14.5 14 14.375 14.75 14.5 q -0.25,0 -0.46875,-0.03125 l -0.21875,-0.03125 0.109375,0.01563 0.109375,0.01563 -0.140625,-0.359375 Q 13.75,16.25 13.5,16.25 H 13.25 13.4375 13.625 13.5 q -0.125,0 -0.1875,0.0625 L 13.25,16.375 13.28125,16.34375 13.3125,16.3125 13.03125,16.03125 Q 12.75,15.75 12.875,15.375 13,15 13,14.5 13,14 12.625,13.875 q -0.375,-0.125 -0.5,-0.5" id="path2934"/>
			<path style="fill:#9c7f54" d="M 14,13.5 V 13 h 0.5 q 0.5,0 1,0 H 16 15.625 15.25 15.5 q 0.25,0 0.46875,-0.03125 l 0.21875,-0.03125 -0.109375,0.01563 -0.109375,0.01563 0.140625,0.390625 Q 16.25,13.75 16.5,14 q 0.25,0.25 0.375,0.625 L 17,15 H 16.5 16 15.5 Q 15,15 15,14.5 15,14 14.5,14 14,14 14,13.5" id="path2936"/>
			<path style="fill:#cd5061" d="m 10,14.5 q 0.25,-0.25 0.625,-0.375 0.375,-0.125 0.75,0 0.375,0.125 0.5,0.5 L 12,15 11.90625,14.71875 11.8125,14.4375 11.875,14.625 q 0.0625,0.1875 0.09375,0.40625 L 12,15.25 11.984375,15.140625 11.96875,15.03125 11.609375,15.140625 Q 11.25,15.25 11.125,15.625 11,16 11,16.5 V 17 l -0.375,0.125 q -0.375,0.125 -0.5,0.5 L 10,18 H 9.5 Q 9,18 8.5,18 H 8 8.375 8.75 8.5 Q 8.25,18 8.03125,17.96875 L 7.8125,17.9375 7.921875,17.953125 8.03125,17.96875 8.140625,17.609375 Q 8.25,17.25 8.5,17 8.75,16.75 8.875,16.375 9,16 9.125,15.625 9.25,15.25 9.5,15 9.75,14.75 10,14.5 M 9.625,18 H 10 10.125 10.25 10 Q 9.75,18 9.5,18 H 9.25 9.625 M 11,17.125 V 17 16.625 16.25 16.5 q 0,0.25 0,0.5 v 0.25 -0.125" id="path2938"/>
			<path style="fill:#95484c" d="M 11.125,15.625 Q 11.25,15.25 11.609375,15.140625 L 11.96875,15.03125 11.953125,14.921875 11.9375,14.8125 11.96875,15.03125 Q 12,15.25 12,15.5 V 15.75 15.375 15 15.5 16 L 11.515625,16.01563 11.03125,16.03126 11.01562,16.140635 11,16.25 11.03125,16.03125 Q 11.0625,15.8125 11.125,15.625 L 11.1875,15.4375 11.09375,15.71875 11,16 11.125,15.625 M 12,16.125 V 16 15.625 15.25 15.5 q 0,0.25 0,0.5 v 0.25 -0.125" id="path2940"/>
			<path style="fill:#755937" d="M 16,15.5 V 15 h 0.5 0.5 v 0.5 q 0,0.5 0,1 V 17 l -0.375,0.125 q -0.375,0.125 -0.5,0.5 L 16,18 h -0.5 q -0.5,0 -1,0 -0.5,0 -1,0 H 13 L 12.875,17.625 12.75,17.25 12.84375,17.53125 12.9375,17.8125 12.875,17.625 q -0.0625,-0.1875 -0.1875,-0.3125 l -0.125,-0.125 0.0625,0.0625 0.0625,0.0625 0.328125,-0.296875 L 13.34375,16.71875 13.29688,16.67188 13.25,16.625 13.34375,16.71875 Q 13.4375,16.8125 13.625,16.875 L 13.8125,16.9375 13.53125,16.84375 13.25,16.75 13.625,16.875 Q 14,17 14.5,17 q 0.5,0 0.875,-0.125 0.375,-0.125 0.5,-0.5 Q 16,16 16,15.5 M 12.875,18 H 13 13.375 13.75 13.5 q -0.25,0 -0.5,0 h -0.25 0.125 m 2.75,0 H 16 16.125 16.25 16 q -0.25,0 -0.5,0 h -0.25 0.375" id="path2942"/>
			<path style="fill:#95484c" d="M 17,15.5 V 15 15.375 15.75 15.5 q 0,-0.25 -0.03125,-0.46875 l -0.03125,-0.21875 0.01563,0.109375 0.01563,0.109375 0.390625,0.109375 Q 17.75,15.25 17.875,15.625 18,16 18.125,16.375 18.25,16.75 18.5,17 q 0.25,0.25 0.25,0.5 0,0.25 -0.375,0.375 L 18,18 18.28125,17.90625 18.5625,17.8125 18.375,17.875 q -0.1875,0.0625 -0.40625,0.09375 L 17.75,18 17.859375,17.984375 17.96875,17.96875 17.859375,17.609375 Q 17.75,17.25 17.375,17.125 L 17,17 v -0.5 q 0,-0.5 0,-1" id="path2944"/>
			<path style="fill:#6a3836" d="M 11,16.5 V 16 16.375 16.75 16.5 q 0,-0.25 0.03125,-0.46875 L 11.0625,15.8125 11.04687,15.921875 11.03124,16.03125 11.515615,16.01562 12,16 v 0.5 q 0,0.5 0,1 V 18 H 11.5 11 v -0.5 q 0,-0.5 0,-1 M 10.875,18 H 11 11.375 11.75 11.5 q -0.25,0 -0.5,0 h -0.25 0.125 m 0.75,0 H 12 12.125 12.25 12 q -0.25,0 -0.5,0 h -0.25 0.375 M 12,16.375 V 16 15.875 15.75 16 q 0,0.25 0,0.5 v 0.25 -0.375" id="path2946"/>
			<path style="fill:#d7e8e8" d="m 13.25,16.5 q 0,-0.25 0.25,-0.25 0.25,0 0.390625,0.359375 L 14.03125,16.96875 14.140625,16.98438 14.25,17 14.03125,16.96875 Q 13.8125,16.9375 13.625,16.875 L 13.4375,16.8125 13.71875,16.90625 14,17 13.625,16.875 Q 13.25,16.75 13.25,16.5" id="path2948"/>
			<path style="fill:#d7e8e8" d="m 15.109375,16.609375 q 0.140625,-0.359375 0.5,-0.5 L 15.96875,15.96875 15.984375,15.859375 16,15.75 15.96875,15.96875 Q 15.9375,16.1875 15.875,16.375 L 15.8125,16.5625 15.90625,16.28125 16,16 15.875,16.375 q -0.125,0.375 -0.5,0.5 L 15,17 15.28125,16.90625 15.5625,16.8125 15.375,16.875 q -0.1875,0.0625 -0.40625,0.09375 L 14.75,17 l 0.109375,-0.01563 0.109375,-0.01563 0.140625,-0.359375" id="path2950"/>
			<path style="fill:#95484c" d="m 10.125,17.625 q 0.125,-0.375 0.5,-0.5 L 11,17 V 17.5 18 H 10.5 10 l 0.125,-0.375 M 9.875,18 H 10 10.375 10.75 10.5 Q 10.25,18 10,18 H 9.75 9.875 m 0.75,0 H 11 11.125 11.25 11 q -0.25,0 -0.5,0 h -0.25 0.375 M 11,17.375 V 17 16.875 16.75 17 q 0,0.25 0,0.5 v 0.25 -0.375" id="path2952"/>
			<path style="fill:#95484c" d="M 12,17.5 V 17 l 0.375,0.125 q 0.375,0.125 0.5,0.5 L 13,18 H 12.5 12 V 17.5 M 11.875,18 H 12 12.375 12.75 12.5 q -0.25,0 -0.5,0 h -0.25 0.125 m 0.75,0 H 13 13.125 13.25 13 q -0.25,0 -0.5,0 h -0.25 0.375 M 12,16.875 V 17 17.375 17.75 17.5 q 0,-0.25 0,-0.5 v -0.25 0.125" id="path2954"/>
			<path style="fill:#6a3836" d="m 16.125,17.625 q 0.125,-0.375 0.5,-0.5 L 17,17 V 17.5 18 H 16.5 16 l 0.125,-0.375 M 15.875,18 H 16 16.375 16.75 16.5 q -0.25,0 -0.5,0 h -0.25 0.125 m 0.75,0 H 17 17.125 17.25 17 q -0.25,0 -0.5,0 h -0.25 0.375" id="path2956"/>
			<path style="fill:#cd5061" d="M 17,17.5 V 17 l 0.375,0.125 q 0.375,0.125 0.484375,0.484375 l 0.109375,0.359375 0.109375,-0.01563 0.109375,-0.01563 -0.21875,0.03125 Q 17.75,18 17.5,18 H 17.25 17.625 18 17.5 17 V 17.5 M 16.875,18 H 17 17.375 17.75 17.5 q -0.25,0 -0.5,0 h -0.25 0.125" id="path2958"/>
		</g>
	</g>
</svg>
