<?xml version="1.0" encoding="UTF-8"?>
<svg width="30mm" height="30mm" version="1.1" viewBox="0 0 30 30" xmlns="http://www.w3.org/2000/svg" xmlns:cc="http://creativecommons.org/ns#" xmlns:dc="http://purl.org/dc/elements/1.1/" xmlns:rdf="http://www.w3.org/1999/02/22-rdf-syntax-ns#">
<metadata>
<rdf:RDF>
<cc:Work rdf:about="">
<dc:format>image/svg+xml</dc:format>
<dc:type rdf:resource="http://purl.org/dc/dcmitype/StillImage"/>
<dc:title/>
</cc:Work>
</rdf:RDF>
</metadata>
<g transform="translate(-17.983 -140.26)">
<g transform="translate(23.224 130.28)">
<path d="m13.207 25.481q0.25-0.25 0.625-0.375l0.375-0.125-0.28125 0.09375-0.28125 0.09375 0.1875-0.0625q0.1875-0.0625 0.40625-0.09375l0.21875-0.03125-0.10938 0.01563-0.10938 0.01563-0.14062 0.35938q-0.14062 0.35938-0.39062 0.60938t-0.5 0.5-0.5 0.5-0.375 0.625-0.125 0.875v0.5l-0.48438-0.01563-0.48438-0.01563 0.01563 0.10938 0.01563 0.10938-0.03125-0.21875q-0.03125-0.21875-0.03125-0.46875v-0.25 0.75-0.5q0-0.5 0.125-0.875t0.375-0.625 0.5-0.5 0.5-0.5 0.5-0.5m-1.375 3.5h0.625-0.25q-0.25 0-0.5 0h-0.25 0.375" fill="#15b3f4"/>
<path d="m14.098 25.371 0.14062-0.35938-0.10938 0.01563-0.10938 0.01563 0.21875-0.03125q0.21875-0.03125 0.46875-0.03125h0.25-0.75 0.5q0.5 0 1 0t1 0 1 0h0.5-0.75 0.25q0.25 0 0.46875 0.03125l0.21875 0.03125-0.10938-0.01563-0.10938-0.01563 0.01563 0.51562 0.01563 0.51562h0.1875-0.1875q-0.1875 0-0.375 0.0625l-0.1875 0.0625 0.28125-0.09375 0.28125-0.09375-0.375 0.125q-0.375 0.125-0.375 0.375t0.25 0.5 0.375 0.625l0.125 0.375-0.09375-0.28125-0.09375-0.28125 0.0625 0.1875q0.0625 0.1875 0.09375 0.40625l0.03125 0.21875-0.01563-0.10938-0.01563-0.10938-0.35938-0.14062q-0.35938-0.14062-0.60938-0.39062t-0.625-0.375-0.875-0.125-0.875 0.125-0.5 0.5-0.25 0.75-0.5 0.5-0.875 0.125h-0.5v-0.5q0-0.5 0.125-0.875t0.375-0.625 0.5-0.5 0.5-0.5 0.39062-0.60938m-2.0156 3.6094h0.875-0.25q-0.25 0-0.5 0h-0.25 0.125" fill="#1ffdff"/>
<path d="m18.192 25.528-0.01563-0.51562-0.10938-0.01563-0.10938-0.01563 0.21875 0.03125q0.21875 0.03125 0.40625 0.09375l0.1875 0.0625-0.28125-0.09375-0.28125-0.09375 0.375 0.125q0.375 0.125 0.625 0.375t0.5 0.5 0.5 0.5 0.5 0.5 0.375 0.625 0.125 0.875 0 1v0.5-0.75 0.25q0 0.25-0.03125 0.46875l-0.03125 0.21875 0.01563-0.10938 0.01563-0.10938h-1l-0.01563 0.10938-0.01563 0.10938 0.03125-0.21875q0.03125-0.21875 0.03125-0.46875v-0.25 0.75-0.5q0-0.5 0-1t-0.125-0.875-0.375-0.625-0.5-0.5-0.625-0.375l-0.375-0.125 0.28125 0.09375 0.28125 0.09375-0.1875-0.0625q-0.1875-0.0625-0.375-0.0625h-0.1875 0.1875l-0.01563-0.51562" fill="#15b3f4"/>
<path d="m10.207 26.481q0.25-0.25 0.625-0.375t0.75-0.25l0.375-0.125-0.28125 0.09375-0.28125 0.09375 0.1875-0.0625q0.1875-0.0625 0.34375-0.15625l0.15625-0.09375-0.07813 0.04687-0.07813 0.04687 0.26562 0.26562 0.26562 0.26562-0.25 0.25q-0.25 0.25-0.5 0.5l-0.25 0.25 0.1875-0.1875 0.1875-0.1875-0.125 0.125q-0.125 0.125-0.21875 0.28125l-0.09375 0.15625 0.04687-0.07813 0.04687-0.07813-0.26562-0.26562q-0.26562-0.26562-0.51562-0.01563-0.25 0.25-0.375 0.625t-0.125 0.875 0 1 0 1v1q0 0.5 0 1t0 1 0 1 0 1 0 1 0 1 0.125 0.875 0.5 0.5 0.875 0.125 1 0h0.5l0.375 0.125q0.375 0.125 0.64062-0.14062l0.26562-0.26562-0.04687-0.07813-0.04687-0.07813 0.09375 0.15625q0.09374 0.15626 0.21874 0.28126l0.125 0.125-0.1875-0.1875-0.1875-0.1875 0.25 0.25q0.25 0.25 0.5 0.5l0.25 0.25-0.1875-0.1875-0.1875-0.1875 0.125 0.125q0.125 0.125 0.28125 0.21875l0.15625 0.09375-0.07813-0.04687-0.07813-0.04687-0.28125 0.28125-0.28125 0.28125 0.07813 0.04687 0.07812 0.04688-0.15625-0.09375q-0.15625-0.09375-0.34375-0.15625l-0.1875-0.0625 0.28125 0.09375 0.28125 0.09375-0.375-0.125q-0.375-0.125-0.875-0.125t-1 0-1 0-0.875-0.125-0.625-0.375q-0.25-0.25-0.5-0.5t-0.375-0.625-0.125-0.875 0-1 0-1 0-1 0-1 0-1 0-1 0-1 0-1 0-1 0.125-0.875 0.375-0.625 0.5-0.5m2.0625-0.0625 0.1875-0.1875 0.0625-0.0625 0.0625-0.0625-0.125 0.125q-0.125 0.125-0.25 0.25l-0.125 0.125 0.1875-0.1875"/>
<path d="m17.457 26.481q0-0.25 0.375-0.375t0.75 0 0.625 0.375 0.5 0.5 0.375 0.625 0.125 0.875v0.5h-0.5q-0.5 0-1.0156-0.01563l-0.51562-0.01563-0.01563 0.10938-0.01563 0.10938 0.03125-0.21875q0.03125-0.21875 0.03125-0.46875v-0.25 0.75-0.5q0-0.5-0.125-0.875t-0.375-0.625-0.25-0.5m2.75 2.625v-0.875 0.25q0 0.25 0 0.5v0.25-0.125" fill="#9efffe"/>
<path d="m20.207 26.481-0.25-0.25 0.26562-0.26562 0.26562-0.26562-0.07813-0.04687-0.07813-0.04687 0.15625 0.09375q0.15625 0.09375 0.34375 0.15625l0.1875 0.0625-0.28125-0.09375-0.28125-0.09375 0.375 0.125q0.375 0.125 0.875 0.125t0.875 0.125 0.625 0.375 0.5 0.5 0.375 0.625 0.125 0.875 0 1 0 1 0 1 0 1 0 1 0 1 0 1 0 1 0 1-0.125 0.875-0.375 0.625-0.5 0.5-0.625 0.375-0.875 0.125-1 0-1 0-1 0-0.875 0.125l-0.375 0.125 0.28125-0.09375 0.28125-0.09375-0.1875 0.0625q-0.1875 0.0625-0.34375 0.15625l-0.15625 0.09375 0.07813-0.04687 0.07813-0.04687-0.28125-0.28125-0.28125-0.28125-0.07813 0.04687-0.07813 0.04687 0.15625-0.09375q0.15626-0.09374 0.28126-0.21874l0.125-0.125-0.1875 0.1875-0.1875 0.1875 0.25-0.25q0.25-0.25 0.5-0.5l0.25-0.25-0.1875 0.1875-0.1875 0.1875 0.125-0.125q0.125-0.125 0.21875-0.28125l0.09375-0.15625-0.04687 0.07813-0.04687 0.07813 0.26562 0.26562q0.26562 0.26562 0.64062 0.14062l0.375-0.125h0.5q0.5 0 1 0t1 0 0.875-0.125 0.5-0.5 0.125-0.875 0-1 0-1 0-1 0-1 0-1 0-1 0-1 0-1 0-1-0.125-0.875-0.5-0.5l-0.375-0.125-0.375-0.125q-0.375-0.125-0.64062 0.14062l-0.26562 0.26562 0.04687 0.07813 0.04687 0.07813-0.09375-0.15625q-0.09375-0.15625-0.21875-0.28125l-0.125-0.125 0.1875 0.1875 0.1875 0.1875-0.25-0.25q-0.25-0.25-0.5-0.5m-0.3125-0.3125 0.0625 0.0625 0.1875 0.1875 0.1875 0.1875-0.125-0.125q-0.125-0.125-0.25-0.25l-0.125-0.125 0.0625 0.0625"/>
<path d="m10.332 27.606q0.125-0.375 0.375-0.625t0.51562 0.01563l0.26562 0.26562 0.04687-0.07813 0.04687-0.07813-0.09375 0.15625q-0.09375 0.15625-0.15625 0.34375l-0.0625 0.1875 0.09375-0.28125 0.09375-0.28125-0.125 0.375q-0.125 0.375-0.125 0.875t0.125 0.875 0.5 0.5 0.875 0.125 1 0 0.875-0.125 0.5-0.5 0.25-0.75 0.5-0.5 0.75 0 0.5 0.5 0.125 0.875v0.5l-0.375 0.125q-0.375 0.125-0.5 0.5t-0.625 0.375-0.875 0.125-0.5 0.5 0 0.75 0.5 0.5l0.375 0.125v0.5q0 0.5 0.125 0.875t0.5 0.5 0.75 0 0.5-0.5 0.125-0.875v-0.5h0.5q0.5 0 0.875-0.125t0.625-0.375 0.5-0.5 0.5-0.5 0.5-0.5 0.375-0.625 0.125-0.875 0-1-0.125-0.875l-0.125-0.375 0.09375 0.28125 0.09375 0.28125-0.0625-0.1875q-0.0625-0.1875-0.15625-0.34375l-0.09375-0.15625 0.04687 0.07813 0.04687 0.07813 0.26562-0.26562q0.26562-0.26562 0.64062-0.14062l0.375 0.125v0.5q0 0.5 0 1t0 1 0 1-0.375 0.625-0.5 0.5-0.5 0.5-0.5 0.5-0.5 0.5-0.5 0.5-0.625 0.375-0.5 0.5-0.375 0.625-0.375 0.375 0.375 0.375 0.5 0.5 0.5 0.5 0.375 0.625 0 1v0.5l-0.375 0.125q-0.375 0.125-0.64062-0.14062l-0.26562-0.26562-0.04687 0.07813-0.04687 0.07813 0.09375-0.15625q0.09375-0.15625 0.15625-0.34375l0.0625-0.1875-0.09375 0.28125-0.09375 0.28125 0.125-0.375q0.125-0.375 0-0.75t-0.375-0.625-0.5-0.5-0.625-0.375-0.75 0-0.625 0.375-0.5 0.5-0.375 0.625 0 0.75l0.125 0.375-0.09375-0.28125-0.09375-0.28125 0.0625 0.1875q0.0625 0.1875 0.15625 0.34375l0.09375 0.15625-0.04687-0.07813-0.04687-0.07813-0.26562 0.26562q-0.26564 0.26564-0.64064 0.14064l-0.375-0.125v-0.5q0-0.5 0-1t0.375-0.625 0.5-0.5 0.5-0.5 0.375-0.375-0.375-0.375-0.375-0.625-0.125-0.875-0.5-0.5-0.375-0.625 0-1-0.5-0.5-1 0-1 0h-0.5v-0.5q0-0.5 0-1t0-1 0.125-0.875" fill="#0d0d0d"/>
<path d="m14.332 27.606q0.125-0.375 0.5-0.5l0.375-0.125-0.28125 0.09375-0.28125 0.09375 0.1875-0.0625q0.1875-0.0625 0.40625-0.09375l0.21875-0.03125-0.10938 0.01563-0.10938 0.01563-0.14062 0.35938q-0.14062 0.35938-0.51562 0.48438l-0.375 0.125 0.125-0.375m-0.03125 0.09375-0.09375 0.28125-0.03125 0.09375-0.03125 0.09375 0.0625-0.1875q0.0625-0.1875 0.125-0.375l0.0625-0.1875-0.09375 0.28125" fill="#15b3f4"/>
<path d="m15.098 27.371 0.14062-0.35938-0.10938 0.01563-0.10938 0.01563 0.21875-0.03125q0.21875-0.03125 0.46875-0.03125h0.25-0.75 0.5q0.5 0 0.875 0.125t0.625 0.375 0.60938 0.39062l0.35938 0.14062-0.01563-0.10938-0.01563-0.10938 0.03125 0.21875q0.03125 0.21875 0.03125 0.46875v0.25-0.75 0.5q0 0.5-0.125 0.875t-0.5 0.5l-0.375 0.125v-0.5q0-0.5-0.125-0.875t-0.5-0.5-0.75 0-0.5 0.5-0.25 0.75-0.5 0.5-0.875 0.125-1 0-0.875-0.125-0.5-0.5l-0.125-0.375 0.09375 0.28125 0.09375 0.28125-0.0625-0.1875q-0.0625-0.1875-0.09375-0.40625l-0.03125-0.21875 0.01563 0.10938 0.01563 0.10938 0.48438 0.01563q0.48438 0.01563 0.98438 0.01563t0.875-0.125 0.5-0.5l0.125-0.375 0.375-0.125q0.375-0.125 0.51562-0.48438m-0.85938 0.51562-0.03125 0.09375-0.09375 0.28125-0.09375 0.28125 0.0625-0.1875q0.0625-0.1875 0.125-0.375l0.0625-0.1875-0.03125 0.09375" fill="#0a73bc"/>
<path d="m22.207 27.481v-0.5l0.375 0.125q0.375 0.125 0.5 0.5t0.125 0.875 0 1 0 1 0 1 0 1 0 1 0 1 0 1 0 1 0 1-0.125 0.875-0.5 0.5-0.875 0.125-1 0-1 0h-0.5v-0.5q0-0.5 0-1t-0.375-0.625-0.5-0.5-0.5-0.5-0.375-0.375 0.375-0.375 0.375-0.625 0.5-0.5 0.625-0.375 0.5-0.5 0.5-0.5 0.5-0.5 0.5-0.5 0.5-0.5 0.375-0.625 0-1 0-1 0-1" fill="#262626"/>
<path d="m18.082 29.356 0.125-0.375-0.09375 0.28125-0.09375 0.28125 0.0625-0.1875q0.0625-0.1875 0.09375-0.40625l0.03125-0.21875-0.01563 0.10938-0.01563 0.10938 0.51562 0.01563q0.51562 0.01563 1.0156 0.01563h0.5v0.5q0 0.5-0.125 0.875t-0.375 0.625-0.5 0.5-0.625 0.375-0.75 0.25-0.5 0.5l-0.125 0.375h-0.5q-0.5 0-1 0h-0.5v-0.5q0-0.5 0.01563-0.98438l0.01563-0.48438-0.10938 0.01563-0.10938 0.01563 0.21875-0.03125q0.21874-0.03126 0.46874-0.03126h0.25-0.75 1-0.75 0.25q0.25 0 0.40625-0.09375l0.15625-0.09375-0.07813 0.04687-0.07813 0.04687 0.42188-0.07813q0.42188-0.07813 0.54688-0.45312l0.125-0.375 0.375-0.125q0.375-0.125 0.5-0.5m2.125 0v-0.625 0.25q0 0.25 0 0.5v0.25-0.375" fill="#1ffdff"/>
<path d="m16.332 30.606q0.125-0.375 0.5-0.5l0.375-0.125-0.125 0.375q-0.125 0.375-0.54688 0.45312l-0.42188 0.07813-0.07813 0.04687-0.07813 0.04687 0.15625-0.09375q0.15625-0.09375 0.21875-0.28125l0.0625-0.1875-0.09375 0.28125-0.09375 0.28125 0.125-0.375" fill="#15b3f4"/>
<path d="m20.082 30.356 0.125-0.375-0.09375 0.28125-0.09375 0.28125 0.0625-0.1875q0.0625-0.1875 0.09375-0.40625l0.03125-0.21875-0.01563 0.10938-0.01563 0.10938h1l0.01563-0.10938 0.01563-0.10938-0.03125 0.21875q-0.03125 0.21875-0.09375 0.40625l-0.0625 0.1875 0.09375-0.28125 0.09375-0.28125-0.125 0.375q-0.125 0.375-0.375 0.625t-0.5 0.5-0.5 0.5-0.5 0.5-0.625 0.375-0.875 0.125h-0.5l0.125-0.375q0.125-0.375 0.5-0.5t0.75-0.25 0.625-0.375 0.5-0.5 0.375-0.625" fill="#0a73bc"/>
<path d="m10.207 31.481v-0.5h0.5q0.5 0 1 0t1 0 0.5 0.5 0 1 0.375 0.625 0.5 0.5 0.125 0.875 0.375 0.625 0.375 0.375-0.375 0.375-0.5 0.5-0.5 0.5-0.375 0.625 0 1v0.5h-0.5q-0.5 0-1 0t-0.875-0.125-0.5-0.5-0.125-0.875 0-1 0-1 0-1 0-1 0-1 0-1" fill="#262626"/>
<path d="m14.332 31.606q0.125-0.375 0.5-0.5l0.375-0.125-0.28125 0.09375-0.28125 0.09375 0.1875-0.0625q0.1875-0.0625 0.40625-0.09375l0.21875-0.03125-0.10938 0.01563-0.10938 0.01563-0.01563 0.48438-0.01563 0.48438h-0.9375v0.1875-0.1875q0-0.1875 0.0625-0.375l0.0625-0.1875-0.09375 0.28125-0.09375 0.28125 0.125-0.375m0.875 0.5v-0.875 0.25q0 0.25 0 0.5v0.25-0.125" fill="#15b3f4"/>
<path d="m14.332 32.356-0.125-0.375 0.09375 0.28125 0.09375 0.28125-0.0625-0.1875q-0.0625-0.1875-0.0625-0.375v-0.1875 0.1875h0.9375v1l-0.375-0.125q-0.375-0.125-0.5-0.5m0.875 0v-0.625 0.25q0 0.25 0 0.5v0.25-0.375" fill="#0a73bc"/>
<path d="m15.207 33.481v-0.5h0.5q0.5 0 1 0h0.5v1-0.75 0.25q0 0.25-0.03125 0.46875l-0.03125 0.21875 0.01563-0.10938 0.01563-0.10938-0.48438 0.01563q-0.48438 0.01562-0.96876-5e-6l-0.48438-0.01563 0.01563 0.10938 0.01563 0.10938-0.03125-0.21875q-0.03126-0.21874-0.03126-0.46874v-0.25 0.75-0.5" fill="#15b3f4"/>
<path d="m15.332 34.356-0.125-0.375 0.09375 0.28125 0.09375 0.28125-0.0625-0.1875q-0.0625-0.1875-0.09375-0.40625l-0.03125-0.21875 0.01563 0.10938 0.01563 0.10938 0.48438 0.01563q0.48436 0.01562 0.96874-5e-6l0.48438-0.01563 0.01563-0.10938 0.01563-0.10938-0.03125 0.21875q-0.03125 0.21875-0.09375 0.40625l-0.0625 0.1875 0.09375-0.28125 0.09375-0.28125-0.125 0.375q-0.125 0.375-0.5 0.5t-0.75 0-0.5-0.5" fill="#0a73bc"/>
<path d="m15.207 36.481q0.25-0.25 0.625-0.375t0.75 0 0.625 0.375 0.5 0.5 0.375 0.625l0.125 0.375-0.09375-0.28125-0.09375-0.28125 0.0625 0.1875q0.0625 0.1875 0.0625 0.375v0.1875-0.1875h-0.9375l-0.125-0.375q-0.125-0.375-0.5-0.5t-0.75 0-0.5 0.5l-0.125 0.375h-0.9375v0.1875-0.1875q0-0.1875 0.0625-0.375l0.0625-0.1875-0.09375 0.28125-0.09375 0.28125 0.125-0.375q0.125-0.375 0.375-0.625t0.5-0.5" fill="#15b3f4"/>
<path d="m15.332 37.606q0.125-0.375 0.5-0.5t0.75 0 0.5 0.5l0.125 0.375h-0.5q-0.5 0-1 0h-0.5l0.125-0.375" fill="#9efffe"/>
<path d="m14.332 38.356-0.125-0.375 0.09375 0.28125 0.09375 0.28125-0.0625-0.1875q-0.0625-0.1875-0.0625-0.375v-0.1875 0.1875h0.9375l0.125 0.375q0.125 0.375 0.5 0.5t0.75 0 0.5-0.5l0.125-0.375h0.9375v-0.1875 0.1875q0 0.1875-0.0625 0.375l-0.0625 0.1875 0.09375-0.28125 0.09375-0.28125-0.125 0.375q-0.125 0.375-0.375 0.625t-0.5 0.5-0.625 0.375-0.75 0-0.625-0.375-0.5-0.5-0.375-0.625" fill="#0a73bc"/>
<path d="m15.332 38.356-0.125-0.375h0.5q0.5 0 1 0h0.5l-0.125 0.375q-0.125 0.375-0.5 0.5t-0.75 0-0.5-0.5" fill="#1ffdff"/>
<path d="m15.207 40.481-0.25-0.25 0.1875 0.1875 0.1875 0.1875-0.125-0.125q-0.125-0.125-0.28125-0.21875l-0.15625-0.09375 0.07813 0.04687 0.07813 0.04687 0.28124-0.28124 0.28125-0.28125-0.07813-0.04687-0.07813-0.04687 0.15625 0.09375q0.15625 0.09375 0.34375 0.15625l0.1875 0.0625-0.28125-0.09375-0.28125-0.09375 0.375 0.125q0.375 0.125 0.75 0l0.375-0.125-0.28125 0.09375-0.28125 0.09375 0.1875-0.0625q0.1875-0.0625 0.34375-0.15625l0.15625-0.09375-0.07813 0.04687-0.07813 0.04687 0.28125 0.28125 0.28125 0.28125 0.07813-0.04687 0.07813-0.04687-0.15625 0.09375q-0.15626 0.09374-0.28126 0.21874l-0.125 0.125 0.1875-0.1875 0.1875-0.1875-0.25 0.25q-0.25 0.25-0.625 0.375t-0.75 0-0.625-0.375" fill="#1b1c1d"/>
</g>
<g transform="translate(12.112 151.28)">
<path d="m15 2.5v-0.5h0.5q0.5 0 1 0h0.5l0.125 0.375q0.125 0.375 0.5 0.5l0.375 0.125-0.28125-0.09375-0.28125-0.09375 0.1875 0.0625q0.1875 0.0625 0.40625 0.09375l0.21875 0.03125-0.10938-0.015625-0.10938-0.015625 0.10938 0.39062q0.10938 0.39062 0.35938 0.64062t0.375 0.625 0.125 0.875v0.5-0.75 0.25q0 0.25-0.03125 0.46875l-0.03125 0.21875 0.015625-0.10938 0.015625-0.10938h-1l-0.015625 0.10938-0.015625 0.10938 0.03125-0.21875q0.03125-0.21875 0.03125-0.46875v-0.25 0.75-0.5q0-0.5-0.125-0.875t-0.375-0.625-0.5-0.5-0.5-0.25-0.375 0.375-0.25 0.75-0.5 0.5-0.75 0-0.625-0.375-0.5-0.25-0.5 0.25-0.625 0.375-0.875 0.125-0.875 0.125-0.625 0.375-0.5 0.5-0.375 0.625 0 0.75 0.5 0.5 0.75 0.25 0.625 0.375 0.5 0.25 0.5-0.25 0.625-0.375l0.375-0.125v1-0.75 0.25q0 0.25-0.03125 0.46875l-0.03125 0.21875 0.015625-0.10938 0.015625-0.10938-0.35938 0.14062q-0.35938 0.14062-0.60938 0.39062t-0.64062 0.39062l-0.39062 0.14062 0.015625 0.10938 0.015625 0.10938-0.03125-0.21875q-0.03125-0.21875-0.09375-0.40625l-0.0625-0.1875 0.09375 0.28125 0.09375 0.28125-0.125-0.375q-0.125-0.375-0.5-0.5t-0.875-0.125h-0.5 0.75-0.25q-0.25 0-0.375 0.125l-0.125 0.125 0.0625-0.0625 0.0625-0.0625-0.1875-0.4375q-0.1875-0.4375-0.5625-0.5625l-0.375-0.125v-0.5q0-0.5 0.125-0.875t0.375-0.625 0.35938-0.64062l0.10938-0.39062-0.10938 0.015625-0.10938 0.015625 0.21875-0.03125q0.21875-0.03125 0.40625-0.09375l0.1875-0.0625-0.28125 0.09375-0.28125 0.09375 0.375-0.125q0.375-0.125 0.625-0.375t0.625-0.375 0.875-0.125 0.875-0.125 0.5-0.5l0.125-0.375h1l0.125 0.375q0.125 0.375 0.375 0.375t0.375-0.375 0.125-0.875m-0.875 0.5h-0.875 0.25q0.25 0 0.5 0h0.25-0.125m-0.75 0h-0.625 0.25q0.25 0 0.5 0h0.25-0.375m-5.375 4.625v0.625-0.25q0-0.25 0-0.5v-0.25 0.375m9.125-5.625h-0.875 0.25q0.25 0 0.5 0h0.25-0.125m-1.75 0h-0.625 0.25q0.25 0 0.5 0h0.25-0.375" fill="#915622"/>
<path d="m16.125 3.625q0.125-0.375 0.375-0.375t0.5 0.25 0.5 0.5 0.375 0.625 0.125 0.875-0.125 0.875-0.5 0.5-0.875 0.125-1 0-1 0-0.875 0.125-0.5 0.5l-0.125 0.375-0.375 0.125q-0.375 0.125-0.625 0.375t-0.5 0.25-0.5-0.25-0.625-0.375-0.75-0.25-0.5-0.5 0-0.75 0.375-0.625 0.5-0.5 0.625-0.375 0.875-0.125 0.875-0.125 0.625-0.375 0.5-0.25 0.5 0.25 0.625 0.375 0.75 0 0.5-0.5 0.25-0.75" fill="#a6671d"/>
<path d="m7 5.5q0.25-0.25 0.625-0.375t0.875-0.125h0.5-0.75 0.25q0.25 0 0.46875-0.03125l0.21875-0.03125-0.10938 0.015625-0.10938 0.015625-0.10938 0.39062q-0.10938 0.39062-0.35938 0.64062l-0.25 0.25 0.1875-0.1875 0.1875-0.1875-0.125 0.125q-0.125 0.125-0.21875 0.28125l-0.09375 0.15625 0.046875-0.078125 0.046875-0.078125-0.26562-0.26562q-0.26562-0.26562-0.51562-0.015625t-0.375 0.625-0.125 0.875 0 1 0 1 0 1 0 1 0 1 0 1 0 1 0 1 0 1 0.125 0.875 0.375 0.625 0.53125-0.03125l0.28125-0.28125-0.0625-0.0625-0.0625-0.0625 0.125 0.125q0.125 0.125 0.3125 0.1875l0.1875 0.0625-0.28125-0.09375-0.28125-0.09375 0.375 0.125q0.375 0.125 0.875 0.125t1 0 1 0 1 0 1.0625-0.0625l0.5625-0.0625-0.0625-0.0625-0.0625-0.0625 0.125 0.125q0.125 0.125 0.375 0.125h0.25-0.75 0.5q0.5 0 1 0t1 0 0.875-0.125l0.375-0.125-0.28125 0.09375-0.28125 0.09375 0.1875-0.0625q0.1875-0.0625 0.3125-0.1875l0.125-0.125-0.0625 0.0625-0.0625 0.0625 0.28125 0.28125q0.28125 0.28125 0.65625 0.15625t0.75-0.25 0.5-0.5 0.125-0.875 0-1 0-1 0-1 0-1 0-1 0-1 0-1 0-1 0-1-0.125-0.875-0.5-0.5l-0.375-0.125v-1 0.75-0.25q0-0.25-0.03125-0.46875l-0.03125-0.21875 0.01563 0.10938 0.01563 0.10938 0.39062 0.10938q0.39062 0.10938 0.64062 0.35938t0.5 0.5 0.375 0.625 0.125 0.875 0 1 0 1 0 1 0 1 0 1 0 1 0 1 0 1 0 1-0.125 0.875-0.375 0.625-0.5 0.5-0.625 0.375-0.875 0.125-1 0-1 0-1 0-1 0-1 0-1 0-1 0-1 0-1 0-1 0-0.875-0.125-0.625-0.375-0.5-0.5-0.375-0.625-0.125-0.875 0-1 0-1 0-1 0-1 0-1 0-1 0-1 0-1 0-1 0.125-0.875 0.375-0.625 0.5-0.5"/>
<path d="m7.125 6.625q0.125-0.375 0.375-0.625t0.51562 0.015625l0.26562 0.26562 0.046875-0.078125 0.046875-0.078125-0.09375 0.15625q-0.09375 0.15625-0.15625 0.34375l-0.0625 0.1875 0.09375-0.28125 0.09375-0.28125-0.125 0.375q-0.125 0.375-0.125 0.875t0 1 0.125 0.875 0.5 0.5l0.375 0.125v0.5q0 0.5 0.125 0.875t0.375 0.625 0.5 0.5 0.5 0.5 0.375 0.625l0.125 0.375-0.375 0.125q-0.375 0.125-0.625 0.375t-0.5 0.5-0.5 0.5-0.5 0.5-0.375 0.625 0 0.75l0.125 0.375-0.09375-0.28125-0.09375-0.28125 0.0625 0.1875q0.0625 0.1875 0.1875 0.3125l0.125 0.125-0.0625-0.0625-0.0625-0.0625-0.28125 0.28125q-0.28125 0.28125-0.53125 0.03125t-0.375-0.625-0.125-0.875 0-1 0-1 0-1 0-1 0-1 0-1 0-1 0-1 0-1 0.125-0.875m1.875 3.75v-0.625 0.25q0 0.25 0 0.5v0.25-0.375" fill="#262626"/>
<path d="m17.875 6.375 0.125-0.375-0.09375 0.28125-0.09375 0.28125 0.0625-0.1875q0.0625-0.1875 0.09375-0.40625l0.03125-0.21875-0.015625 0.10938-0.015625 0.10938h1l0.015625-0.10938 0.015625-0.10938-0.03125 0.21875q-0.03125 0.21875-0.09375 0.40625l-0.0625 0.1875 0.09375-0.28125 0.09375-0.28125-0.125 0.375q-0.125 0.375-0.375 0.625t-0.375 0.625l-0.125 0.375 0.09375-0.28125 0.09375-0.28125-0.0625 0.1875q-0.0625 0.1875-0.09375 0.40625l-0.03125 0.21875 0.015625-0.10938 0.015625-0.10938-0.51562-0.015625-0.51562-0.015625h-0.5q-0.5 0-1 0t-1 0-1 0h-0.5l0.125-0.375q0.125-0.375 0.5-0.5t0.875-0.125 1 0 1 0 0.875-0.125 0.5-0.5" fill="#743e1d"/>
<path d="m18.875 6.375 0.125-0.375 0.375 0.125q0.375 0.125 0.5 0.5t0.125 0.875 0 1 0 1 0 1 0 1 0 1 0 1 0 1 0 1 0 1-0.125 0.875-0.5 0.5-0.75 0.25-0.65625-0.15625l-0.28125-0.28125-0.0625 0.0625-0.0625 0.0625 0.125-0.125q0.125-0.125 0.1875-0.3125l0.0625-0.1875-0.09375 0.28125-0.09375 0.28125 0.125-0.375q0.125-0.375 0-0.75t-0.375-0.625-0.5-0.5-0.5-0.5-0.375-0.625l-0.125-0.375 0.375-0.125q0.375-0.125 0.625-0.375t0.5-0.5 0.375-0.625l0.125-0.375-0.125-0.375-0.125-0.375 0.09375 0.28125 0.09375 0.28125-0.0625-0.1875q-0.0625-0.1875-0.15625-0.34375l-0.09375-0.15625 0.04687 0.07813 0.04687 0.07813 0.26562-0.26562q0.26564-0.26564 0.26564-0.51564t-0.26562-0.51562l-0.26562-0.26562-0.046875 0.078125-0.046875 0.078125 0.09375-0.15625q0.09375-0.15625 0.15625-0.34375l0.0625-0.1875-0.09375 0.28125-0.09375 0.28125 0.125-0.375q0.125-0.375 0.125-0.875t0.125-0.875 0.375-0.625 0.375-0.625" fill="#262626"/>
<path d="m8 8.5v-0.5l0.375 0.125q0.375 0.125 0.5625 0.5625l0.1875 0.4375 0.0625-0.0625 0.0625-0.0625-0.125 0.125q-0.125 0.125-0.125 0.375v0.25-0.75 1l-0.375-0.125q-0.375-0.125-0.5-0.5t-0.125-0.875m1 1.625v-0.875 0.25q0 0.25 0 0.5v0.25-0.125m-1-2.25v0.875-0.25q0-0.25 0-0.5v-0.25 0.125" fill="#743e1d"/>
<path d="m13 8.5v-0.5h0.5q0.5 0 1 0t1 0 1 0h0.5v0.5q0 0.5-0.125 0.875t0.15625 0.625l0.28125 0.25 0.03125-0.0625 0.03125-0.0625-0.0625 0.125q-0.0625 0.125-0.0625 0.25v0.125-0.375 0.5-0.375 0.125q0 0.125 0.0625 0.25l0.0625 0.125-0.03125-0.0625-0.03125-0.0625-0.28125 0.25q-0.28125 0.25-0.28125 0.5t0.26562 0.51562l0.26562 0.26562 0.07813-0.04687 0.07813-0.04687-0.15625 0.09375q-0.15626 0.09374-0.28126 0.21874l-0.125 0.125 0.1875-0.1875 0.1875-0.1875-0.25 0.25q-0.25 0.25-0.5 0.5t-0.375 0.625l-0.125 0.375h-0.5q-0.5 0-1 0t-1.0469 0.04687l-0.54688 0.04687 0.04687-0.54688q0.04688-0.54686-0.32812-0.67186t-0.375-0.375-0.26562-0.54688l-0.26562-0.29688-0.046875 0.046875-0.046875 0.046875 0.09375-0.09375q0.09375-0.09375 0.15625-0.28125l0.0625-0.1875-0.09375 0.28125-0.09375 0.28125 0.125-0.375q0.125-0.375 0.25-0.75t0.375-0.625 0.375-0.625 0.125-0.875m1.25 2q0 0.25 0.25 0.25t0.25-0.25-0.25-0.25-0.25 0.25" fill="#f6baa2"/>
<path d="m17 8.5v-0.5l0.51562 0.015625 0.51562 0.015625 0.015625-0.10938 0.015625-0.10938-0.03125 0.21875q-0.03125 0.21875-0.03125 0.46875v0.25-0.75 0.5q0 0.5-0.125 0.875t-0.375 0.625l-0.25 0.25 0.1875-0.1875 0.1875-0.1875-0.125 0.125q-0.125 0.125-0.1875 0.25l-0.0625 0.125 0.03125-0.0625 0.03125-0.0625-0.28125-0.25q-0.28125-0.25-0.15625-0.625t0.125-0.875" fill="#cc9582"/>
<path d="m9 9.5q0-0.5 0.5-0.5t0.875 0.125 0.5 0.5 0.125 0.875v0.5h-0.5q-0.5 0-0.5-0.5t-0.5-0.5h-0.5v-0.5m0 0.125v0.625-0.25q0-0.25 0-0.5v-0.25 0.375" fill="#f6baa2"/>
<path d="m12 9.5q0.25-0.25 0.60938-0.39062l0.35938-0.14062 0.015625-0.10938 0.015625-0.10938-0.03125 0.21875q-0.03125 0.21875-0.09375 0.40625l-0.0625 0.1875 0.09375-0.28125 0.09375-0.28125-0.125 0.375q-0.125 0.375-0.375 0.625t-0.375 0.625-0.25 0.75-0.375 0.375-0.375-0.375l-0.125-0.375v-1 0.75-0.25q0-0.25-0.03125-0.46875l-0.03125-0.21875 0.01563 0.10938 0.01563 0.10938 0.39062-0.14062q0.39062-0.14062 0.64062-0.39062" fill="#743e1d"/>
<path d="m9 10.5v-0.5h0.5q0.5 0 0.5 0.5t0.5 0.5h0.5l0.125 0.375q0.125 0.375 0.375 0.375h0.25-0.375 0.125q0.125 0 0.21875-0.09375l0.09375-0.09375-0.04687 0.04687-0.04687 0.04687 0.26562 0.29688q0.26562 0.29688 0.26562 0.54688t0.375 0.375 0.32812 0.67188l-0.04687 0.54688 0.07813 0.04687 0.07813 0.04687-0.15625-0.09375q-0.15626-0.09374-0.40626-0.09374h-0.25 0.75-1l-0.125-0.375q-0.125-0.375-0.375-0.625t-0.5-0.5-0.5-0.5-0.5 0l-0.25 0.25-0.25-0.25q-0.25-0.25-0.375-0.625t-0.125-0.875m0.5625 1.5625 0.1875 0.1875 0.0625 0.0625 0.0625 0.0625-0.125-0.125q-0.125-0.125-0.25-0.25l-0.125-0.125 0.1875 0.1875m-0.5625-2.1875v0.875-0.25q0-0.25 0-0.5v-0.25 0.125" fill="#cc9582"/>
<path d="m14.25 10.5q0-0.25 0.25-0.25t0.25 0.25-0.25 0.25-0.25-0.25" fill="#333241"/>
<path d="m17.25 10.5q0-0.25 0.25-0.5l0.25-0.25-0.1875 0.1875-0.1875 0.1875 0.125-0.125q0.125-0.125 0.21875-0.28125l0.09375-0.15625-0.046875 0.078125-0.046875 0.078125 0.26562 0.26562q0.26562 0.26562 0.26562 0.51562t-0.26562 0.51562l-0.26562 0.26562 0.04687 0.07813 0.04687 0.07813-0.09375-0.15625q-0.09374-0.15626-0.21874-0.28126l-0.125-0.125 0.1875 0.1875 0.1875 0.1875-0.25-0.25q-0.25-0.25-0.25-0.5" fill="#333241"/>
<path d="m16.75 11.5q0-0.25 0.28125-0.5l0.28125-0.25-0.03125-0.0625-0.03125-0.0625 0.0625 0.125q0.0625 0.125 0.1875 0.25l0.125 0.125-0.1875-0.1875-0.1875-0.1875 0.25 0.25q0.25 0.25 0.375 0.625l0.125 0.375-0.375 0.125-0.375 0.125 0.28125-0.09375 0.28125-0.09375-0.1875 0.0625q-0.1875 0.0625-0.34375 0.15625l-0.15625 0.09375 0.07813-0.04687 0.07813-0.04687-0.26562-0.26562q-0.26564-0.26564-0.26564-0.51564" fill="#cc9582"/>
<path d="m10 12.5-0.25-0.25 0.25-0.25q0.25-0.25 0.5 0t0.5 0.5 0.5 0.5 0.375 0.625l0.125 0.375h-1l-0.125-0.375q-0.125-0.375-0.375-0.625t-0.5-0.5m-0.3125-0.3125 0.0625 0.0625 0.1875 0.1875 0.1875 0.1875-0.125-0.125q-0.125-0.125-0.25-0.25l-0.125-0.125 0.0625 0.0625" fill="#ac7261"/>
<path d="m17 12.5q0.25-0.25 0.625-0.375l0.375-0.125-0.125 0.375q-0.125 0.375-0.375 0.625t-0.5 0.5-0.625 0.375l-0.375 0.125 0.125-0.375q0.125-0.375 0.375-0.625t0.5-0.5" fill="#ac7261"/>
<path d="m10 14.5q0.25-0.25 0.625-0.375l0.375-0.125-0.125 0.375q-0.125 0.375-0.375 0.625t-0.5 0.5-0.5 0.5-0.375 0.625-0.10938 0.85938l0.015625 0.48438 0.10938 0.015625 0.10938 0.015625-0.21875-0.03125q-0.21875-0.03125-0.40625-0.09375l-0.1875-0.0625 0.28125 0.09375 0.28125 0.09375-0.375-0.125q-0.375-0.125-0.5-0.5t0-0.75 0.375-0.625 0.5-0.5 0.5-0.5 0.5-0.5" fill="#344495"/>
<path d="m10.875 14.375 0.125-0.375h1l0.125 0.375q0.125 0.375 0.375 0.625t0.375 0.625 0.125 0.875 0 1v0.5h-1v-0.5q0-0.5-0.125-0.875t-0.375-0.375-0.375 0.375-0.125 0.875v0.5h-0.5q-0.5 0-1 0h-0.5 0.75-0.25q-0.25 0-0.46875-0.03125l-0.21875-0.03125 0.10938 0.015625 0.10938 0.015625-0.015625-0.48438q-0.015625-0.48438 0.10938-0.85938t0.375-0.625 0.5-0.5 0.5-0.5 0.375-0.625m-0.25 3.625h0.625-0.25q-0.25 0-0.5 0h-0.25 0.375m1.25 0h0.875-0.25q-0.25 0-0.5 0h-0.25 0.125m0.75 0h0.625-0.25q-0.25 0-0.5 0h-0.25 0.375m-0.5-4h-0.875 0.25q0.25 0 0.5 0h0.25-0.125" fill="#5588d4"/>
<path d="m12.125 14.375-0.125-0.375h0.5q0.5 0 0.625 0.375t0.375 0.625 0.375 0.625 0.125 0.875 0 1v0.5-0.75 0.25q0 0.25 0.125 0.375l0.125 0.125-0.0625-0.0625-0.0625-0.0625-0.5625 0.0625-0.5625 0.0625v-0.5q0-0.5 0-1t-0.125-0.875-0.375-0.625-0.375-0.625m0.75 3.625h0.875-0.25q-0.25 0-0.5 0h-0.25 0.125m-0.5-4h-0.625 0.25q0.25 0 0.5 0h0.25-0.375" fill="#1a1c51"/>
<path d="m13.125 14.375-0.125-0.375 0.09375 0.28125 0.09375 0.28125-0.0625-0.1875q-0.0625-0.1875-0.21875-0.28125l-0.15625-0.09375 0.07813 0.04687 0.07813 0.04687 0.54688-0.04687 0.54686-0.04687 0.125 0.375q0.125 0.375 0.375 0.625t0.375 0.625 0.125 0.875 0 1v0.5h-0.5q-0.5 0-0.5-0.5t0-1-0.125-0.875-0.375-0.625-0.375-0.625m1.5 3.625h0.625-0.25q-0.25 0-0.5 0h-0.25 0.375m-0.5-4h-0.875 0.25q0.25 0 0.5 0h0.25-0.125" fill="#b5b5b5"/>
<path d="m14.125 14.375-0.125-0.375h1l0.125 0.375q0.125 0.375 0.375 0.625t0.375 0.625 0.125 0.875 0 1v0.5h-1v-0.5q0-0.5 0-1t-0.125-0.875-0.375-0.625-0.375-0.625m0.75 3.625h0.875-0.25q-0.25 0-0.5 0h-0.25 0.125m0.75 0h0.625-0.25q-0.25 0-0.5 0h-0.25 0.375m-0.5-4h-0.875 0.25q0.25 0 0.5 0h0.25-0.125m-0.75 0h-0.625 0.25q0.25 0 0.5 0h0.25-0.375" fill="#808080"/>
<path d="m15.125 14.375-0.125-0.375h1l0.125 0.375q0.125 0.375 0.375 0.625t0.5 0.5 0.5 0.5 0.375 0.625 0 0.75-0.5 0.5l-0.375 0.125 0.28125-0.09375 0.28125-0.09375-0.1875 0.0625q-0.1875 0.0625-0.40625 0.09375l-0.21875 0.03125 0.10938-0.01563 0.10938-0.01563 0.01563-0.48438q0.01562-0.48436-0.10938-0.85936t-0.51562-0.48438l-0.39062-0.10938 0.015625 0.10938 0.015625 0.10938-0.03125-0.21875q-0.03125-0.21875-0.09375-0.40625l-0.0625-0.1875 0.09375 0.28125 0.09375 0.28125-0.125-0.375q-0.125-0.375-0.375-0.625t-0.375-0.625m0.25-0.375h-0.625 0.25q0.25 0 0.5 0h0.25-0.375" fill="#1a1c51"/>
<path d="m11.125 16.625q0.125-0.375 0.375-0.375t0.375 0.375l0.125 0.375-0.09375-0.28125-0.09375-0.28125 0.0625 0.1875q0.0625 0.1875 0.09375 0.40625l0.03125 0.21875-0.015625-0.10938-0.015625-0.10938h-0.9375l-0.015625 0.10938-0.015625 0.10938 0.03125-0.21875q0.03125-0.21875 0.09375-0.40625l0.0625-0.1875-0.09375 0.28125-0.09375 0.28125 0.125-0.375" fill="#344495"/>
<path d="m16 16.5v-0.5 0.75-0.25q0-0.25-0.03125-0.46875l-0.03125-0.21875 0.01563 0.10938 0.01563 0.10938 0.39062 0.10938q0.39062 0.10938 0.51562 0.48438t0.10938 0.85938l-0.01563 0.48438 0.10938-0.01563 0.10938-0.01563-0.21875 0.03125q-0.21874 0.03126-0.46874 0.03126h-0.25 0.75-1v-0.5q0-0.5 0-1m-0.125 1.5h0.875-0.25q-0.25 0-0.5 0h-0.25 0.125" fill="#344495"/>
<path d="m11 17.5v-0.5 0.75-0.25q0-0.25 0.03125-0.46875l0.03125-0.21875-0.01563 0.10938-0.01563 0.10938h0.93751l-0.015625-0.10938-0.015625-0.10938 0.03125 0.21875q0.03125 0.21875 0.03125 0.46875v0.25-0.75 1h-1v-0.5m-0.125 0.5h0.875-0.25q-0.25 0-0.5 0h-0.25 0.125m0.75 0h0.625-0.25q-0.25 0-0.5 0h-0.25 0.375" fill="#1a1c51"/>
</g>
<g transform="translate(11.983 137.01)">
<path d="m11 4.5q0.25-0.25 0.625-0.375t0.875-0.125h0.5l-0.125 0.375q-0.125 0.375-0.5 0.5t-0.75 0.25-0.625 0.375-0.5 0.5-0.375 0.625-0.125 0.875 0 1v0.5h-1v-0.5q0-0.5 0-1t0.125-0.875 0.375-0.625 0.35938-0.64062l0.10938-0.39062-0.10938 0.015625-0.10938 0.015625 0.21875-0.03125q0.21875-0.03125 0.40625-0.09375l0.1875-0.0625-0.28125 0.09375-0.28125 0.09375 0.375-0.125q0.375-0.125 0.625-0.375m-2 4.125v0.625-0.25q0-0.25 0-0.5v-0.25 0.375m1 0.5v-0.875 0.25q0 0.25 0 0.5v0.25-0.125m3.125-5.125h-0.875 0.25q0.25 0 0.5 0h0.25-0.125" fill="#d78205"/>
<path d="m12.875 4.375 0.125-0.375h0.5q0.5 0 1 0h0.5l-0.125 0.375q-0.125 0.375-0.375 0.625t-0.25 0.5 0.25 0.5 0.39062 0.60938l0.14062 0.35938 0.10938 0.015625 0.10938 0.015625-0.21875-0.03125q-0.21875-0.03125-0.40625-0.09375l-0.1875-0.0625 0.28125 0.09375 0.28125 0.09375-0.375-0.125q-0.375-0.125-0.625-0.375t-0.625-0.375-0.75 0-0.375 0.375 0.375 0.375l0.375 0.125v1l0.125 0.375q0.125 0.375 0.375 0.375t0.375-0.375l0.125-0.375-0.09375 0.28125-0.09375 0.28125 0.0625-0.1875q0.0625-0.1875 0.0625-0.375v-0.1875 0.1875h0.53125q0.53125 0 0.90625-0.125t0.5-0.5l0.125-0.375h1l0.125 0.375q0.125 0.375 0.5 0.5l0.375 0.125v1-0.75 0.25q0 0.25 0.125 0.375l0.125 0.125-0.0625-0.0625-0.0625-0.0625-0.4375 0.1875q-0.4375 0.1875-0.6875 0.4375t-0.5 0.5-0.25 0.5 0.25 0.25 0.5-0.25 0.5-0.25 0.375 0.375 0 0.75-0.5 0.5-0.875 0.125-1 0h-0.5l-0.125-0.375q-0.125-0.375-0.5-0.5t-0.75 0-0.375 0.375 0.375 0.375l0.375 0.125-0.28125-0.09375-0.28125-0.09375 0.1875 0.0625q0.1875 0.0625 0.40625 0.09375l0.21875 0.03125-0.10938-0.015625-0.10938-0.015625-0.14062 0.39062q-0.14062 0.39062-0.51562 0.51562l-0.375 0.125-0.125-0.375q-0.125-0.375-0.375-0.625t-0.5-0.5-0.5-0.5-0.25-0.5 0.25-0.5 0.25-0.5-0.25-0.25-0.5 0.25-0.60938 0.35938l-0.35938 0.10938 0.015625 0.10938 0.015625 0.10938-0.03125-0.21875q-0.03125-0.21875-0.03125-0.46875v-0.25 0.75-0.5q0-0.5 0-1t0-1 0.125-0.875 0.375-0.625 0.5-0.5 0.625-0.375 0.75-0.25 0.5-0.5m5.125 4v-0.625 0.25q0 0.25 0 0.5v0.25-0.375m-1.625-1.375h-0.625 0.25q0.25 0 0.5 0h0.25-0.375m-1.25-3h-0.875 0.25q0.25 0 0.5 0h0.25-0.125m-1.75 0h-0.625 0.25q0.25 0 0.5 0h0.25-0.375" fill="#febc23"/>
<path d="m14.875 4.375 0.125-0.375h1-0.75 0.25q0.25 0 0.46875 0.03125l0.21875 0.03125-0.10938-0.015625-0.10938-0.015625 0.14062 0.35938q0.14062 0.35938 0.39062 0.60938t0.375 0.625 0.125 0.875v0.5h-0.5q-0.5 0-1 0h-0.5 0.75-0.25q-0.25 0-0.46875-0.03125l-0.21875-0.03125 0.10938 0.015625 0.10938 0.015625-0.14062-0.35938q-0.14062-0.35938-0.39062-0.60938t-0.25-0.5 0.25-0.5 0.375-0.625m0.5-0.375h-0.625 0.25q0.25 0 0.5 0h0.25-0.375" fill="#ffdc3c"/>
<path d="m16.109 4.3906-0.14062-0.35938-0.10938-0.015625-0.10938-0.015625 0.21875 0.03125q0.21875 0.03125 0.40625 0.09375l0.1875 0.0625-0.28125-0.09375-0.28125-0.09375 0.375 0.125q0.375 0.125 0.625 0.375t0.625 0.375 0.375 0.625v0.5l-0.51562 0.015625-0.51562 0.015625 0.015625 0.10938 0.015625 0.10938-0.03125-0.21875q-0.03125-0.21875-0.09375-0.40625l-0.0625-0.1875 0.09375 0.28125 0.09375 0.28125-0.125-0.375q-0.125-0.375-0.375-0.625t-0.39062-0.60938m1.8906 1.7344v-0.875 0.25q0 0.25 0 0.5v0.25-0.125" fill="#febc23"/>
<path d="m7 5.5q0.25-0.25 0.625-0.375t0.875-0.125 1 0h0.5-0.75 0.25q0.25 0 0.46875-0.03125l0.21875-0.03125-0.10938 0.015625-0.10938 0.015625-0.10938 0.39062q-0.10938 0.39062-0.35938 0.64062l-0.25 0.25 0.1875-0.1875 0.1875-0.1875-0.125 0.125q-0.125 0.125-0.21875 0.28125l-0.09375 0.15625 0.046875-0.078125 0.046875-0.078125-0.26562-0.26562q-0.26562-0.26562-0.64062-0.14062t-0.75 0.25-0.5 0.5-0.125 0.875 0 1 0 1 0 1 0 1 0 1 0 1 0 1-0.125 0.875 0.14062 0.64062l0.26562 0.26562 0.046875-0.078125 0.046875-0.078125-0.09375 0.15625q-0.09375 0.15625-0.15625 0.34375l-0.0625 0.1875 0.09375-0.28125 0.09375-0.28125-0.125 0.375q-0.125 0.375 0 0.75t0.5 0.5 0.875 0.125 1 0 1 0 1 0h0.5l0.375-0.125 0.375-0.125-0.28125 0.09375-0.28125 0.09375 0.1875-0.0625q0.1875-0.0625 0.34375-0.15625l0.15625-0.09375-0.07813 0.04687-0.07813 0.04687 0.26562 0.26562q0.26564 0.26564 0.51564 0.26564t0.51562-0.26562l0.26562-0.26562-0.078125-0.046875-0.078125-0.046875 0.15625 0.09375q0.15625 0.09375 0.34375 0.15625l0.1875 0.0625-0.28125-0.09375-0.28125-0.09375 0.375 0.125q0.375 0.125 0.875 0.125h1.5l0.375-0.125 0.375-0.125-0.28125 0.09375-0.28125 0.09375 0.1875-0.0625q0.1875-0.0625 0.34375-0.15625l0.15625-0.09375-0.07813 0.04687-0.07813 0.04687 0.26562 0.26562q0.26564 0.26564 0.64064 0.14064l0.375-0.125 0.375-0.125q0.375-0.125 0.5-0.5t0.125-0.875 0-1 0-1 0-1 0.125-0.875-0.14062-0.64062l-0.26562-0.26562-0.046875 0.078125-0.046875 0.078125 0.09375-0.15625q0.09375-0.15625 0.15625-0.34375l0.0625-0.1875-0.09375 0.28125-0.09375 0.28125 0.125-0.375q0.125-0.375 0.125-0.875t-0.125-0.875l-0.125-0.375 0.09375 0.28125 0.09375 0.28125-0.0625-0.1875q-0.0625-0.1875-0.1875-0.3125l-0.125-0.125 0.0625 0.0625 0.0625 0.0625 0.28125-0.28125q0.28125-0.28125 0.15625-0.65625t-0.125-0.875-0.125-0.875-0.5-0.5-0.875-0.125h-0.5v-1 0.75-0.25q0-0.25-0.09375-0.40625l-0.09375-0.15625 0.046875 0.078125 0.046875 0.078125 0.54688-0.046875q0.54688-0.046875 0.92188 0.078125t0.625 0.375 0.5 0.5 0.375 0.625 0.125 0.875 0 1 0 1 0 1 0 1 0 1 0 1 0 1 0 1 0 1-0.125 0.875-0.375 0.625-0.5 0.5-0.625 0.375-0.875 0.125-1 0-1 0-1 0-1 0-1 0-1 0-1 0-1 0-1 0-1 0-0.875-0.125-0.625-0.375-0.5-0.5-0.375-0.625-0.125-0.875 0-1 0-1 0-1 0-1 0-1 0-1 0-1 0-1 0-1 0.125-0.875 0.375-0.625 0.5-0.5"/>
<path d="m7.125 6.625q0.125-0.375 0.5-0.5t0.75-0.25 0.64062 0.14062l0.26562 0.26562 0.046875-0.078125 0.046875-0.078125-0.09375 0.15625q-0.09375 0.15625-0.15625 0.34375l-0.0625 0.1875 0.09375-0.28125 0.09375-0.28125-0.125 0.375q-0.125 0.375-0.125 0.875t0 1 0 1 0.125 0.875 0.375 0.625 0.5 0.5 0.5 0.5 0.375 0.625l0.125 0.375-0.375 0.125q-0.375 0.125-0.625 0.375t-0.5 0.5-0.5 0.5-0.5 0.5-0.5 0.5-0.5 0.5l-0.25 0.25 0.1875-0.1875 0.1875-0.1875-0.125 0.125q-0.125 0.125-0.21875 0.28125l-0.09375 0.15625 0.046875-0.078125 0.046875-0.078125-0.26562-0.26562q-0.26562-0.26562-0.14062-0.64062t0.125-0.875 0-1 0-1 0-1 0-1 0-1 0-1 0-1 0.125-0.875m3.5938 6.4688 0.28125-0.09375 0.09375-0.03125 0.09375-0.03125-0.1875 0.0625q-0.1875 0.0625-0.375 0.125l-0.1875 0.0625 0.28125-0.09375" fill="#262626"/>
<path d="m12.25 6.5q0-0.25 0.375-0.375l0.375-0.125-0.28125 0.09375-0.28125 0.09375 0.1875-0.0625q0.1875-0.0625 0.375-0.0625h0.1875-0.1875v0.9375l-0.375-0.125q-0.375-0.125-0.375-0.375" fill="#a55a05"/>
<path d="m13 6.5312v-0.46875h-0.1875 0.1875q0.1875 0 0.375 0.0625l0.1875 0.0625-0.28125-0.09375-0.28125-0.09375 0.375 0.125q0.375 0.125 0.625 0.375t0.625 0.375 0.875 0.125h0.5l-0.125 0.375q-0.125 0.375-0.5 0.5t-0.90625 0.125h-0.53125v0.1875-0.1875q0-0.1875-0.0625-0.375l-0.0625-0.1875 0.09375 0.28125 0.09375 0.28125-0.125-0.375q-0.125-0.375-0.5-0.5l-0.375-0.125v-0.46875m3.125 0.46875h-0.875 0.25q0.25 0 0.5 0h0.25-0.125" fill="#d78205"/>
<path d="m17 6.5v-0.5 0.75-0.25q0-0.25-0.03125-0.46875l-0.03125-0.21875 0.015625 0.10938 0.015625 0.10938 0.51562-0.015625 0.51562-0.015625v1h-1v-0.5m1 0.625v-0.875 0.25q0 0.25 0 0.5v0.25-0.125m0-0.75v-0.625 0.25q0 0.25 0 0.5v0.25-0.375" fill="#a55a05"/>
<path d="m18 6.5v-0.5h0.5q0.5 0 0.875 0.125t0.5 0.5 0.125 0.875 0.125 0.875-0.15625 0.65625l-0.28125 0.28125 0.0625 0.0625 0.0625 0.0625-0.125-0.125q-0.125-0.125-0.3125-0.1875l-0.1875-0.0625 0.28125 0.09375 0.28125 0.09375-0.375-0.125q-0.375-0.125-0.875-0.125t-0.5-0.5 0-1 0-1" fill="#262626"/>
<path d="m13 7.5v-0.5l0.375 0.125q0.375 0.125 0.5 0.5l0.125 0.375h-1v-0.5" fill="#343442"/>
<path d="m17.125 7.375-0.125-0.375h1v1l-0.375-0.125q-0.375-0.125-0.5-0.5m0.875 0.75v-0.875 0.25q0 0.25 0 0.5v0.25-0.125m0-0.75v-0.625 0.25q0 0.25 0 0.5v0.25-0.375" fill="#d78205"/>
<path d="m13.125 8.375-0.125-0.375h1l-0.125 0.375q-0.125 0.375-0.375 0.375t-0.375-0.375" fill="#1c1c1c"/>
<path d="m9 9.5v-0.5h1v0.5q0 0.5 0.125 0.875t0.375 0.625 0.5 0.5 0.5 0.5 0.25 0.5-0.375 0.375l-0.375 0.125-0.125-0.375q-0.125-0.375-0.375-0.625t-0.5-0.5-0.5-0.5-0.375-0.625-0.125-0.875m1.9062 3.5312 0.09375-0.03125 0.28125-0.09375 0.28125-0.09375-0.1875 0.0625q-0.1875 0.0625-0.375 0.125l-0.1875 0.0625 0.09375-0.03125m-0.90625-3.6562v-0.625 0.25q0 0.25 0 0.5v0.25-0.375m-1-0.5v0.875-0.25q0-0.25 0-0.5v-0.25 0.125" fill="#a55a05"/>
<path d="m11 9.5q0.25-0.25 0.5-0.25t0.25 0.25-0.25 0.5-0.25 0.5 0.25 0.5 0.5 0.5 0.5 0.5 0.375 0.625l0.125 0.375-0.375 0.125q-0.375 0.125-0.51562 0.51562l-0.14062 0.39062 0.10938 0.01563 0.10938 0.01563-0.21875-0.03125q-0.21875-0.03126-0.46875-0.03126h-0.25 0.75-0.5q-0.5 0-0.875 0.125t-0.625 0.375-0.5 0.5-0.5 0.5-0.5 0.5-0.375 0.625-0.10938 0.85938l0.015625 0.48438 0.10938 0.015625 0.10938 0.015625-0.21875-0.03125q-0.21875-0.03125-0.40625-0.09375l-0.1875-0.0625 0.28125 0.09375 0.28125 0.09375-0.375-0.125q-0.375-0.125-0.5-0.5t0-0.75 0.375-0.625 0.5-0.5 0.5-0.5 0.5-0.5 0.5-0.5 0.5-0.5 0.625-0.375 0.75-0.25 0.375-0.375-0.25-0.5-0.5-0.5-0.5-0.5-0.375-0.625l-0.125-0.375 0.09375 0.28125 0.09375 0.28125-0.0625-0.1875q-0.0625-0.1875-0.09375-0.40625l-0.03125-0.21875 0.015625 0.10938 0.015625 0.10938 0.35938-0.10938q0.35938-0.10938 0.60938-0.35938" fill="#d78205"/>
<path d="m17 9.5q0.25-0.25 0.6875-0.4375l0.4375-0.1875-0.0625-0.0625-0.0625-0.0625 0.125 0.125q0.125 0.125 0.375 0.125h0.25-0.75 1-0.75 0.25q0.25 0 0.46875 0.03125l0.21875 0.03125-0.10938-0.015625-0.10938-0.015625 0.015625 0.48438q0.015625 0.48438 0.015625 0.98438t-0.125 0.875-0.375 0.625-0.39062 0.60938l-0.14062 0.35938 0.10938-0.015625 0.10938-0.015625-0.21875 0.03125q-0.21875 0.03125-0.46875 0.03125h-0.25 0.75-2l-0.375-0.125q-0.375-0.125-0.5-0.5l-0.125-0.375h0.5q0.5 0 1 0t0.875-0.125 0.5-0.5 0-0.75-0.375-0.375-0.5 0.25-0.5 0.25-0.25-0.25 0.25-0.5 0.5-0.5" fill="#d78205"/>
<path d="M 18.984375,9.515625 18.96875,9.03125 18.859375,9.015625 18.75,9 18.96875,9.03125 Q 19.1875,9.0625 19.375,9.125 L 19.5625,9.1875 19.28125,9.09375 19,9 19.375,9.125 q 0.375,0.125 0.5,0.5 L 20,10 19.90625,9.71875 19.8125,9.4375 19.875,9.625 q 0.0625,0.1875 0.09375,0.40625 L 20,10.25 19.984375,10.140625 19.96875,10.03125 19.484375,10.015625 19,10 18.984375,9.515625 M 19,9.625 V 10 10.125 10.25 10 Q 19,9.75 19,9.5 V 9.25 9.625" fill="#484c5f"/>
<path d="m19 10.5v-0.5l0.48438 0.01563 0.48438 0.01563-0.015625-0.10938-0.015625-0.10938 0.03125 0.21875q0.03125 0.21875 0.03125 0.46875v0.25-0.75 0.5q0 0.5-0.125 0.875t-0.375 0.625-0.5 0.5-0.625 0.375l-0.375 0.125 0.28125-0.09375 0.28125-0.09375-0.1875 0.0625q-0.1875 0.0625-0.40625 0.09375l-0.21875 0.03125 0.10938-0.01563 0.10938-0.01563 0.14062-0.35938q0.14062-0.35936 0.39062-0.60936t0.375-0.625 0.125-0.875m0-0.625v0.875-0.25q0-0.25 0-0.5v-0.25 0.125" fill="#a55a05"/>
<path d="m13.25 11.5q0-0.25 0.375-0.375t0.75 0 0.5 0.5l0.125 0.375h-0.5q-0.5 0-0.875-0.125t-0.375-0.375" fill="#a55a05"/>
<path d="m13.891 12.359 0.14062-0.39062-0.10938-0.015625-0.10938-0.015625 0.21875 0.03125q0.21875 0.03125 0.46875 0.03125h0.25-0.75 1l0.125 0.375 0.125 0.375-0.09375-0.28125-0.09375-0.28125 0.0625 0.1875q0.0625 0.1875 0.1875 0.3125l0.125 0.125-0.0625-0.0625-0.0625-0.0625-0.28125 0.3125-0.28125 0.3125 0.0625 0.03125 0.0625 0.03125-0.125-0.0625q-0.125-0.0625-0.25-0.0625h-0.125 0.375-0.25q-0.25 0-0.375 0.375l-0.125 0.375 0.09375-0.28125 0.09375-0.28125-0.0625 0.1875q-0.0625 0.1875-0.0625 0.375v0.1875-0.1875l-0.40625-0.125q-0.40625-0.125-0.53125-0.5l-0.125-0.375 0.375-0.125q0.375-0.125 0.51562-0.51562" fill="#979797"/>
<path d="m19 12.5q0.25-0.25 0.5-0.5l0.25-0.25-0.1875 0.1875-0.1875 0.1875 0.125-0.125q0.125-0.125 0.21875-0.28125l0.09375-0.15625-0.04687 0.07813-0.04687 0.07813 0.26562 0.26562q0.26562 0.26562 0.14062 0.64062t-0.125 0.875 0 1 0 1 0 1-0.125 0.875-0.5 0.5l-0.375 0.125v-0.5q0-0.5 0.125-0.875t-0.14062-0.67188l-0.26562-0.29688-0.046875 0.046875-0.046875 0.046875 0.09375-0.09375q0.09375-0.09375 0.15625-0.28125l0.0625-0.1875-0.09375 0.28125-0.09375 0.28125 0.125-0.375q0.125-0.375-0.25-0.25l-0.375 0.125 0.28125-0.09375 0.28125-0.09375-0.1875 0.0625q-0.1875 0.0625-0.28125 0.15625l-0.09375 0.09375 0.04687-0.04687 0.04687-0.04687-0.29688-0.26562q-0.29686-0.26564-0.54686-0.26564t-0.375-0.375l-0.125-0.375v-1h0.5q0.5 0 0.875-0.125t0.625-0.375" fill="#262626"/>
<path d="m12.109 13.641q0.14062-0.39062 0.51562-0.51562l0.375-0.125 0.125 0.375q0.125 0.375 0.53125 0.5l0.40625 0.125v-0.1875 0.1875q0 0.1875 0.0625 0.375l0.0625 0.1875-0.09375-0.28125-0.09375-0.28125 0.125 0.375q0.125 0.375 0.5 0.5t0.75 0l0.375-0.125-0.28125 0.09375-0.28125 0.09375 0.1875-0.0625q0.1875-0.0625 0.3125-0.1875l0.125-0.125-0.0625 0.0625-0.0625 0.0625 0.28125 0.28125q0.28125 0.28125 0.53125 0.28125t0.5 0.25 0.5 0.5 0.25 0.5-0.375 0.375-0.375 0.625v0.5h-1v-0.5q0-0.5-0.5-0.5t-0.875-0.125-0.625 0.15625l-0.25 0.28125 0.0625 0.03125 0.0625 0.03125-0.125-0.0625q-0.125-0.0625-0.25-0.0625h-0.125 0.375-0.5 0.375-0.125q-0.125 0-0.25 0.0625l-0.125 0.0625 0.0625-0.03125 0.0625-0.03125-0.28125-0.3125-0.28125-0.3125-0.0625 0.0625-0.0625 0.0625 0.125-0.125q0.125-0.125 0.1875-0.3125l0.0625-0.1875-0.09375 0.28125-0.09375 0.28125 0.125-0.375q0.125-0.375 0.125-0.875t-0.125-0.875-0.5-0.5l-0.375-0.125 0.28125 0.09375 0.28125 0.09375-0.1875-0.0625q-0.1875-0.0625-0.40625-0.09375l-0.21875-0.03125 0.10938 0.01563 0.10938 0.01563 0.14062-0.39062" fill="#555"/>
<path d="m14.125 13.625q0.125-0.375 0.375-0.375t0.5 0.25 0.625 0.375 0.25 0.5-0.5 0.5-0.75 0-0.5-0.5 0-0.75" fill="#e6e6e6"/>
<path d="m15 13.5-0.25-0.25 0.1875 0.1875 0.1875 0.1875-0.125-0.125q-0.125-0.125-0.25-0.1875l-0.125-0.0625 0.0625 0.03125 0.0625 0.03125 0.28125-0.3125 0.28125-0.3125-0.0625-0.0625-0.0625-0.0625 0.125 0.125q0.125 0.125 0.3125 0.1875l0.1875 0.0625-0.28125-0.09375-0.28125-0.09375 0.375 0.125 0.375 0.125-0.04687 0.54688-0.04687 0.54688 0.04687 0.07813 0.04687 0.07812-0.09375-0.15625q-0.09375-0.15625-0.28125-0.21875l-0.1875-0.0625 0.28125 0.09375 0.28125 0.09375-0.375-0.125q-0.375-0.125-0.625-0.375" fill="#6f6f6f"/>
<path d="m15.953 13.547 0.046875-0.54688h1v1l-0.54688 0.04687-0.54688 0.04687 0.04687-0.54688" fill="#505050"/>
<path d="m10 14.5q0.25-0.25 0.625-0.375t0.875-0.125 0.875 0.125 0.5 0.5l0.125 0.375-0.09375-0.28125-0.09375-0.28125 0.0625 0.1875q0.0625 0.1875 0.09375 0.40625l0.03125 0.21875-0.015625-0.10938-0.015625-0.10938-0.35938 0.10938q-0.35938 0.10938-0.46875 0.5l-0.10938 0.39062 0.10938-0.015625 0.10938-0.015625-0.21875 0.03125q-0.21875 0.03125-0.40625 0.09375l-0.1875 0.0625 0.28125-0.09375 0.28125-0.09375-0.375 0.125q-0.375 0.125-0.625 0.375t-0.5 0.5-0.375 0.625l-0.125 0.375h-0.5q-0.5 0-1 0h-0.5 0.75-0.25q-0.25 0-0.46875-0.03125l-0.21875-0.03125 0.10938 0.015625 0.10938 0.015625-0.015625-0.48438q-0.015625-0.48438 0.10938-0.85938t0.375-0.625 0.5-0.5 0.5-0.5 0.5-0.5m-0.375 3.5h0.625-0.25q-0.25 0-0.5 0h-0.25 0.375" fill="#febc23"/>
<path d="m15.875 14.375 0.125-0.375v0.75-0.25q0-0.25-0.09375-0.40625l-0.09375-0.15625 0.04687 0.07813 0.04687 0.07813 0.54688-0.04687 0.54688-0.04689 0.125 0.375 0.125 0.375-0.09375-0.28125-0.09375-0.28125 0.0625 0.1875q0.0625 0.1875 0.15625 0.28125l0.09375 0.09375-0.046875-0.046875-0.046875-0.046875-0.26562 0.32812-0.26562 0.32812 0.0625 0.03125 0.0625 0.03125-0.125-0.0625q-0.125-0.0625-0.25-0.0625h-0.125 0.375-0.25q-0.25 0-0.53125-0.28125l-0.28125-0.28125-0.0625 0.0625-0.0625 0.0625 0.125-0.125q0.125-0.125 0.1875-0.3125l0.0625-0.1875-0.09375 0.28125-0.09375 0.28125 0.125-0.375" fill="#383838"/>
<path d="m12.141 15.641q0.10938-0.39062 0.46875-0.5l0.35938-0.10938-0.015625-0.10938-0.015625-0.10938 0.03125 0.21875q0.03125 0.21875 0.03125 0.46875v0.25-0.75 1-0.75 0.25q0 0.25-0.03125 0.46875l-0.03125 0.21875 0.01563-0.10938 0.01563-0.10938-0.48438 0.01563-0.48438 0.01562h0.75-0.25q-0.25 0-0.46875 0.03125l-0.21875 0.03125 0.10938-0.01563 0.10938-0.01563 0.10938-0.39062" fill="#d78205"/>
<path d="m17 15.5-0.25-0.25 0.1875 0.1875 0.1875 0.1875-0.125-0.125q-0.125-0.125-0.25-0.1875l-0.125-0.0625 0.0625 0.03125 0.0625 0.03125 0.26562-0.32812 0.26562-0.32812-0.04687-0.04687-0.04687-0.04687 0.09375 0.09375q0.09374 0.09374 0.21874 0.09374h0.125-0.375 0.25q0.25 0 0.54688 0.26562l0.29688 0.26562 0.04687-0.04687 0.04687-0.04687-0.09375 0.09375q-0.09374 0.09374-0.09374 0.21874v0.125-0.375 0.25q0 0.25 0.25 0.25h0.25-0.375 0.125q0.125 0 0.21875-0.09375l0.09375-0.09375-0.04687 0.04687-0.04687 0.04687 0.26562 0.29688q0.26562 0.29688 0.14062 0.67188t-0.125 0.875v0.5l-0.375 0.125q-0.375 0.125-0.64062-0.14062l-0.26562-0.26562-0.07813 0.04687-0.07813 0.04687 0.15625-0.09375q0.15626-0.09374 0.28126-0.21874l0.125-0.125-0.1875 0.1875-0.1875 0.1875 0.25-0.25q0.25-0.25-0.04687-0.51562l-0.29688-0.26562-0.04687 0.04687-0.04687 0.04687 0.09375-0.09375q0.093735-0.09374 0.093735-0.21874v-0.125 0.375-0.25q0-0.25-0.25-0.5t-0.5-0.5" fill="#151515"/>
<path d="m18.25 15.5q0-0.25 0.375-0.375t0.25 0.25-0.375 0.375-0.25-0.25" fill="#505050"/>
<path d="m11 16.5q0.25-0.25 0.625-0.375t0.85938-0.14062l0.48438-0.015625 0.015625-0.10938 0.015625-0.10938-0.03125 0.21875q-0.03125 0.21875-0.09375 0.40625l-0.0625 0.1875 0.09375-0.28125 0.09375-0.28125-0.125 0.375q-0.125 0.375-0.5 0.5l-0.375 0.125-0.375 0.125q-0.375 0.125-0.5 0.5l-0.125 0.375h-1l0.125-0.375q0.125-0.375 0.375-0.625t0.5-0.5m-1.125 1.5h0.875-0.25q-0.25 0-0.5 0h-0.25 0.125m0.75 0h0.625-0.25q-0.25 0-0.5 0h-0.25 0.375" fill="#a55a05"/>
<path d="m11.125 17.625q0.125-0.375 0.5-0.5l0.375-0.125v1h-1l0.125-0.375m-0.25 0.375h0.875-0.25q-0.25 0-0.5 0h-0.25 0.125" fill="#505050"/>
<path d="m12 17.5v-0.5l0.375-0.125 0.375-0.125-0.28125 0.09375-0.28125 0.09375 0.1875-0.0625q0.1875-0.0625 0.3125-0.1875l0.125-0.125-0.0625 0.0625-0.0625 0.0625 0.28125 0.3125 0.28125 0.3125 0.0625-0.03125 0.0625-0.03125-0.125 0.0625q-0.125 0.0625-0.25 0.1875l-0.125 0.125 0.1875-0.1875 0.1875-0.1875-0.25 0.25q-0.25 0.25-0.625 0.375l-0.375 0.125v-0.5" fill="#383838"/>
<path d="m13 17.5q0.25-0.25 0.5-0.25t0.5 0.25l0.25 0.25-0.1875-0.1875-0.1875-0.1875 0.125 0.125q0.125 0.125 0.28125 0.21875l0.15625 0.09375-0.07813-0.04687-0.07813-0.04687-0.26562 0.26562q-0.26562 0.26562-0.51562 0.26562t-0.51562-0.26562l-0.26562-0.26562-0.07813 0.04687-0.07813 0.04687 0.15625-0.09375q0.15626-0.09374 0.28126-0.21874l0.125-0.125-0.1875 0.1875-0.1875 0.1875 0.25-0.25" fill="#151515"/>
<path d="m14 17.5-0.25-0.25 0.1875 0.1875 0.1875 0.1875-0.125-0.125q-0.125-0.125-0.25-0.1875l-0.125-0.0625 0.0625 0.03125 0.0625 0.03125 0.25-0.28125q0.25-0.28125 0.625-0.15625t0.875 0.125 0.5 0.5v0.5h-0.5q-0.5 0-0.875-0.125t-0.625-0.375" fill="#383838"/>
<path d="m17 17.5q0-0.5 0.375-0.625l0.375-0.125-0.28125 0.09375-0.28125 0.09375 0.1875-0.0625q0.1875-0.0625 0.28125-0.15625l0.09375-0.09375-0.04687 0.04687-0.04687 0.04687 0.29688 0.26562q0.29686 0.26564 0.046865 0.51564t-0.625 0.375l-0.375 0.125v-0.5" fill="#383838"/>
</g>
<g transform="translate(26.263 137.26)">
<path d="m8 3.5v-0.5h0.5q0.5 0 1 0t1 0 1 0 1 0h0.5l0.125 0.375q0.125 0.375 0.5 0.5t0.875 0.125 0.875 0.125 0.625 0.375 0.625 0.375l0.375 0.125-0.28125-0.09375-0.28125-0.09375 0.1875 0.0625q0.1875 0.0625 0.40625 0.09375l0.21875 0.03125-0.10938-0.015625-0.10938-0.015625 0.10938 0.39062q0.10938 0.39062 0.35938 0.64062t0.375 0.625 0.125 0.875v0.5l-0.375 0.125q-0.375 0.125-0.5 0.5t-0.125 0.875v0.5h-0.5q-0.5 0-0.875 0.125t-0.5 0.5-0.125 0.875v0.5h-0.5q-0.5 0-1 0t-1 0-1 0h-0.5l-0.125-0.375q-0.125-0.375-0.375-0.625t-0.375-0.625-0.125-0.875-0.125-0.875-0.375-0.625-0.375-0.625-0.25-0.75-0.5-0.5l-0.375-0.125v-0.5q0-0.5 0-1t0-1m0 2.125v0.625-0.25q0-0.25 0-0.5v-0.25 0.375m5.625 4.25q0.375 0.125 0.75 0t0.5-0.5 0-0.75-0.5-0.5-0.75 0-0.5 0.5 0 0.75 0.5 0.5m1 2.125h0.625-0.25q-0.25 0-0.5 0h-0.25 0.375m0.875-5q0.5 0 0.875-0.125t0.375-0.375-0.25-0.5-0.5-0.5-0.625-0.375-0.875-0.125-0.875-0.125-0.625-0.375-0.625-0.375-0.75 0-0.625 0.375-0.5 0.25-0.5-0.25-0.5-0.25-0.25 0.25 0.25 0.5 0.5 0.5 0.5 0.5 0.5 0.5 0.625 0.375 0.875 0.125 1 0 1 0 1 0m2.5 1.125v-0.875 0.25q0 0.25 0 0.5v0.25-0.125m-4.875-5.125h-0.875 0.25q0.25 0 0.5 0h0.25-0.125m-4.75 0h-0.625 0.25q0.25 0 0.5 0h0.25-0.375" fill="#cd5061"/>
<path d="m9.25 4.5q0-0.25 0.25-0.25t0.5 0.25 0.5 0.25 0.5-0.25 0.625-0.375 0.75 0 0.625 0.375 0.625 0.375 0.875 0.125 0.875 0.125 0.625 0.375 0.5 0.5 0.25 0.5-0.375 0.375-0.875 0.125-1 0-1 0-1 0-0.875-0.125-0.625-0.375-0.5-0.5-0.5-0.5-0.5-0.5-0.25-0.5m2 1q0 0.25 0.25 0.25t0.25-0.25-0.25-0.25-0.25 0.25" fill="#f0608b"/>
<path d="m7 5.5q0.25-0.25 0.625-0.375l0.375-0.125v1l-0.375 0.125q-0.375 0.125-0.5 0.5t-0.125 0.875 0 1 0 1 0 1 0 1 0 1 0 1 0 1 0 1-0.125 0.875 0.15625 0.625l0.28125 0.25 0.03125-0.0625 0.03125-0.0625-0.0625 0.125q-0.0625 0.125-0.0625 0.25v0.125-0.375 0.25q0 0.25 0.375 0.375t0.875 0.125 1 0 1 0 1 0 1 0 1 0 1 0 1 0 1 0 1 0 0.875-0.125l0.375-0.125-0.28125 0.09375-0.28125 0.09375 0.1875-0.0625q0.1875-0.0625 0.28125-0.15625l0.09375-0.09375-0.04687 0.04687-0.04687 0.04687 0.29688 0.26562q0.29686 0.26564 0.54686 0.015635t0.375-0.625 0.125-0.875 0-1 0-1 0-1 0-1 0-1 0-1 0-1 0-1 0-1-0.125-0.875-0.5-0.5-0.75-0.25-0.64062 0.14062l-0.26562 0.26562 0.046875 0.078125 0.046875 0.078125-0.09375-0.15625q-0.09375-0.15625-0.21875-0.28125l-0.125-0.125 0.1875 0.1875 0.1875 0.1875-0.25-0.25q-0.25-0.25-0.35938-0.64062l-0.10938-0.39062-0.10938-0.015625-0.10938-0.015625 0.21875 0.03125q0.21875 0.03125 0.46875 0.03125h0.25-0.75 0.5q0.5 0 1 0t0.875 0.125 0.625 0.375 0.5 0.5 0.375 0.625 0.125 0.875 0 1 0 1 0 1 0 1 0 1 0 1 0 1 0 1 0 1-0.125 0.875-0.375 0.625-0.5 0.5-0.625 0.375-0.875 0.125-1 0-1 0-1 0-1 0-1 0-1 0-1 0-1 0-1 0-1 0-0.875-0.125-0.625-0.375-0.5-0.5-0.375-0.625-0.125-0.875 0-1 0-1 0-1 0-1 0-1 0-1 0-1 0-1 0-1 0.125-0.875 0.375-0.625 0.5-0.5m1-0.125v-0.625 0.25q0 0.25 0 0.5v0.25-0.375"/>
<path d="m11.25 5.5q0-0.25 0.25-0.25t0.25 0.25-0.25 0.25-0.25-0.25" fill="#cd5061"/>
<path d="m7.125 6.625q0.125-0.375 0.5-0.5l0.375-0.125v0.5q0 0.5 0.125 0.875t0.375 0.625 0.375 0.625 0.125 0.875 0.125 0.875 0.375 0.625 0.5 0.5 0.625 0.375l0.375 0.125v1l-0.375 0.125q-0.375 0.125-0.625 0.375t-0.5 0.5-0.5 0.5-0.5 0.5-0.375 0.625-0.25 0.75-0.375 0.625l-0.25 0.25 0.1875-0.1875 0.1875-0.1875-0.125 0.125q-0.125 0.125-0.1875 0.25l-0.0625 0.125 0.03125-0.0625 0.03125-0.0625-0.28125-0.25q-0.28125-0.25-0.15625-0.625t0.125-0.875 0-1 0-1 0-1 0-1 0-1 0-1 0-1 0-1 0.125-0.875" fill="#262626"/>
<path d="m8 6.5v-0.5l0.375 0.125q0.375 0.125 0.5 0.5t0.25 0.75 0.375 0.625 0.375 0.625 0.125 0.875 0.125 0.875 0.375 0.625 0.375 0.625l0.125 0.375-0.375-0.125q-0.375-0.125-0.625-0.375t-0.5-0.5-0.375-0.625-0.125-0.875-0.125-0.875-0.375-0.625-0.375-0.625-0.125-0.875m0-0.625v0.875-0.25q0-0.25 0-0.5v-0.25 0.125" fill="#95484c"/>
<path d="m17.875 6.625-0.125-0.375 0.09375 0.28125 0.09375 0.28125-0.0625-0.1875q-0.0625-0.1875-0.15625-0.34375l-0.09375-0.15625 0.046875 0.078125 0.046875 0.078125 0.26562-0.26562q0.26562-0.26562 0.64062-0.14062t0.75 0.25 0.5 0.5 0.125 0.875 0 1 0 1 0 1 0 1 0 1 0 1 0 1 0 1 0 1-0.125 0.875-0.375 0.625-0.54688-0.01563l-0.29688-0.26562-0.04687 0.04687-0.04687 0.04687 0.09375-0.09375q0.09374-0.093735 0.09374-0.21874v-0.125 0.375-0.25q0-0.25-0.25-0.5t-0.375-0.625-0.25-0.75-0.51562-0.48438l-0.39062-0.10938 0.015625 0.10938 0.015625 0.10938-0.03125-0.21875q-0.03125-0.21875-0.09375-0.40625l-0.0625-0.1875 0.09375 0.28125 0.09375 0.28125-0.125-0.375q-0.125-0.375-0.375-0.625t-0.39062-0.64062l-0.14062-0.39062-0.10938 0.015625-0.10938 0.015625 0.21875-0.03125q0.21875-0.03125 0.40625-0.09375l0.1875-0.0625-0.28125 0.09375-0.28125 0.09375 0.375-0.125q0.375-0.125 0.48438-0.51562l0.10938-0.39062-0.10938 0.015625-0.10938 0.015625 0.21875-0.03125q0.21875-0.03125 0.40625-0.09375l0.1875-0.0625-0.28125 0.09375-0.28125 0.09375 0.375-0.125q0.375-0.125 0.5-0.5l0.125-0.375v0.75-0.25q0-0.25-0.09375-0.40625l-0.09375-0.15625 0.04687 0.07813 0.04687 0.07813 0.04687-0.54688q0.04689-0.54688 0.04689-1.0469t0-1 0-1-0.125-0.875" fill="#262626"/>
<path d="m13.125 8.625q0.125-0.375 0.5-0.5l0.375-0.125-0.28125 0.09375-0.28125 0.09375 0.1875-0.0625q0.1875-0.0625 0.375-0.0625h0.1875-0.1875l0.125 0.34375q0.125 0.34375 0.46875 0.46875l0.34375 0.125v-0.1875 0.1875q0 0.1875-0.0625 0.375l-0.0625 0.1875 0.09375-0.28125 0.09375-0.28125-0.125 0.375q-0.125 0.375-0.5 0.5t-0.75 0-0.5-0.5 0-0.75" fill="#311f1b"/>
<path d="m14.125 8.4062-0.125-0.34375h-0.1875 0.1875q0.1875 0 0.375 0.0625l0.1875 0.0625-0.28125-0.09375-0.28125-0.09375 0.375 0.125q0.375 0.125 0.5 0.5l0.125 0.375-0.09375-0.28125-0.09375-0.28125 0.0625 0.1875q0.0625 0.1875 0.0625 0.375v0.1875-0.1875l-0.34375-0.125q-0.34375-0.125-0.46875-0.46875" fill="#6a3836"/>
<path d="m17.125 8.625q0.125-0.375 0.5-0.5l0.375-0.125v1l-0.48438 0.015625-0.48438 0.015625-0.015625 0.10938-0.015625 0.10938 0.03125-0.21875q0.03125-0.21875 0.09375-0.40625l0.0625-0.1875-0.09375 0.28125-0.09375 0.28125 0.125-0.375m0.875 0.5v-0.875 0.25q0 0.25 0 0.5v0.25-0.125m0-0.75v-0.625 0.25q0 0.25 0 0.5v0.25-0.375" fill="#6a3836"/>
<path d="m17 9.5v-0.5 0.75-0.25q0-0.25 0.03125-0.46875l0.03125-0.21875-0.015625 0.10938-0.015625 0.10938 0.48438-0.015625 0.48438-0.015625v1h-1v-0.5m1 0.625v-0.875 0.25q0 0.25 0 0.5v0.25-0.125m0-0.75v-0.625 0.25q0 0.25 0 0.5v0.25-0.375" fill="#311f1b"/>
<path d="m15.125 10.625q0.125-0.375 0.5-0.5l0.375-0.125-0.28125 0.09375-0.28125 0.09375 0.1875-0.0625q0.1875-0.0625 0.40625-0.09375l0.21875-0.03125-0.10938 0.01563-0.10938 0.01563-0.14062 0.35938q-0.14062 0.35938-0.5 0.5l-0.35938 0.14062-0.015625 0.10938-0.015625 0.10938 0.03125-0.21875q0.03125-0.21875 0.09375-0.40625l0.0625-0.1875-0.09375 0.28125-0.09375 0.28125 0.125-0.375" fill="#c1a24e"/>
<path d="m15.891 10.391 0.14062-0.35938-0.10938 0.015625-0.10938 0.015625 0.21875-0.03125q0.21875-0.03125 0.46875-0.03125h0.25-0.75 1l0.125 0.375q0.125 0.375 0.5 0.5t0.25 0.5-0.5 0.5-0.875 0.125-1 0h-0.5v-1 0.75-0.25q0-0.25 0.03125-0.46875l0.03125-0.21875-0.01563 0.10938-0.01563 0.10938 0.35938-0.14062q0.35938-0.14062 0.5-0.5m-1.0156 1.6094h0.875-0.25q-0.25 0-0.5 0h-0.25 0.125" fill="#eacf60"/>
<path d="m17.125 10.375-0.125-0.375h1l-0.04687 0.54688-0.04687 0.54688 0.04687 0.07813 0.04687 0.07812-0.09375-0.15625q-0.09375-0.15625-0.28125-0.21875l-0.1875-0.0625 0.28125 0.09375 0.28125 0.09375-0.375-0.125q-0.375-0.125-0.5-0.5m0.875 0v-0.625 0.25q0 0.25 0 0.5v0.25-0.375" fill="#95484c"/>
<path d="m11 12.5v-0.5h0.5q0.5 0 1 0t1 0 1 0 1 0 1 0h0.5-0.75 0.25q0.25 0 0.46875-0.03125l0.21875-0.03125-0.10938 0.01563-0.10938 0.01563-0.10938 0.39062q-0.10938 0.39062-0.48438 0.51562t-0.875 0.125-1 0h-1q-0.5 0-1 0h-1.5v-0.5" fill="#6a3836"/>
<path d="m10 13.5q0.25-0.25 0.625-0.375l0.375-0.125v1.0625h0.1875-0.1875q-0.1875 0-0.375 0.0625l-0.1875 0.0625 0.28125-0.09375 0.28125-0.09375-0.375 0.125q-0.375 0.125-0.625 0.375t-0.5 0.5-0.375 0.625-0.25 0.75-0.375 0.625-0.35938 0.60938l-0.10938 0.35938 0.10938 0.015625 0.10938 0.015625-0.21875-0.03125q-0.21875-0.03125-0.40625-0.09375l-0.1875-0.0625 0.28125 0.09375 0.28125 0.09375-0.375-0.125q-0.375-0.125-0.375-0.375t0.25-0.5 0.375-0.625 0.25-0.75 0.375-0.625 0.5-0.5 0.5-0.5 0.5-0.5" fill="#95484c"/>
<path d="m11 13.531v-0.53125h1l0.125 0.375q0.125 0.375 0.5 0.5t0.375 0.625-0.125 0.875 0.15625 0.65625l0.28125 0.28125 0.03125-0.03125 0.03125-0.03125-0.0625 0.0625q-0.0625 0.0625-0.0625 0.1875v0.125-0.375 0.5-0.375 0.125q0 0.125 0.09375 0.21875l0.09375 0.09375-0.04687-0.04687-0.04687-0.04687-0.32812 0.29688-0.32812 0.29688 0.0625 0.0625 0.0625 0.0625-0.125-0.125q-0.12501-0.12501-0.31251-0.18751l-0.1875-0.0625 0.28125 0.09375 0.28125 0.09375-0.375-0.125-0.375-0.125v-0.5q0-0.5 0-1t-0.125-0.875-0.5-0.5l-0.375-0.125 0.28125 0.09375 0.28125 0.09375-0.1875-0.0625q-0.1875-0.0625-0.375-0.0625h-0.1875 0.1875v-0.53125m1 3.0938v0.625-0.25q0-0.25 0-0.5v-0.25 0.375" fill="#9c7f54"/>
<path d="m12.125 13.375-0.125-0.375h0.5q0.5 0 1 0h0.5v0.5q0 0.5 0.5 0.5t0.5 0.5 0.5 0.5h0.5v1-0.75 0.25q0 0.25-0.03125 0.46875l-0.03125 0.21875 0.01563-0.10938 0.01563-0.10938-0.35938 0.14062q-0.35938 0.14062-0.5 0.5l-0.14064 0.35938 0.10938-0.015625 0.10938-0.015625-0.21875 0.03125q-0.21875 0.03125-0.46875 0.03125h-0.25 0.75-1 0.75-0.25q-0.25 0-0.46875-0.03125l-0.21875-0.03125 0.10938 0.01563 0.10938 0.01563-0.14062-0.35938q-0.14062-0.35938-0.39062-0.35938h-0.25 0.375-0.125q-0.125 0-0.1875 0.0625l-0.0625 0.0625 0.03125-0.03125 0.03125-0.03125-0.28125-0.28125q-0.28125-0.28125-0.15625-0.65625t0.125-0.875-0.375-0.625-0.5-0.5" fill="#bda67a"/>
<path d="m14 13.5v-0.5h0.5q0.5 0 1 0h0.5-0.75 0.25q0.25 0 0.46875-0.03125l0.21875-0.03125-0.10938 0.01563-0.10938 0.01563 0.14062 0.39062q0.14062 0.39062 0.39062 0.64062t0.375 0.625l0.125 0.375h-1.5q-0.5 0-0.5-0.5t-0.5-0.5-0.5-0.5" fill="#9c7f54"/>
<path d="m10 14.5q0.25-0.25 0.625-0.375t0.75 0 0.5 0.5l0.125 0.375-0.09375-0.28125-0.09375-0.28125 0.0625 0.1875q0.0625 0.1875 0.09375 0.40625l0.03125 0.21875-0.015625-0.10938-0.015625-0.10938-0.35938 0.10938q-0.35938 0.10938-0.48438 0.48438t-0.125 0.875v0.5l-0.375 0.125q-0.375 0.125-0.5 0.5l-0.125 0.375h-0.5q-0.5 0-1 0h-0.5 0.75-0.25q-0.25 0-0.46875-0.03125l-0.21875-0.03125 0.10938 0.015625 0.10938 0.015625 0.10938-0.35938q0.10938-0.35938 0.35938-0.60938t0.375-0.625 0.25-0.75 0.375-0.625 0.5-0.5m-0.375 3.5h0.625-0.25q-0.25 0-0.5 0h-0.25 0.375m1.375-0.875v-0.875 0.25q0 0.25 0 0.5v0.25-0.125" fill="#cd5061"/>
<path d="m11.125 15.625q0.125-0.375 0.48438-0.48438l0.35938-0.10938-0.015625-0.10938-0.015625-0.10938 0.03125 0.21875q0.03125 0.21875 0.03125 0.46875v0.25-0.75 1l-0.48438 0.01563-0.48438 0.01563-0.01563 0.10938-0.01562 0.10936 0.03125-0.21875q0.03125-0.21875 0.09375-0.40625l0.0625-0.1875-0.09375 0.28125-0.09375 0.28125 0.125-0.375m0.875 0.5v-0.875 0.25q0 0.25 0 0.5v0.25-0.125" fill="#95484c"/>
<path d="m16 15.5v-0.5h1v0.5q0 0.5 0 1v0.5l-0.375 0.125q-0.375 0.125-0.5 0.5l-0.125 0.375h-0.5q-0.5 0-1 0t-1 0h-0.5l-0.125-0.375-0.125-0.375 0.09375 0.28125 0.09375 0.28125-0.0625-0.1875q-0.0625-0.1875-0.1875-0.3125l-0.125-0.125 0.0625 0.0625 0.0625 0.0625 0.32812-0.29688 0.32812-0.29688-0.04687-0.04687-0.04688-0.04688 0.09375 0.09375q0.09375 0.09375 0.28125 0.15625l0.1875 0.0625-0.28125-0.09375-0.28125-0.09375 0.375 0.125q0.375 0.125 0.875 0.125t0.875-0.125 0.5-0.5 0.125-0.875m-3.125 2.5h0.875-0.25q-0.25 0-0.5 0h-0.25 0.125m2.75 0h0.625-0.25q-0.25 0-0.5 0h-0.25 0.375" fill="#755937"/>
<path d="m17 15.5v-0.5 0.75-0.25q0-0.25-0.03125-0.46875l-0.03125-0.21875 0.01563 0.10938 0.01563 0.10938 0.39062 0.10938q0.39062 0.10938 0.51562 0.48438t0.25 0.75 0.375 0.625 0.25 0.5-0.375 0.375l-0.375 0.125 0.28125-0.09375 0.28125-0.09375-0.1875 0.0625q-0.1875 0.0625-0.40625 0.09375l-0.21875 0.03125 0.10938-0.015625 0.10938-0.015625-0.10938-0.35938q-0.10938-0.35938-0.48438-0.48438l-0.375-0.125v-0.5q0-0.5 0-1" fill="#95484c"/>
<path d="m11 16.5v-0.5 0.75-0.25q0-0.25 0.03125-0.46875l0.03125-0.21875-0.01563 0.10938-0.01563 0.10938 0.48438-0.01563 0.48438-0.01562v0.5q0 0.5 0 1v0.5h-1v-0.5q0-0.5 0-1m-0.125 1.5h0.875-0.25q-0.25 0-0.5 0h-0.25 0.125m0.75 0h0.625-0.25q-0.25 0-0.5 0h-0.25 0.375m0.375-1.625v-0.625 0.25q0 0.25 0 0.5v0.25-0.375" fill="#6a3836"/>
<path d="m13.25 16.5q0-0.25 0.25-0.25t0.39062 0.35938l0.14062 0.35938 0.10938 0.01563 0.10938 0.01562-0.21875-0.03125q-0.21875-0.03125-0.40625-0.09375l-0.1875-0.0625 0.28125 0.09375 0.28125 0.09375-0.375-0.125q-0.375-0.125-0.375-0.375" fill="#d7e8e8"/>
<path d="m15.109 16.609q0.14062-0.35938 0.5-0.5l0.35938-0.14062 0.015625-0.10938 0.015625-0.10938-0.03125 0.21875q-0.03125 0.21875-0.09375 0.40625l-0.0625 0.1875 0.09375-0.28125 0.09375-0.28125-0.125 0.375q-0.125 0.375-0.5 0.5l-0.375 0.125 0.28125-0.09375 0.28125-0.09375-0.1875 0.0625q-0.1875 0.0625-0.40625 0.09375l-0.21875 0.03125 0.10938-0.01563 0.10938-0.01563 0.14062-0.35938" fill="#d7e8e8"/>
<path d="m10.125 17.625q0.125-0.375 0.5-0.5l0.375-0.125v1h-1l0.125-0.375m-0.25 0.375h0.875-0.25q-0.25 0-0.5 0h-0.25 0.125m0.75 0h0.625-0.25q-0.25 0-0.5 0h-0.25 0.375m0.375-0.625v-0.625 0.25q0 0.25 0 0.5v0.25-0.375" fill="#95484c"/>
<path d="m12 17.5v-0.5l0.375 0.125q0.375 0.125 0.5 0.5l0.125 0.375h-1v-0.5m-0.125 0.5h0.875-0.25q-0.25 0-0.5 0h-0.25 0.125m0.75 0h0.625-0.25q-0.25 0-0.5 0h-0.25 0.375m-0.625-1.125v0.875-0.25q0-0.25 0-0.5v-0.25 0.125" fill="#95484c"/>
<path d="m16.125 17.625q0.125-0.375 0.5-0.5l0.375-0.125v1h-1l0.125-0.375m-0.25 0.375h0.875-0.25q-0.25 0-0.5 0h-0.25 0.125m0.75 0h0.625-0.25q-0.25 0-0.5 0h-0.25 0.375" fill="#6a3836"/>
<path d="m17 17.5v-0.5l0.375 0.125q0.375 0.125 0.48438 0.48438l0.10938 0.35938 0.10938-0.01563 0.10938-0.01563-0.21875 0.03125q-0.21875 0.03126-0.46875 0.03126h-0.25 0.75-1v-0.5m-0.125 0.5h0.875-0.25q-0.25 0-0.5 0h-0.25 0.125" fill="#cd5061"/>
</g>
</g>
</svg>
